<?xml version="1.0" encoding="UTF-8" standalone="no"?>
<!DOCTYPE svg PUBLIC "-//W3C//DTD SVG 1.1//EN" "http://www.w3.org/Graphics/SVG/1.1/DTD/svg11.dtd">
<svg width="100%" height="100%" viewBox="0 0 197 444" version="1.1" xmlns="http://www.w3.org/2000/svg" xmlns:xlink="http://www.w3.org/1999/xlink" xml:space="preserve" xmlns:serif="http://www.serif.com/" style="fill-rule:evenodd;clip-rule:evenodd;stroke-linejoin:round;stroke-miterlimit:1.41421;">
    <g id="Screens">
        <g opacity="0.401451">
            <g transform="matrix(2.18152,0,0,1.21516,-121.421,-218.586)">
                <rect x="73.94" y="357.504" width="49.883" height="72.582" style="fill:white;"/>
            </g>
            <g transform="matrix(1.00223,0,0,1.02297,-0.30712,-9.26384)">
                <rect x="73.94" y="357.504" width="49.883" height="72.582" style="fill:white;"/>
            </g>
            <g transform="matrix(3.65717,0,0,1.60809,-262.159,-567.764)">
                <rect x="73.94" y="357.504" width="49.883" height="72.582" style="fill:white;"/>
            </g>
        </g>
    </g>
    <g transform="matrix(0.636834,0,0,0.636834,-110.293,-75.0763)">
        <path d="M291.2,338.4L364.3,338.4L364.3,378.11L406.04,378.11L406.04,394.11L249.48,394.11L249.48,378.11L291.22,378.11L291.22,338.4L291.2,338.4ZM173.2,117.89L173.2,322.4L482.35,322.4L482.35,117.89L173.19,117.89L173.2,117.89ZM466.35,306.4L189.19,306.4L189.19,133.89L466.35,133.89L466.35,306.4Z" style="fill:white;fill-rule:nonzero;"/>
    </g>
    <g transform="matrix(0.279482,0,0,0.292648,26.8943,184.963)">
        <path d="M22.5,93L22.5,419L489.5,419L489.5,93L22.5,93ZM37.6,262.44C33.979,262.44 31,259.461 31,255.84C31,252.219 33.979,249.24 37.6,249.24C41.221,249.24 44.2,252.219 44.2,255.84C44.2,259.461 41.221,262.44 37.6,262.44ZM427.5,401L50.5,401L50.5,109L427.5,109L427.5,401ZM456.5,267.68C449.999,267.68 444.65,262.331 444.65,255.83C444.65,249.329 449.999,243.98 456.5,243.98C463.001,243.98 468.35,249.329 468.35,255.83C468.35,262.331 463.001,267.68 456.5,267.68Z" style="fill:white;fill-rule:nonzero;"/>
    </g>
    <g transform="matrix(0.223506,0,0,0.223506,41.2243,336.703)">
        <path d="M160,32C144,32 128,48 128,64L128,448C128,464 144,480 160,480L352,480C368,480 384,464 384,448L384,64C384,48 368,32 352,32L160,32ZM181.68,55L277.68,55L277.68,73L181.68,73L181.68,55ZM304,55L336,55L336,73L304,73L304,55ZM154,96L358,96L358,416L154,416L154,96ZM224,438L287.984,438C303.984,438 303.984,454 303.984,454L303.984,460L208,460L208,454C208,454 208,438 224,438Z" style="fill:white;fill-rule:nonzero;"/>
    </g>
</svg>
