<?xml version="1.0" encoding="UTF-8" standalone="no"?>
<!DOCTYPE svg PUBLIC "-//W3C//DTD SVG 1.1//EN" "http://www.w3.org/Graphics/SVG/1.1/DTD/svg11.dtd">
<svg width="100%" height="100%" viewBox="0 0 20 20" version="1.1" xmlns="http://www.w3.org/2000/svg" xmlns:xlink="http://www.w3.org/1999/xlink" xml:space="preserve" xmlns:serif="http://www.serif.com/" style="fill-rule:evenodd;clip-rule:evenodd;stroke-linejoin:round;">
    <g transform="matrix(0.115456,0,0,0.115456,-25.9918,-12.8427)">
        <g id="Muaat">
            <path id="path4192" d="M321.429,282.005C321.373,282.015 294.996,286.618 291.071,258.791C196.071,194.505 362.857,120.576 290,122.362C283.671,106.817 359.286,102.719 344.286,184.862C397.857,244.148 315.714,251.291 321.429,282.005ZM310.714,256.291C308.441,250.609 305.596,251.607 304.643,243.969C310.483,230.037 339.166,218.562 337.321,200.398C337.256,169.565 303.393,164.684 304.107,173.255C319.259,172.371 319.196,181.254 310.357,190.219C310.357,190.219 285.527,214.268 284.832,223.612C285.058,247.297 290.982,247.765 299.621,254.976C302.363,257.264 309.577,258.058 310.714,256.291Z" style="fill:url(#_Linear1);stroke:black;stroke-width:2.53px;"/>
        </g>
    </g>
    <defs>
        <linearGradient id="_Linear1" x1="0" y1="0" x2="1" y2="0" gradientUnits="userSpaceOnUse" gradientTransform="matrix(12.9089,96.7857,-96.7857,12.9089,307.246,148.561)"><stop offset="0" style="stop-color:rgb(213,158,67);stop-opacity:1"/><stop offset="1" style="stop-color:rgb(227,76,59);stop-opacity:1"/></linearGradient>
    </defs>
</svg>
