<?xml version="1.0" encoding="UTF-8" standalone="no"?>
<!DOCTYPE svg PUBLIC "-//W3C//DTD SVG 1.1//EN" "http://www.w3.org/Graphics/SVG/1.1/DTD/svg11.dtd">
<svg width="100%" height="100%" viewBox="0 0 20 20" version="1.1" xmlns="http://www.w3.org/2000/svg" xmlns:xlink="http://www.w3.org/1999/xlink" xml:space="preserve" xmlns:serif="http://www.serif.com/" style="fill-rule:evenodd;clip-rule:evenodd;stroke-linejoin:round;stroke-miterlimit:1.41421;">
    <g transform="matrix(1.23832,0,0,1.23832,-2.6866,-2.19453)">
        <g id="Jol-Nar">
            <g>
                <g transform="matrix(1,0,0,1,0.17774,-0.350237)">
                    <g transform="matrix(0.962315,0,0,1.50778,3.6784,-5.35264)">
                        <ellipse cx="10.074" cy="10.313" rx="3.122" ry="3.49" style="fill:rgb(45,115,150);"/>
                        <path d="M10.12,6.663L10.166,6.664L10.211,6.665L10.257,6.668L10.302,6.67L10.347,6.674L10.392,6.678L10.437,6.683L10.482,6.688L10.526,6.694L10.57,6.701L10.614,6.708L10.658,6.716L10.701,6.724L10.745,6.733L10.788,6.743L10.83,6.753L10.873,6.764L10.915,6.775L10.957,6.787L10.999,6.799L11.04,6.812L11.081,6.825L11.122,6.839L11.163,6.853L11.203,6.868L11.243,6.884L11.283,6.9L11.322,6.916L11.361,6.933L11.4,6.951L11.438,6.968L11.477,6.987L11.515,7.006L11.552,7.025L11.589,7.045L11.626,7.065L11.663,7.086L11.699,7.107L11.735,7.128L11.771,7.15L11.806,7.173L11.841,7.195L11.876,7.219L11.91,7.242L11.945,7.267L12.011,7.316L12.077,7.367L12.141,7.419L12.204,7.473L12.266,7.529L12.327,7.586L12.386,7.645L12.443,7.705L12.5,7.766L12.554,7.829L12.608,7.893L12.66,7.959L12.71,8.025L12.759,8.093L12.807,8.163L12.853,8.233L12.897,8.305L12.94,8.377L12.981,8.451L13.021,8.527L13.059,8.603L13.096,8.68L13.13,8.758L13.164,8.837L13.195,8.918L13.225,8.999L13.253,9.081L13.279,9.164L13.303,9.248L13.326,9.333L13.346,9.418L13.365,9.505L13.382,9.592L13.397,9.68L13.411,9.768L13.422,9.858L13.431,9.948L13.438,10.038L13.443,10.129L13.446,10.221L13.448,10.313L13.446,10.406L13.443,10.498L13.438,10.589L13.431,10.679L13.422,10.769L13.411,10.859L13.397,10.947L13.382,11.035L13.365,11.122L13.346,11.209L13.326,11.294L13.303,11.379L13.279,11.463L13.253,11.546L13.225,11.628L13.195,11.709L13.164,11.79L13.13,11.869L13.096,11.947L13.059,12.024L13.021,12.1L12.981,12.176L12.94,12.249L12.897,12.322L12.853,12.394L12.807,12.464L12.759,12.534L12.71,12.602L12.66,12.668L12.608,12.734L12.554,12.798L12.5,12.861L12.443,12.922L12.386,12.982L12.327,13.041L12.266,13.098L12.204,13.153L12.141,13.208L12.077,13.26L12.011,13.311L11.945,13.36L11.91,13.385L11.876,13.408L11.841,13.432L11.806,13.454L11.771,13.477L11.735,13.499L11.699,13.52L11.663,13.541L11.626,13.562L11.589,13.582L11.552,13.602L11.515,13.621L11.477,13.64L11.438,13.659L11.4,13.676L11.361,13.694L11.322,13.711L11.283,13.727L11.243,13.743L11.203,13.759L11.163,13.774L11.122,13.788L11.081,13.802L11.04,13.815L10.999,13.828L10.957,13.84L10.915,13.852L10.873,13.863L10.83,13.874L10.788,13.884L10.745,13.894L10.701,13.903L10.658,13.911L10.614,13.919L10.57,13.926L10.526,13.933L10.482,13.939L10.437,13.944L10.392,13.949L10.347,13.953L10.302,13.957L10.257,13.959L10.211,13.962L10.166,13.963L10.12,13.964L10.074,13.965L10.028,13.964L9.982,13.963L9.937,13.962L9.891,13.959L9.846,13.957L9.801,13.953L9.756,13.949L9.711,13.944L9.666,13.939L9.622,13.933L9.578,13.926L9.534,13.919L9.49,13.911L9.446,13.903L9.403,13.894L9.36,13.884L9.317,13.874L9.275,13.863L9.232,13.852L9.191,13.84L9.149,13.828L9.107,13.815L9.066,13.802L9.025,13.788L8.985,13.774L8.945,13.759L8.905,13.743L8.865,13.727L8.826,13.711L8.786,13.694L8.748,13.676L8.709,13.659L8.671,13.64L8.633,13.621L8.596,13.602L8.558,13.582L8.522,13.562L8.485,13.541L8.449,13.52L8.413,13.499L8.377,13.477L8.342,13.454L8.307,13.432L8.272,13.408L8.238,13.385L8.203,13.36L8.137,13.311L8.071,13.26L8.006,13.208L7.943,13.153L7.881,13.098L7.821,13.041L7.762,12.982L7.704,12.922L7.648,12.861L7.593,12.798L7.54,12.734L7.488,12.668L7.437,12.602L7.388,12.534L7.341,12.464L7.295,12.394L7.251,12.322L7.208,12.249L7.166,12.176L7.127,12.1L7.089,12.024L7.052,11.947L7.017,11.869L6.984,11.79L6.953,11.709L6.923,11.628L6.895,11.546L6.869,11.463L6.845,11.379L6.822,11.294L6.801,11.209L6.782,11.122L6.765,11.035L6.75,10.947L6.737,10.859L6.726,10.769L6.717,10.679L6.71,10.589L6.704,10.498L6.701,10.406L6.7,10.313L6.701,10.221L6.704,10.129L6.71,10.038L6.717,9.948L6.726,9.858L6.737,9.768L6.75,9.68L6.765,9.592L6.782,9.505L6.801,9.418L6.822,9.333L6.845,9.248L6.869,9.164L6.895,9.081L6.923,8.999L6.953,8.918L6.984,8.837L7.017,8.758L7.052,8.68L7.089,8.603L7.127,8.527L7.166,8.451L7.208,8.377L7.251,8.305L7.295,8.233L7.341,8.163L7.388,8.093L7.437,8.025L7.488,7.959L7.54,7.893L7.593,7.829L7.648,7.766L7.704,7.705L7.762,7.645L7.821,7.586L7.881,7.529L7.943,7.473L8.006,7.419L8.071,7.367L8.137,7.316L8.203,7.267L8.238,7.242L8.272,7.219L8.307,7.195L8.342,7.173L8.377,7.15L8.413,7.128L8.449,7.107L8.485,7.086L8.522,7.065L8.558,7.045L8.596,7.025L8.633,7.006L8.671,6.987L8.709,6.968L8.748,6.951L8.786,6.933L8.826,6.916L8.865,6.9L8.905,6.884L8.945,6.868L8.985,6.853L9.025,6.839L9.066,6.825L9.107,6.812L9.149,6.799L9.191,6.787L9.232,6.775L9.275,6.764L9.317,6.753L9.36,6.743L9.403,6.733L9.446,6.724L9.49,6.716L9.534,6.708L9.578,6.701L9.622,6.694L9.666,6.688L9.711,6.683L9.756,6.678L9.801,6.674L9.846,6.67L9.891,6.668L9.937,6.665L9.982,6.664L10.028,6.663L10.074,6.662L10.12,6.663ZM10.034,6.823L9.993,6.824L9.953,6.826L9.913,6.828L9.873,6.83L9.834,6.833L9.794,6.837L9.755,6.841L9.716,6.846L9.676,6.851L9.638,6.857L9.599,6.863L9.56,6.87L9.522,6.878L9.483,6.886L9.445,6.894L9.407,6.903L9.369,6.912L9.332,6.922L9.294,6.933L9.257,6.944L9.22,6.956L9.183,6.968L9.146,6.98L9.109,6.993L9.073,7.007L9.037,7.021L9.001,7.035L8.965,7.05L8.93,7.065L8.894,7.081L8.859,7.098L8.824,7.114L8.79,7.132L8.755,7.149L8.721,7.167L8.687,7.186L8.653,7.205L8.62,7.225L8.586,7.245L8.553,7.265L8.52,7.286L8.488,7.307L8.456,7.329L8.424,7.351L8.392,7.373L8.329,7.419L8.267,7.467L8.206,7.517L8.147,7.568L8.089,7.62L8.031,7.675L7.975,7.73L7.92,7.787L7.867,7.846L7.814,7.906L7.763,7.967L7.714,8.03L7.665,8.094L7.618,8.159L7.573,8.226L7.528,8.293L7.485,8.363L7.444,8.433L7.404,8.504L7.366,8.577L7.329,8.65L7.294,8.725L7.26,8.801L7.228,8.878L7.197,8.955L7.169,9.034L7.142,9.114L7.116,9.194L7.092,9.276L7.07,9.358L7.05,9.442L7.032,9.526L7.015,9.61L7.001,9.696L6.988,9.782L6.977,9.869L6.968,9.957L6.961,10.045L6.956,10.134L6.953,10.223L6.952,10.313L6.953,10.404L6.956,10.493L6.961,10.582L6.968,10.67L6.977,10.758L6.988,10.845L7.001,10.931L7.015,11.017L7.032,11.101L7.05,11.185L7.07,11.269L7.092,11.351L7.116,11.432L7.142,11.513L7.169,11.593L7.197,11.672L7.228,11.749L7.26,11.826L7.294,11.902L7.329,11.977L7.366,12.05L7.404,12.123L7.444,12.194L7.485,12.264L7.528,12.333L7.573,12.401L7.618,12.468L7.665,12.533L7.714,12.597L7.763,12.66L7.814,12.721L7.867,12.781L7.92,12.84L7.975,12.897L8.031,12.952L8.089,13.006L8.147,13.059L8.206,13.11L8.267,13.16L8.329,13.207L8.392,13.254L8.424,13.276L8.456,13.298L8.488,13.32L8.52,13.341L8.553,13.362L8.586,13.382L8.62,13.402L8.653,13.422L8.687,13.441L8.721,13.46L8.755,13.478L8.79,13.495L8.824,13.513L8.859,13.529L8.894,13.546L8.93,13.562L8.965,13.577L9.001,13.592L9.037,13.606L9.073,13.62L9.109,13.634L9.146,13.647L9.183,13.659L9.22,13.671L9.257,13.683L9.294,13.694L9.332,13.704L9.369,13.714L9.407,13.724L9.445,13.733L9.483,13.741L9.522,13.749L9.56,13.757L9.599,13.764L9.638,13.77L9.676,13.776L9.716,13.781L9.755,13.786L9.794,13.79L9.834,13.794L9.873,13.797L9.913,13.799L9.953,13.801L9.993,13.803L10.034,13.804L10.074,13.804L10.114,13.804L10.154,13.803L10.194,13.801L10.234,13.799L10.274,13.797L10.314,13.794L10.353,13.79L10.393,13.786L10.432,13.781L10.471,13.776L10.51,13.77L10.549,13.764L10.588,13.757L10.626,13.749L10.665,13.741L10.703,13.733L10.741,13.724L10.779,13.714L10.816,13.704L10.854,13.694L10.891,13.683L10.928,13.671L10.965,13.659L11.002,13.647L11.038,13.634L11.075,13.62L11.111,13.606L11.147,13.592L11.183,13.577L11.218,13.562L11.253,13.546L11.289,13.529L11.323,13.513L11.358,13.495L11.393,13.478L11.427,13.46L11.461,13.441L11.495,13.422L11.528,13.402L11.561,13.382L11.594,13.362L11.627,13.341L11.66,13.32L11.692,13.298L11.724,13.276L11.756,13.254L11.819,13.207L11.881,13.16L11.941,13.11L12.001,13.059L12.059,13.006L12.116,12.952L12.172,12.897L12.227,12.84L12.281,12.781L12.333,12.721L12.384,12.66L12.434,12.597L12.482,12.533L12.53,12.468L12.575,12.401L12.619,12.333L12.662,12.264L12.704,12.194L12.744,12.123L12.782,12.05L12.819,11.977L12.854,11.902L12.888,11.826L12.92,11.749L12.95,11.672L12.979,11.593L13.006,11.513L13.032,11.432L13.055,11.351L13.077,11.269L13.097,11.185L13.116,11.101L13.132,11.017L13.147,10.931L13.16,10.845L13.171,10.758L13.18,10.67L13.187,10.582L13.192,10.493L13.195,10.404L13.196,10.313L13.195,10.223L13.192,10.134L13.187,10.045L13.18,9.957L13.171,9.869L13.16,9.782L13.147,9.696L13.132,9.61L13.116,9.526L13.097,9.442L13.077,9.358L13.055,9.276L13.032,9.194L13.006,9.114L12.979,9.034L12.95,8.955L12.92,8.878L12.888,8.801L12.854,8.725L12.819,8.65L12.782,8.577L12.744,8.504L12.704,8.433L12.662,8.363L12.619,8.293L12.575,8.226L12.53,8.159L12.482,8.094L12.434,8.03L12.384,7.967L12.333,7.906L12.281,7.846L12.227,7.787L12.172,7.73L12.116,7.675L12.059,7.62L12.001,7.568L11.941,7.517L11.881,7.467L11.819,7.419L11.756,7.373L11.724,7.351L11.692,7.329L11.66,7.307L11.627,7.286L11.594,7.265L11.561,7.245L11.528,7.225L11.495,7.205L11.461,7.186L11.427,7.167L11.393,7.149L11.358,7.132L11.323,7.114L11.289,7.098L11.253,7.081L11.218,7.065L11.183,7.05L11.147,7.035L11.111,7.021L11.075,7.007L11.038,6.993L11.002,6.98L10.965,6.968L10.928,6.956L10.891,6.944L10.854,6.933L10.816,6.922L10.779,6.912L10.741,6.903L10.703,6.894L10.665,6.886L10.626,6.878L10.588,6.87L10.549,6.863L10.51,6.857L10.471,6.851L10.432,6.846L10.393,6.841L10.353,6.837L10.314,6.833L10.274,6.83L10.234,6.828L10.194,6.826L10.154,6.824L10.114,6.823L10.074,6.823L10.034,6.823Z"/>
                    </g>
                    <g transform="matrix(0.962315,0,0,1.50778,-2.93238,-5.35264)">
                        <ellipse cx="10.074" cy="10.313" rx="3.122" ry="3.49" style="fill:rgb(45,115,150);"/>
                        <path d="M10.12,6.663L10.166,6.664L10.211,6.665L10.257,6.668L10.302,6.67L10.347,6.674L10.392,6.678L10.437,6.683L10.482,6.688L10.526,6.694L10.57,6.701L10.614,6.708L10.658,6.716L10.701,6.724L10.745,6.733L10.788,6.743L10.83,6.753L10.873,6.764L10.915,6.775L10.957,6.787L10.999,6.799L11.04,6.812L11.081,6.825L11.122,6.839L11.163,6.853L11.203,6.868L11.243,6.884L11.283,6.9L11.322,6.916L11.361,6.933L11.4,6.951L11.438,6.968L11.477,6.987L11.515,7.006L11.552,7.025L11.589,7.045L11.626,7.065L11.663,7.086L11.699,7.107L11.735,7.128L11.771,7.15L11.806,7.173L11.841,7.195L11.876,7.219L11.91,7.242L11.945,7.267L12.011,7.316L12.077,7.367L12.141,7.419L12.204,7.473L12.266,7.529L12.327,7.586L12.386,7.645L12.443,7.705L12.5,7.766L12.554,7.829L12.608,7.893L12.66,7.959L12.71,8.025L12.759,8.093L12.807,8.163L12.853,8.233L12.897,8.305L12.94,8.377L12.981,8.451L13.021,8.527L13.059,8.603L13.096,8.68L13.13,8.758L13.164,8.837L13.195,8.918L13.225,8.999L13.253,9.081L13.279,9.164L13.303,9.248L13.326,9.333L13.346,9.418L13.365,9.505L13.382,9.592L13.397,9.68L13.411,9.768L13.422,9.858L13.431,9.948L13.438,10.038L13.443,10.129L13.446,10.221L13.448,10.313L13.446,10.406L13.443,10.498L13.438,10.589L13.431,10.679L13.422,10.769L13.411,10.859L13.397,10.947L13.382,11.035L13.365,11.122L13.346,11.209L13.326,11.294L13.303,11.379L13.279,11.463L13.253,11.546L13.225,11.628L13.195,11.709L13.164,11.79L13.13,11.869L13.096,11.947L13.059,12.024L13.021,12.1L12.981,12.176L12.94,12.249L12.897,12.322L12.853,12.394L12.807,12.464L12.759,12.534L12.71,12.602L12.66,12.668L12.608,12.734L12.554,12.798L12.5,12.861L12.443,12.922L12.386,12.982L12.327,13.041L12.266,13.098L12.204,13.153L12.141,13.208L12.077,13.26L12.011,13.311L11.945,13.36L11.91,13.385L11.876,13.408L11.841,13.432L11.806,13.454L11.771,13.477L11.735,13.499L11.699,13.52L11.663,13.541L11.626,13.562L11.589,13.582L11.552,13.602L11.515,13.621L11.477,13.64L11.438,13.659L11.4,13.676L11.361,13.694L11.322,13.711L11.283,13.727L11.243,13.743L11.203,13.759L11.163,13.774L11.122,13.788L11.081,13.802L11.04,13.815L10.999,13.828L10.957,13.84L10.915,13.852L10.873,13.863L10.83,13.874L10.788,13.884L10.745,13.894L10.701,13.903L10.658,13.911L10.614,13.919L10.57,13.926L10.526,13.933L10.482,13.939L10.437,13.944L10.392,13.949L10.347,13.953L10.302,13.957L10.257,13.959L10.211,13.962L10.166,13.963L10.12,13.964L10.074,13.965L10.028,13.964L9.982,13.963L9.937,13.962L9.891,13.959L9.846,13.957L9.801,13.953L9.756,13.949L9.711,13.944L9.666,13.939L9.622,13.933L9.578,13.926L9.534,13.919L9.49,13.911L9.446,13.903L9.403,13.894L9.36,13.884L9.317,13.874L9.275,13.863L9.232,13.852L9.191,13.84L9.149,13.828L9.107,13.815L9.066,13.802L9.025,13.788L8.985,13.774L8.945,13.759L8.905,13.743L8.865,13.727L8.826,13.711L8.786,13.694L8.748,13.676L8.709,13.659L8.671,13.64L8.633,13.621L8.596,13.602L8.558,13.582L8.522,13.562L8.485,13.541L8.449,13.52L8.413,13.499L8.377,13.477L8.342,13.454L8.307,13.432L8.272,13.408L8.238,13.385L8.203,13.36L8.137,13.311L8.071,13.26L8.006,13.208L7.943,13.153L7.881,13.098L7.821,13.041L7.762,12.982L7.704,12.922L7.648,12.861L7.593,12.798L7.54,12.734L7.488,12.668L7.437,12.602L7.388,12.534L7.341,12.464L7.295,12.394L7.251,12.322L7.208,12.249L7.166,12.176L7.127,12.1L7.089,12.024L7.052,11.947L7.017,11.869L6.984,11.79L6.953,11.709L6.923,11.628L6.895,11.546L6.869,11.463L6.845,11.379L6.822,11.294L6.801,11.209L6.782,11.122L6.765,11.035L6.75,10.947L6.737,10.859L6.726,10.769L6.717,10.679L6.71,10.589L6.704,10.498L6.701,10.406L6.7,10.313L6.701,10.221L6.704,10.129L6.71,10.038L6.717,9.948L6.726,9.858L6.737,9.768L6.75,9.68L6.765,9.592L6.782,9.505L6.801,9.418L6.822,9.333L6.845,9.248L6.869,9.164L6.895,9.081L6.923,8.999L6.953,8.918L6.984,8.837L7.017,8.758L7.052,8.68L7.089,8.603L7.127,8.527L7.166,8.451L7.208,8.377L7.251,8.305L7.295,8.233L7.341,8.163L7.388,8.093L7.437,8.025L7.488,7.959L7.54,7.893L7.593,7.829L7.648,7.766L7.704,7.705L7.762,7.645L7.821,7.586L7.881,7.529L7.943,7.473L8.006,7.419L8.071,7.367L8.137,7.316L8.203,7.267L8.238,7.242L8.272,7.219L8.307,7.195L8.342,7.173L8.377,7.15L8.413,7.128L8.449,7.107L8.485,7.086L8.522,7.065L8.558,7.045L8.596,7.025L8.633,7.006L8.671,6.987L8.709,6.968L8.748,6.951L8.786,6.933L8.826,6.916L8.865,6.9L8.905,6.884L8.945,6.868L8.985,6.853L9.025,6.839L9.066,6.825L9.107,6.812L9.149,6.799L9.191,6.787L9.232,6.775L9.275,6.764L9.317,6.753L9.36,6.743L9.403,6.733L9.446,6.724L9.49,6.716L9.534,6.708L9.578,6.701L9.622,6.694L9.666,6.688L9.711,6.683L9.756,6.678L9.801,6.674L9.846,6.67L9.891,6.668L9.937,6.665L9.982,6.664L10.028,6.663L10.074,6.662L10.12,6.663ZM10.034,6.823L9.993,6.824L9.953,6.826L9.913,6.828L9.873,6.83L9.834,6.833L9.794,6.837L9.755,6.841L9.716,6.846L9.676,6.851L9.638,6.857L9.599,6.863L9.56,6.87L9.522,6.878L9.483,6.886L9.445,6.894L9.407,6.903L9.369,6.912L9.332,6.922L9.294,6.933L9.257,6.944L9.22,6.956L9.183,6.968L9.146,6.98L9.109,6.993L9.073,7.007L9.037,7.021L9.001,7.035L8.965,7.05L8.93,7.065L8.894,7.081L8.859,7.098L8.824,7.114L8.79,7.132L8.755,7.149L8.721,7.167L8.687,7.186L8.653,7.205L8.62,7.225L8.586,7.245L8.553,7.265L8.52,7.286L8.488,7.307L8.456,7.329L8.424,7.351L8.392,7.373L8.329,7.419L8.267,7.467L8.206,7.517L8.147,7.568L8.089,7.62L8.031,7.675L7.975,7.73L7.92,7.787L7.867,7.846L7.814,7.906L7.763,7.967L7.714,8.03L7.665,8.094L7.618,8.159L7.573,8.226L7.528,8.293L7.485,8.363L7.444,8.433L7.404,8.504L7.366,8.577L7.329,8.65L7.294,8.725L7.26,8.801L7.228,8.878L7.197,8.955L7.169,9.034L7.142,9.114L7.116,9.194L7.092,9.276L7.07,9.358L7.05,9.442L7.032,9.526L7.015,9.61L7.001,9.696L6.988,9.782L6.977,9.869L6.968,9.957L6.961,10.045L6.956,10.134L6.953,10.223L6.952,10.313L6.953,10.404L6.956,10.493L6.961,10.582L6.968,10.67L6.977,10.758L6.988,10.845L7.001,10.931L7.015,11.017L7.032,11.101L7.05,11.185L7.07,11.269L7.092,11.351L7.116,11.432L7.142,11.513L7.169,11.593L7.197,11.672L7.228,11.749L7.26,11.826L7.294,11.902L7.329,11.977L7.366,12.05L7.404,12.123L7.444,12.194L7.485,12.264L7.528,12.333L7.573,12.401L7.618,12.468L7.665,12.533L7.714,12.597L7.763,12.66L7.814,12.721L7.867,12.781L7.92,12.84L7.975,12.897L8.031,12.952L8.089,13.006L8.147,13.059L8.206,13.11L8.267,13.16L8.329,13.207L8.392,13.254L8.424,13.276L8.456,13.298L8.488,13.32L8.52,13.341L8.553,13.362L8.586,13.382L8.62,13.402L8.653,13.422L8.687,13.441L8.721,13.46L8.755,13.478L8.79,13.495L8.824,13.513L8.859,13.529L8.894,13.546L8.93,13.562L8.965,13.577L9.001,13.592L9.037,13.606L9.073,13.62L9.109,13.634L9.146,13.647L9.183,13.659L9.22,13.671L9.257,13.683L9.294,13.694L9.332,13.704L9.369,13.714L9.407,13.724L9.445,13.733L9.483,13.741L9.522,13.749L9.56,13.757L9.599,13.764L9.638,13.77L9.676,13.776L9.716,13.781L9.755,13.786L9.794,13.79L9.834,13.794L9.873,13.797L9.913,13.799L9.953,13.801L9.993,13.803L10.034,13.804L10.074,13.804L10.114,13.804L10.154,13.803L10.194,13.801L10.234,13.799L10.274,13.797L10.314,13.794L10.353,13.79L10.393,13.786L10.432,13.781L10.471,13.776L10.51,13.77L10.549,13.764L10.588,13.757L10.626,13.749L10.665,13.741L10.703,13.733L10.741,13.724L10.779,13.714L10.816,13.704L10.854,13.694L10.891,13.683L10.928,13.671L10.965,13.659L11.002,13.647L11.038,13.634L11.075,13.62L11.111,13.606L11.147,13.592L11.183,13.577L11.218,13.562L11.253,13.546L11.289,13.529L11.323,13.513L11.358,13.495L11.393,13.478L11.427,13.46L11.461,13.441L11.495,13.422L11.528,13.402L11.561,13.382L11.594,13.362L11.627,13.341L11.66,13.32L11.692,13.298L11.724,13.276L11.756,13.254L11.819,13.207L11.881,13.16L11.941,13.11L12.001,13.059L12.059,13.006L12.116,12.952L12.172,12.897L12.227,12.84L12.281,12.781L12.333,12.721L12.384,12.66L12.434,12.597L12.482,12.533L12.53,12.468L12.575,12.401L12.619,12.333L12.662,12.264L12.704,12.194L12.744,12.123L12.782,12.05L12.819,11.977L12.854,11.902L12.888,11.826L12.92,11.749L12.95,11.672L12.979,11.593L13.006,11.513L13.032,11.432L13.055,11.351L13.077,11.269L13.097,11.185L13.116,11.101L13.132,11.017L13.147,10.931L13.16,10.845L13.171,10.758L13.18,10.67L13.187,10.582L13.192,10.493L13.195,10.404L13.196,10.313L13.195,10.223L13.192,10.134L13.187,10.045L13.18,9.957L13.171,9.869L13.16,9.782L13.147,9.696L13.132,9.61L13.116,9.526L13.097,9.442L13.077,9.358L13.055,9.276L13.032,9.194L13.006,9.114L12.979,9.034L12.95,8.955L12.92,8.878L12.888,8.801L12.854,8.725L12.819,8.65L12.782,8.577L12.744,8.504L12.704,8.433L12.662,8.363L12.619,8.293L12.575,8.226L12.53,8.159L12.482,8.094L12.434,8.03L12.384,7.967L12.333,7.906L12.281,7.846L12.227,7.787L12.172,7.73L12.116,7.675L12.059,7.62L12.001,7.568L11.941,7.517L11.881,7.467L11.819,7.419L11.756,7.373L11.724,7.351L11.692,7.329L11.66,7.307L11.627,7.286L11.594,7.265L11.561,7.245L11.528,7.225L11.495,7.205L11.461,7.186L11.427,7.167L11.393,7.149L11.358,7.132L11.323,7.114L11.289,7.098L11.253,7.081L11.218,7.065L11.183,7.05L11.147,7.035L11.111,7.021L11.075,7.007L11.038,6.993L11.002,6.98L10.965,6.968L10.928,6.956L10.891,6.944L10.854,6.933L10.816,6.922L10.779,6.912L10.741,6.903L10.703,6.894L10.665,6.886L10.626,6.878L10.588,6.87L10.549,6.863L10.51,6.857L10.471,6.851L10.432,6.846L10.393,6.841L10.353,6.837L10.314,6.833L10.274,6.83L10.234,6.828L10.194,6.826L10.154,6.824L10.114,6.823L10.074,6.823L10.034,6.823Z"/>
                    </g>
                </g>
                <g>
                    <g transform="matrix(1.16078,0,0,1.85608,2.41206,-9.29505)">
                        <path d="M10.122,6.606L10.17,6.607L10.218,6.609L10.266,6.611L10.313,6.614L10.361,6.618L10.408,6.622L10.455,6.627L10.502,6.633L10.548,6.639L10.595,6.646L10.641,6.653L10.687,6.662L10.732,6.67L10.777,6.68L10.822,6.69L10.867,6.7L10.911,6.711L10.955,6.723L10.999,6.735L11.043,6.748L11.086,6.762L11.128,6.776L11.171,6.79L11.213,6.805L11.255,6.82L11.296,6.836L11.337,6.853L11.378,6.87L11.419,6.888L11.459,6.906L11.498,6.924L11.538,6.943L11.577,6.962L11.616,6.982L11.654,7.003L11.692,7.023L11.73,7.045L11.767,7.066L11.804,7.089L11.84,7.111L11.877,7.134L11.913,7.158L11.948,7.181L11.983,7.206L12.018,7.23L12.053,7.255L12.087,7.281L12.121,7.307L12.154,7.333L12.187,7.36L12.22,7.387L12.252,7.414L12.284,7.442L12.316,7.47L12.347,7.498L12.378,7.527L12.409,7.557L12.439,7.586L12.469,7.616L12.498,7.647L12.527,7.677L12.556,7.708L12.585,7.74L12.613,7.771L12.64,7.803L12.667,7.836L12.694,7.868L12.721,7.902L12.747,7.935L12.773,7.969L12.798,8.003L12.823,8.037L12.848,8.072L12.896,8.142L12.943,8.213L12.988,8.286L13.031,8.359L13.073,8.434L13.113,8.51L13.152,8.587L13.188,8.665L13.224,8.744L13.257,8.824L13.289,8.905L13.319,8.987L13.347,9.07L13.373,9.154L13.398,9.239L13.421,9.324L13.442,9.411L13.461,9.498L13.478,9.586L13.493,9.674L13.506,9.764L13.518,9.854L13.527,9.944L13.534,10.036L13.539,10.128L13.543,10.22L13.544,10.313L13.543,10.407L13.539,10.499L13.534,10.591L13.527,10.682L13.518,10.773L13.506,10.863L13.493,10.953L13.478,11.041L13.461,11.129L13.442,11.216L13.421,11.303L13.398,11.388L13.373,11.473L13.347,11.557L13.319,11.64L13.289,11.722L13.257,11.803L13.224,11.883L13.188,11.962L13.152,12.04L13.113,12.117L13.073,12.193L13.031,12.268L12.988,12.341L12.943,12.414L12.896,12.485L12.848,12.555L12.823,12.59L12.798,12.624L12.773,12.658L12.747,12.692L12.721,12.725L12.694,12.758L12.667,12.791L12.64,12.824L12.613,12.856L12.585,12.887L12.556,12.919L12.527,12.95L12.498,12.98L12.469,13.011L12.439,13.041L12.409,13.07L12.378,13.1L12.347,13.129L12.316,13.157L12.284,13.185L12.252,13.213L12.22,13.24L12.187,13.267L12.154,13.294L12.121,13.32L12.087,13.346L12.053,13.372L12.018,13.397L11.983,13.421L11.948,13.446L11.913,13.469L11.877,13.493L11.84,13.516L11.804,13.538L11.767,13.561L11.73,13.582L11.692,13.603L11.654,13.624L11.616,13.645L11.577,13.665L11.538,13.684L11.498,13.703L11.459,13.721L11.419,13.739L11.378,13.757L11.337,13.774L11.296,13.79L11.255,13.807L11.213,13.822L11.171,13.837L11.128,13.851L11.086,13.865L11.043,13.879L10.999,13.892L10.955,13.904L10.911,13.916L10.867,13.927L10.822,13.937L10.777,13.947L10.732,13.957L10.687,13.965L10.641,13.974L10.595,13.981L10.548,13.988L10.502,13.994L10.455,14L10.408,14.005L10.361,14.009L10.313,14.013L10.266,14.016L10.218,14.018L10.17,14.02L10.122,14.021L10.074,14.021L10.026,14.021L9.978,14.02L9.93,14.018L9.882,14.016L9.834,14.013L9.787,14.009L9.74,14.005L9.693,14L9.646,13.994L9.599,13.988L9.553,13.981L9.507,13.974L9.461,13.965L9.416,13.957L9.37,13.947L9.325,13.937L9.281,13.927L9.236,13.916L9.192,13.904L9.149,13.892L9.105,13.879L9.062,13.865L9.019,13.851L8.977,13.837L8.935,13.822L8.893,13.807L8.851,13.79L8.81,13.774L8.77,13.757L8.729,13.739L8.689,13.721L8.649,13.703L8.61,13.684L8.571,13.665L8.532,13.645L8.494,13.624L8.456,13.603L8.418,13.582L8.381,13.561L8.344,13.538L8.307,13.516L8.271,13.493L8.235,13.469L8.2,13.446L8.164,13.421L8.13,13.397L8.095,13.372L8.061,13.346L8.027,13.32L7.994,13.294L7.961,13.267L7.928,13.24L7.896,13.213L7.864,13.185L7.832,13.157L7.801,13.129L7.77,13.1L7.739,13.07L7.709,13.041L7.679,13.011L7.649,12.98L7.62,12.95L7.592,12.919L7.563,12.887L7.535,12.856L7.508,12.824L7.48,12.791L7.453,12.758L7.427,12.725L7.401,12.692L7.375,12.658L7.349,12.624L7.324,12.59L7.299,12.555L7.252,12.485L7.205,12.414L7.16,12.341L7.117,12.268L7.075,12.193L7.035,12.117L6.996,12.04L6.959,11.962L6.924,11.883L6.891,11.803L6.859,11.722L6.829,11.64L6.801,11.557L6.774,11.473L6.75,11.388L6.727,11.303L6.706,11.216L6.687,11.129L6.67,11.041L6.655,10.953L6.641,10.863L6.63,10.773L6.621,10.682L6.614,10.591L6.608,10.499L6.605,10.407L6.604,10.313L6.605,10.22L6.608,10.128L6.614,10.036L6.621,9.944L6.63,9.854L6.641,9.764L6.655,9.674L6.67,9.586L6.687,9.498L6.706,9.411L6.727,9.324L6.75,9.239L6.774,9.154L6.801,9.07L6.829,8.987L6.859,8.905L6.891,8.824L6.924,8.744L6.959,8.665L6.996,8.587L7.035,8.51L7.075,8.434L7.117,8.359L7.16,8.286L7.205,8.213L7.252,8.142L7.299,8.072L7.324,8.037L7.349,8.003L7.375,7.969L7.401,7.935L7.427,7.902L7.453,7.868L7.48,7.836L7.508,7.803L7.535,7.771L7.563,7.74L7.592,7.708L7.62,7.677L7.649,7.647L7.679,7.616L7.709,7.586L7.739,7.557L7.77,7.527L7.801,7.498L7.832,7.47L7.864,7.442L7.896,7.414L7.928,7.387L7.961,7.36L7.994,7.333L8.027,7.307L8.061,7.281L8.095,7.255L8.13,7.23L8.164,7.206L8.2,7.181L8.235,7.158L8.271,7.134L8.307,7.111L8.344,7.089L8.381,7.066L8.418,7.045L8.456,7.023L8.494,7.003L8.532,6.982L8.571,6.962L8.61,6.943L8.649,6.924L8.689,6.906L8.729,6.888L8.77,6.87L8.81,6.853L8.851,6.836L8.893,6.82L8.935,6.805L8.977,6.79L9.019,6.776L9.062,6.762L9.105,6.748L9.149,6.735L9.192,6.723L9.236,6.711L9.281,6.7L9.325,6.69L9.37,6.68L9.416,6.67L9.461,6.662L9.507,6.653L9.553,6.646L9.599,6.639L9.646,6.633L9.693,6.627L9.74,6.622L9.787,6.618L9.834,6.614L9.882,6.611L9.93,6.609L9.978,6.607L10.026,6.606L10.074,6.605L10.122,6.606ZM10.034,6.823L9.993,6.824L9.953,6.826L9.913,6.828L9.873,6.83L9.834,6.833L9.794,6.837L9.755,6.841L9.716,6.846L9.676,6.851L9.638,6.857L9.599,6.863L9.56,6.87L9.522,6.878L9.483,6.886L9.445,6.894L9.407,6.903L9.369,6.912L9.332,6.922L9.294,6.933L9.257,6.944L9.22,6.956L9.183,6.968L9.146,6.98L9.109,6.993L9.073,7.007L9.037,7.021L9.001,7.035L8.965,7.05L8.93,7.065L8.894,7.081L8.859,7.098L8.824,7.114L8.79,7.132L8.755,7.149L8.721,7.167L8.687,7.186L8.653,7.205L8.62,7.225L8.586,7.245L8.553,7.265L8.52,7.286L8.488,7.307L8.456,7.329L8.424,7.351L8.392,7.373L8.36,7.396L8.329,7.419L8.298,7.443L8.267,7.467L8.237,7.492L8.206,7.517L8.177,7.542L8.147,7.568L8.118,7.594L8.089,7.62L8.06,7.647L8.031,7.675L8.003,7.702L7.975,7.73L7.948,7.759L7.92,7.787L7.893,7.816L7.867,7.846L7.84,7.876L7.814,7.906L7.789,7.936L7.763,7.967L7.738,7.998L7.714,8.03L7.689,8.062L7.665,8.094L7.642,8.126L7.618,8.159L7.573,8.226L7.528,8.293L7.485,8.363L7.444,8.433L7.404,8.504L7.366,8.577L7.329,8.65L7.294,8.725L7.26,8.801L7.228,8.878L7.197,8.955L7.169,9.034L7.142,9.114L7.116,9.194L7.092,9.276L7.07,9.358L7.05,9.442L7.032,9.526L7.015,9.61L7.001,9.696L6.988,9.782L6.977,9.869L6.968,9.957L6.961,10.045L6.956,10.134L6.953,10.223L6.952,10.313L6.953,10.404L6.956,10.493L6.961,10.582L6.968,10.67L6.977,10.758L6.988,10.845L7.001,10.931L7.015,11.017L7.032,11.101L7.05,11.185L7.07,11.269L7.092,11.351L7.116,11.432L7.142,11.513L7.169,11.593L7.197,11.672L7.228,11.749L7.26,11.826L7.294,11.902L7.329,11.977L7.366,12.05L7.404,12.123L7.444,12.194L7.485,12.264L7.528,12.333L7.573,12.401L7.618,12.468L7.642,12.501L7.665,12.533L7.689,12.565L7.714,12.597L7.738,12.629L7.763,12.66L7.789,12.691L7.814,12.721L7.84,12.751L7.867,12.781L7.893,12.811L7.92,12.84L7.948,12.868L7.975,12.897L8.003,12.925L8.031,12.952L8.06,12.98L8.089,13.006L8.118,13.033L8.147,13.059L8.177,13.085L8.206,13.11L8.237,13.135L8.267,13.16L8.298,13.184L8.329,13.207L8.36,13.231L8.392,13.254L8.424,13.276L8.456,13.298L8.488,13.32L8.52,13.341L8.553,13.362L8.586,13.382L8.62,13.402L8.653,13.422L8.687,13.441L8.721,13.46L8.755,13.478L8.79,13.495L8.824,13.513L8.859,13.529L8.894,13.546L8.93,13.562L8.965,13.577L9.001,13.592L9.037,13.606L9.073,13.62L9.109,13.634L9.146,13.647L9.183,13.659L9.22,13.671L9.257,13.683L9.294,13.694L9.332,13.704L9.369,13.714L9.407,13.724L9.445,13.733L9.483,13.741L9.522,13.749L9.56,13.757L9.599,13.764L9.638,13.77L9.676,13.776L9.716,13.781L9.755,13.786L9.794,13.79L9.834,13.794L9.873,13.797L9.913,13.799L9.953,13.801L9.993,13.803L10.034,13.804L10.074,13.804L10.114,13.804L10.154,13.803L10.194,13.801L10.234,13.799L10.274,13.797L10.314,13.794L10.353,13.79L10.393,13.786L10.432,13.781L10.471,13.776L10.51,13.77L10.549,13.764L10.588,13.757L10.626,13.749L10.665,13.741L10.703,13.733L10.741,13.724L10.779,13.714L10.816,13.704L10.854,13.694L10.891,13.683L10.928,13.671L10.965,13.659L11.002,13.647L11.038,13.634L11.075,13.62L11.111,13.606L11.147,13.592L11.183,13.577L11.218,13.562L11.253,13.546L11.289,13.529L11.323,13.513L11.358,13.495L11.393,13.478L11.427,13.46L11.461,13.441L11.495,13.422L11.528,13.402L11.561,13.382L11.594,13.362L11.627,13.341L11.66,13.32L11.692,13.298L11.724,13.276L11.756,13.254L11.788,13.231L11.819,13.207L11.85,13.184L11.881,13.16L11.911,13.135L11.941,13.11L11.971,13.085L12.001,13.059L12.03,13.033L12.059,13.006L12.088,12.98L12.116,12.952L12.145,12.925L12.172,12.897L12.2,12.868L12.227,12.84L12.254,12.811L12.281,12.781L12.307,12.751L12.333,12.721L12.359,12.691L12.384,12.66L12.409,12.629L12.434,12.597L12.458,12.565L12.482,12.533L12.506,12.501L12.53,12.468L12.575,12.401L12.619,12.333L12.662,12.264L12.704,12.194L12.744,12.123L12.782,12.05L12.819,11.977L12.854,11.902L12.888,11.826L12.92,11.749L12.95,11.672L12.979,11.593L13.006,11.513L13.032,11.432L13.055,11.351L13.077,11.269L13.097,11.185L13.116,11.101L13.132,11.017L13.147,10.931L13.16,10.845L13.171,10.758L13.18,10.67L13.187,10.582L13.192,10.493L13.195,10.404L13.196,10.313L13.195,10.223L13.192,10.134L13.187,10.045L13.18,9.957L13.171,9.869L13.16,9.782L13.147,9.696L13.132,9.61L13.116,9.526L13.097,9.442L13.077,9.358L13.055,9.276L13.032,9.194L13.006,9.114L12.979,9.034L12.95,8.955L12.92,8.878L12.888,8.801L12.854,8.725L12.819,8.65L12.782,8.577L12.744,8.504L12.704,8.433L12.662,8.363L12.619,8.293L12.575,8.226L12.53,8.159L12.506,8.126L12.482,8.094L12.458,8.062L12.434,8.03L12.409,7.998L12.384,7.967L12.359,7.936L12.333,7.906L12.307,7.876L12.281,7.846L12.254,7.816L12.227,7.787L12.2,7.759L12.172,7.73L12.145,7.702L12.116,7.675L12.088,7.647L12.059,7.62L12.03,7.594L12.001,7.568L11.971,7.542L11.941,7.517L11.911,7.492L11.881,7.467L11.85,7.443L11.819,7.419L11.788,7.396L11.756,7.373L11.724,7.351L11.692,7.329L11.66,7.307L11.627,7.286L11.594,7.265L11.561,7.245L11.528,7.225L11.495,7.205L11.461,7.186L11.427,7.167L11.393,7.149L11.358,7.132L11.323,7.114L11.289,7.098L11.253,7.081L11.218,7.065L11.183,7.05L11.147,7.035L11.111,7.021L11.075,7.007L11.038,6.993L11.002,6.98L10.965,6.968L10.928,6.956L10.891,6.944L10.854,6.933L10.816,6.922L10.779,6.912L10.741,6.903L10.703,6.894L10.665,6.886L10.626,6.878L10.588,6.87L10.549,6.863L10.51,6.857L10.471,6.851L10.432,6.846L10.393,6.841L10.353,6.837L10.314,6.833L10.274,6.83L10.234,6.828L10.194,6.826L10.154,6.824L10.114,6.823L10.074,6.823L10.034,6.823Z"/>
                    </g>
                    <g transform="matrix(1.16078,0,0,1.85608,-5.30918,-9.29505)">
                        <path d="M10.122,6.606L10.17,6.607L10.218,6.609L10.266,6.611L10.313,6.614L10.361,6.618L10.408,6.622L10.455,6.627L10.502,6.633L10.548,6.639L10.595,6.646L10.641,6.653L10.687,6.662L10.732,6.67L10.777,6.68L10.822,6.69L10.867,6.7L10.911,6.711L10.955,6.723L10.999,6.735L11.043,6.748L11.086,6.762L11.128,6.776L11.171,6.79L11.213,6.805L11.255,6.82L11.296,6.836L11.337,6.853L11.378,6.87L11.419,6.888L11.459,6.906L11.498,6.924L11.538,6.943L11.577,6.962L11.616,6.982L11.654,7.003L11.692,7.023L11.73,7.045L11.767,7.066L11.804,7.089L11.84,7.111L11.877,7.134L11.913,7.158L11.948,7.181L11.983,7.206L12.018,7.23L12.053,7.255L12.087,7.281L12.121,7.307L12.154,7.333L12.187,7.36L12.22,7.387L12.252,7.414L12.284,7.442L12.316,7.47L12.347,7.498L12.378,7.527L12.409,7.557L12.439,7.586L12.469,7.616L12.498,7.647L12.527,7.677L12.556,7.708L12.585,7.74L12.613,7.771L12.64,7.803L12.667,7.836L12.694,7.868L12.721,7.902L12.747,7.935L12.773,7.969L12.798,8.003L12.823,8.037L12.848,8.072L12.896,8.142L12.943,8.213L12.988,8.286L13.031,8.359L13.073,8.434L13.113,8.51L13.152,8.587L13.188,8.665L13.224,8.744L13.257,8.824L13.289,8.905L13.319,8.987L13.347,9.07L13.373,9.154L13.398,9.239L13.421,9.324L13.442,9.411L13.461,9.498L13.478,9.586L13.493,9.674L13.506,9.764L13.518,9.854L13.527,9.944L13.534,10.036L13.539,10.128L13.543,10.22L13.544,10.313L13.543,10.407L13.539,10.499L13.534,10.591L13.527,10.682L13.518,10.773L13.506,10.863L13.493,10.953L13.478,11.041L13.461,11.129L13.442,11.216L13.421,11.303L13.398,11.388L13.373,11.473L13.347,11.557L13.319,11.64L13.289,11.722L13.257,11.803L13.224,11.883L13.188,11.962L13.152,12.04L13.113,12.117L13.073,12.193L13.031,12.268L12.988,12.341L12.943,12.414L12.896,12.485L12.848,12.555L12.823,12.59L12.798,12.624L12.773,12.658L12.747,12.692L12.721,12.725L12.694,12.758L12.667,12.791L12.64,12.824L12.613,12.856L12.585,12.887L12.556,12.919L12.527,12.95L12.498,12.98L12.469,13.011L12.439,13.041L12.409,13.07L12.378,13.1L12.347,13.129L12.316,13.157L12.284,13.185L12.252,13.213L12.22,13.24L12.187,13.267L12.154,13.294L12.121,13.32L12.087,13.346L12.053,13.372L12.018,13.397L11.983,13.421L11.948,13.446L11.913,13.469L11.877,13.493L11.84,13.516L11.804,13.538L11.767,13.561L11.73,13.582L11.692,13.603L11.654,13.624L11.616,13.645L11.577,13.665L11.538,13.684L11.498,13.703L11.459,13.721L11.419,13.739L11.378,13.757L11.337,13.774L11.296,13.79L11.255,13.807L11.213,13.822L11.171,13.837L11.128,13.851L11.086,13.865L11.043,13.879L10.999,13.892L10.955,13.904L10.911,13.916L10.867,13.927L10.822,13.937L10.777,13.947L10.732,13.957L10.687,13.965L10.641,13.974L10.595,13.981L10.548,13.988L10.502,13.994L10.455,14L10.408,14.005L10.361,14.009L10.313,14.013L10.266,14.016L10.218,14.018L10.17,14.02L10.122,14.021L10.074,14.021L10.026,14.021L9.978,14.02L9.93,14.018L9.882,14.016L9.834,14.013L9.787,14.009L9.74,14.005L9.693,14L9.646,13.994L9.599,13.988L9.553,13.981L9.507,13.974L9.461,13.965L9.416,13.957L9.37,13.947L9.325,13.937L9.281,13.927L9.236,13.916L9.192,13.904L9.149,13.892L9.105,13.879L9.062,13.865L9.019,13.851L8.977,13.837L8.935,13.822L8.893,13.807L8.851,13.79L8.81,13.774L8.77,13.757L8.729,13.739L8.689,13.721L8.649,13.703L8.61,13.684L8.571,13.665L8.532,13.645L8.494,13.624L8.456,13.603L8.418,13.582L8.381,13.561L8.344,13.538L8.307,13.516L8.271,13.493L8.235,13.469L8.2,13.446L8.164,13.421L8.13,13.397L8.095,13.372L8.061,13.346L8.027,13.32L7.994,13.294L7.961,13.267L7.928,13.24L7.896,13.213L7.864,13.185L7.832,13.157L7.801,13.129L7.77,13.1L7.739,13.07L7.709,13.041L7.679,13.011L7.649,12.98L7.62,12.95L7.592,12.919L7.563,12.887L7.535,12.856L7.508,12.824L7.48,12.791L7.453,12.758L7.427,12.725L7.401,12.692L7.375,12.658L7.349,12.624L7.324,12.59L7.299,12.555L7.252,12.485L7.205,12.414L7.16,12.341L7.117,12.268L7.075,12.193L7.035,12.117L6.996,12.04L6.959,11.962L6.924,11.883L6.891,11.803L6.859,11.722L6.829,11.64L6.801,11.557L6.774,11.473L6.75,11.388L6.727,11.303L6.706,11.216L6.687,11.129L6.67,11.041L6.655,10.953L6.641,10.863L6.63,10.773L6.621,10.682L6.614,10.591L6.608,10.499L6.605,10.407L6.604,10.313L6.605,10.22L6.608,10.128L6.614,10.036L6.621,9.944L6.63,9.854L6.641,9.764L6.655,9.674L6.67,9.586L6.687,9.498L6.706,9.411L6.727,9.324L6.75,9.239L6.774,9.154L6.801,9.07L6.829,8.987L6.859,8.905L6.891,8.824L6.924,8.744L6.959,8.665L6.996,8.587L7.035,8.51L7.075,8.434L7.117,8.359L7.16,8.286L7.205,8.213L7.252,8.142L7.299,8.072L7.324,8.037L7.349,8.003L7.375,7.969L7.401,7.935L7.427,7.902L7.453,7.868L7.48,7.836L7.508,7.803L7.535,7.771L7.563,7.74L7.592,7.708L7.62,7.677L7.649,7.647L7.679,7.616L7.709,7.586L7.739,7.557L7.77,7.527L7.801,7.498L7.832,7.47L7.864,7.442L7.896,7.414L7.928,7.387L7.961,7.36L7.994,7.333L8.027,7.307L8.061,7.281L8.095,7.255L8.13,7.23L8.164,7.206L8.2,7.181L8.235,7.158L8.271,7.134L8.307,7.111L8.344,7.089L8.381,7.066L8.418,7.045L8.456,7.023L8.494,7.003L8.532,6.982L8.571,6.962L8.61,6.943L8.649,6.924L8.689,6.906L8.729,6.888L8.77,6.87L8.81,6.853L8.851,6.836L8.893,6.82L8.935,6.805L8.977,6.79L9.019,6.776L9.062,6.762L9.105,6.748L9.149,6.735L9.192,6.723L9.236,6.711L9.281,6.7L9.325,6.69L9.37,6.68L9.416,6.67L9.461,6.662L9.507,6.653L9.553,6.646L9.599,6.639L9.646,6.633L9.693,6.627L9.74,6.622L9.787,6.618L9.834,6.614L9.882,6.611L9.93,6.609L9.978,6.607L10.026,6.606L10.074,6.605L10.122,6.606ZM10.034,6.823L9.993,6.824L9.953,6.826L9.913,6.828L9.873,6.83L9.834,6.833L9.794,6.837L9.755,6.841L9.716,6.846L9.676,6.851L9.638,6.857L9.599,6.863L9.56,6.87L9.522,6.878L9.483,6.886L9.445,6.894L9.407,6.903L9.369,6.912L9.332,6.922L9.294,6.933L9.257,6.944L9.22,6.956L9.183,6.968L9.146,6.98L9.109,6.993L9.073,7.007L9.037,7.021L9.001,7.035L8.965,7.05L8.93,7.065L8.894,7.081L8.859,7.098L8.824,7.114L8.79,7.132L8.755,7.149L8.721,7.167L8.687,7.186L8.653,7.205L8.62,7.225L8.586,7.245L8.553,7.265L8.52,7.286L8.488,7.307L8.456,7.329L8.424,7.351L8.392,7.373L8.36,7.396L8.329,7.419L8.298,7.443L8.267,7.467L8.237,7.492L8.206,7.517L8.177,7.542L8.147,7.568L8.118,7.594L8.089,7.62L8.06,7.647L8.031,7.675L8.003,7.702L7.975,7.73L7.948,7.759L7.92,7.787L7.893,7.816L7.867,7.846L7.84,7.876L7.814,7.906L7.789,7.936L7.763,7.967L7.738,7.998L7.714,8.03L7.689,8.062L7.665,8.094L7.642,8.126L7.618,8.159L7.573,8.226L7.528,8.293L7.485,8.363L7.444,8.433L7.404,8.504L7.366,8.577L7.329,8.65L7.294,8.725L7.26,8.801L7.228,8.878L7.197,8.955L7.169,9.034L7.142,9.114L7.116,9.194L7.092,9.276L7.07,9.358L7.05,9.442L7.032,9.526L7.015,9.61L7.001,9.696L6.988,9.782L6.977,9.869L6.968,9.957L6.961,10.045L6.956,10.134L6.953,10.223L6.952,10.313L6.953,10.404L6.956,10.493L6.961,10.582L6.968,10.67L6.977,10.758L6.988,10.845L7.001,10.931L7.015,11.017L7.032,11.101L7.05,11.185L7.07,11.269L7.092,11.351L7.116,11.432L7.142,11.513L7.169,11.593L7.197,11.672L7.228,11.749L7.26,11.826L7.294,11.902L7.329,11.977L7.366,12.05L7.404,12.123L7.444,12.194L7.485,12.264L7.528,12.333L7.573,12.401L7.618,12.468L7.642,12.501L7.665,12.533L7.689,12.565L7.714,12.597L7.738,12.629L7.763,12.66L7.789,12.691L7.814,12.721L7.84,12.751L7.867,12.781L7.893,12.811L7.92,12.84L7.948,12.868L7.975,12.897L8.003,12.925L8.031,12.952L8.06,12.98L8.089,13.006L8.118,13.033L8.147,13.059L8.177,13.085L8.206,13.11L8.237,13.135L8.267,13.16L8.298,13.184L8.329,13.207L8.36,13.231L8.392,13.254L8.424,13.276L8.456,13.298L8.488,13.32L8.52,13.341L8.553,13.362L8.586,13.382L8.62,13.402L8.653,13.422L8.687,13.441L8.721,13.46L8.755,13.478L8.79,13.495L8.824,13.513L8.859,13.529L8.894,13.546L8.93,13.562L8.965,13.577L9.001,13.592L9.037,13.606L9.073,13.62L9.109,13.634L9.146,13.647L9.183,13.659L9.22,13.671L9.257,13.683L9.294,13.694L9.332,13.704L9.369,13.714L9.407,13.724L9.445,13.733L9.483,13.741L9.522,13.749L9.56,13.757L9.599,13.764L9.638,13.77L9.676,13.776L9.716,13.781L9.755,13.786L9.794,13.79L9.834,13.794L9.873,13.797L9.913,13.799L9.953,13.801L9.993,13.803L10.034,13.804L10.074,13.804L10.114,13.804L10.154,13.803L10.194,13.801L10.234,13.799L10.274,13.797L10.314,13.794L10.353,13.79L10.393,13.786L10.432,13.781L10.471,13.776L10.51,13.77L10.549,13.764L10.588,13.757L10.626,13.749L10.665,13.741L10.703,13.733L10.741,13.724L10.779,13.714L10.816,13.704L10.854,13.694L10.891,13.683L10.928,13.671L10.965,13.659L11.002,13.647L11.038,13.634L11.075,13.62L11.111,13.606L11.147,13.592L11.183,13.577L11.218,13.562L11.253,13.546L11.289,13.529L11.323,13.513L11.358,13.495L11.393,13.478L11.427,13.46L11.461,13.441L11.495,13.422L11.528,13.402L11.561,13.382L11.594,13.362L11.627,13.341L11.66,13.32L11.692,13.298L11.724,13.276L11.756,13.254L11.788,13.231L11.819,13.207L11.85,13.184L11.881,13.16L11.911,13.135L11.941,13.11L11.971,13.085L12.001,13.059L12.03,13.033L12.059,13.006L12.088,12.98L12.116,12.952L12.145,12.925L12.172,12.897L12.2,12.868L12.227,12.84L12.254,12.811L12.281,12.781L12.307,12.751L12.333,12.721L12.359,12.691L12.384,12.66L12.409,12.629L12.434,12.597L12.458,12.565L12.482,12.533L12.506,12.501L12.53,12.468L12.575,12.401L12.619,12.333L12.662,12.264L12.704,12.194L12.744,12.123L12.782,12.05L12.819,11.977L12.854,11.902L12.888,11.826L12.92,11.749L12.95,11.672L12.979,11.593L13.006,11.513L13.032,11.432L13.055,11.351L13.077,11.269L13.097,11.185L13.116,11.101L13.132,11.017L13.147,10.931L13.16,10.845L13.171,10.758L13.18,10.67L13.187,10.582L13.192,10.493L13.195,10.404L13.196,10.313L13.195,10.223L13.192,10.134L13.187,10.045L13.18,9.957L13.171,9.869L13.16,9.782L13.147,9.696L13.132,9.61L13.116,9.526L13.097,9.442L13.077,9.358L13.055,9.276L13.032,9.194L13.006,9.114L12.979,9.034L12.95,8.955L12.92,8.878L12.888,8.801L12.854,8.725L12.819,8.65L12.782,8.577L12.744,8.504L12.704,8.433L12.662,8.363L12.619,8.293L12.575,8.226L12.53,8.159L12.506,8.126L12.482,8.094L12.458,8.062L12.434,8.03L12.409,7.998L12.384,7.967L12.359,7.936L12.333,7.906L12.307,7.876L12.281,7.846L12.254,7.816L12.227,7.787L12.2,7.759L12.172,7.73L12.145,7.702L12.116,7.675L12.088,7.647L12.059,7.62L12.03,7.594L12.001,7.568L11.971,7.542L11.941,7.517L11.911,7.492L11.881,7.467L11.85,7.443L11.819,7.419L11.788,7.396L11.756,7.373L11.724,7.351L11.692,7.329L11.66,7.307L11.627,7.286L11.594,7.265L11.561,7.245L11.528,7.225L11.495,7.205L11.461,7.186L11.427,7.167L11.393,7.149L11.358,7.132L11.323,7.114L11.289,7.098L11.253,7.081L11.218,7.065L11.183,7.05L11.147,7.035L11.111,7.021L11.075,7.007L11.038,6.993L11.002,6.98L10.965,6.968L10.928,6.956L10.891,6.944L10.854,6.933L10.816,6.922L10.779,6.912L10.741,6.903L10.703,6.894L10.665,6.886L10.626,6.878L10.588,6.87L10.549,6.863L10.51,6.857L10.471,6.851L10.432,6.846L10.393,6.841L10.353,6.837L10.314,6.833L10.274,6.83L10.234,6.828L10.194,6.826L10.154,6.824L10.114,6.823L10.074,6.823L10.034,6.823Z"/>
                    </g>
                </g>
                <g transform="matrix(1,0,0,1,-0.0738615,-0.313479)">
                    <ellipse cx="10.074" cy="10.313" rx="3.122" ry="3.49" style="fill:rgb(2,181,193);"/>
                    <path d="M10.161,6.582L10.248,6.586L10.334,6.592L10.42,6.6L10.505,6.611L10.59,6.624L10.674,6.64L10.757,6.658L10.839,6.678L10.921,6.7L11.001,6.725L11.081,6.751L11.16,6.78L11.239,6.811L11.316,6.844L11.392,6.879L11.467,6.915L11.542,6.954L11.615,6.995L11.687,7.038L11.758,7.082L11.828,7.128L11.897,7.176L11.965,7.226L12.031,7.278L12.097,7.331L12.161,7.386L12.224,7.442L12.285,7.501L12.345,7.56L12.404,7.622L12.462,7.684L12.518,7.749L12.572,7.814L12.626,7.881L12.677,7.95L12.728,8.02L12.777,8.091L12.824,8.163L12.87,8.237L12.914,8.312L12.956,8.388L12.997,8.466L13.037,8.544L13.074,8.624L13.11,8.705L13.144,8.787L13.177,8.87L13.208,8.954L13.236,9.038L13.263,9.124L13.289,9.211L13.312,9.299L13.333,9.387L13.353,9.477L13.371,9.567L13.386,9.658L13.4,9.749L13.411,9.842L13.421,9.935L13.428,10.029L13.434,10.123L13.437,10.218L13.438,10.313L13.437,10.409L13.434,10.504L13.428,10.598L13.421,10.692L13.411,10.785L13.4,10.878L13.386,10.969L13.371,11.06L13.353,11.15L13.333,11.24L13.312,11.328L13.289,11.416L13.263,11.503L13.236,11.589L13.208,11.673L13.177,11.757L13.144,11.84L13.11,11.922L13.074,12.003L13.037,12.083L12.997,12.161L12.956,12.239L12.914,12.315L12.87,12.39L12.824,12.464L12.777,12.536L12.728,12.607L12.677,12.677L12.626,12.746L12.572,12.813L12.518,12.878L12.462,12.943L12.404,13.005L12.345,13.067L12.285,13.126L12.224,13.185L12.161,13.241L12.097,13.296L12.031,13.349L11.965,13.401L11.897,13.451L11.828,13.499L11.758,13.545L11.687,13.589L11.615,13.632L11.542,13.673L11.467,13.712L11.392,13.748L11.316,13.783L11.239,13.816L11.16,13.847L11.081,13.876L11.001,13.902L10.921,13.927L10.839,13.949L10.757,13.969L10.674,13.987L10.59,14.002L10.505,14.016L10.42,14.027L10.334,14.035L10.248,14.041L10.161,14.045L10.074,14.046L9.986,14.045L9.9,14.041L9.813,14.035L9.727,14.027L9.642,14.016L9.558,14.002L9.474,13.987L9.391,13.969L9.309,13.949L9.227,13.927L9.146,13.902L9.066,13.876L8.987,13.847L8.909,13.816L8.832,13.783L8.756,13.748L8.68,13.712L8.606,13.673L8.533,13.632L8.46,13.589L8.389,13.545L8.319,13.499L8.251,13.451L8.183,13.401L8.116,13.349L8.051,13.296L7.987,13.241L7.924,13.185L7.863,13.126L7.803,13.067L7.744,13.005L7.686,12.943L7.63,12.878L7.575,12.813L7.522,12.746L7.47,12.677L7.42,12.607L7.371,12.536L7.324,12.464L7.278,12.39L7.234,12.315L7.191,12.239L7.15,12.161L7.111,12.083L7.073,12.003L7.038,11.922L7.003,11.84L6.971,11.757L6.94,11.673L6.911,11.589L6.884,11.503L6.859,11.416L6.836,11.328L6.814,11.24L6.795,11.15L6.777,11.06L6.762,10.969L6.748,10.878L6.736,10.785L6.727,10.692L6.719,10.598L6.714,10.504L6.711,10.409L6.71,10.313L6.711,10.218L6.714,10.123L6.719,10.029L6.727,9.935L6.736,9.842L6.748,9.749L6.762,9.658L6.777,9.567L6.795,9.477L6.814,9.387L6.836,9.299L6.859,9.211L6.884,9.124L6.911,9.038L6.94,8.954L6.971,8.87L7.003,8.787L7.038,8.705L7.073,8.624L7.111,8.544L7.15,8.466L7.191,8.388L7.234,8.312L7.278,8.237L7.324,8.163L7.371,8.091L7.42,8.02L7.47,7.95L7.522,7.881L7.575,7.814L7.63,7.749L7.686,7.684L7.744,7.622L7.803,7.56L7.863,7.501L7.924,7.442L7.987,7.386L8.051,7.331L8.116,7.278L8.183,7.226L8.251,7.176L8.319,7.128L8.389,7.082L8.46,7.038L8.533,6.995L8.606,6.954L8.68,6.915L8.756,6.879L8.832,6.844L8.909,6.811L8.987,6.78L9.066,6.751L9.146,6.725L9.227,6.7L9.309,6.678L9.391,6.658L9.474,6.64L9.558,6.624L9.642,6.611L9.727,6.6L9.813,6.592L9.9,6.586L9.986,6.582L10.074,6.581L10.161,6.582ZM9.993,6.824L9.913,6.828L9.834,6.833L9.755,6.841L9.676,6.851L9.599,6.863L9.522,6.878L9.445,6.894L9.369,6.912L9.294,6.933L9.22,6.956L9.146,6.98L9.073,7.007L9.001,7.035L8.93,7.065L8.859,7.098L8.79,7.132L8.721,7.167L8.653,7.205L8.586,7.245L8.52,7.286L8.456,7.329L8.392,7.373L8.329,7.419L8.267,7.467L8.206,7.517L8.147,7.568L8.089,7.62L8.031,7.675L7.975,7.73L7.92,7.787L7.867,7.846L7.814,7.906L7.763,7.967L7.714,8.03L7.665,8.094L7.618,8.159L7.573,8.226L7.528,8.293L7.485,8.363L7.444,8.433L7.404,8.504L7.366,8.577L7.329,8.65L7.294,8.725L7.26,8.801L7.228,8.878L7.197,8.955L7.169,9.034L7.142,9.114L7.116,9.194L7.092,9.276L7.07,9.358L7.05,9.442L7.032,9.526L7.015,9.61L7.001,9.696L6.988,9.782L6.977,9.869L6.968,9.957L6.961,10.045L6.956,10.134L6.953,10.223L6.952,10.313L6.953,10.404L6.956,10.493L6.961,10.582L6.968,10.67L6.977,10.758L6.988,10.845L7.001,10.931L7.015,11.017L7.032,11.101L7.05,11.185L7.07,11.269L7.092,11.351L7.116,11.432L7.142,11.513L7.169,11.593L7.197,11.672L7.228,11.749L7.26,11.826L7.294,11.902L7.329,11.977L7.366,12.05L7.404,12.123L7.444,12.194L7.485,12.264L7.528,12.333L7.573,12.401L7.618,12.468L7.665,12.533L7.714,12.597L7.763,12.66L7.814,12.721L7.867,12.781L7.92,12.84L7.975,12.897L8.031,12.952L8.089,13.006L8.147,13.059L8.206,13.11L8.267,13.16L8.329,13.207L8.392,13.254L8.456,13.298L8.52,13.341L8.586,13.382L8.653,13.422L8.721,13.46L8.79,13.495L8.859,13.529L8.93,13.562L9.001,13.592L9.073,13.62L9.146,13.647L9.22,13.671L9.294,13.694L9.369,13.714L9.445,13.733L9.522,13.749L9.599,13.764L9.676,13.776L9.755,13.786L9.834,13.794L9.913,13.799L9.993,13.803L10.074,13.804L10.154,13.803L10.234,13.799L10.314,13.794L10.393,13.786L10.471,13.776L10.549,13.764L10.626,13.749L10.703,13.733L10.779,13.714L10.854,13.694L10.928,13.671L11.002,13.647L11.075,13.62L11.147,13.592L11.218,13.562L11.289,13.529L11.358,13.495L11.427,13.46L11.495,13.422L11.561,13.382L11.627,13.341L11.692,13.298L11.756,13.254L11.819,13.207L11.881,13.16L11.941,13.11L12.001,13.059L12.059,13.006L12.116,12.952L12.172,12.897L12.227,12.84L12.281,12.781L12.333,12.721L12.384,12.66L12.434,12.597L12.482,12.533L12.53,12.468L12.575,12.401L12.619,12.333L12.662,12.264L12.704,12.194L12.744,12.123L12.782,12.05L12.819,11.977L12.854,11.902L12.888,11.826L12.92,11.749L12.95,11.672L12.979,11.593L13.006,11.513L13.032,11.432L13.055,11.351L13.077,11.269L13.097,11.185L13.116,11.101L13.132,11.017L13.147,10.931L13.16,10.845L13.171,10.758L13.18,10.67L13.187,10.582L13.192,10.493L13.195,10.404L13.196,10.313L13.195,10.223L13.192,10.134L13.187,10.045L13.18,9.957L13.171,9.869L13.16,9.782L13.147,9.696L13.132,9.61L13.116,9.526L13.097,9.442L13.077,9.358L13.055,9.276L13.032,9.194L13.006,9.114L12.979,9.034L12.95,8.955L12.92,8.878L12.888,8.801L12.854,8.725L12.819,8.65L12.782,8.577L12.744,8.504L12.704,8.433L12.662,8.363L12.619,8.293L12.575,8.226L12.53,8.159L12.482,8.094L12.434,8.03L12.384,7.967L12.333,7.906L12.281,7.846L12.227,7.787L12.172,7.73L12.116,7.675L12.059,7.62L12.001,7.568L11.941,7.517L11.881,7.467L11.819,7.419L11.756,7.373L11.692,7.329L11.627,7.286L11.561,7.245L11.495,7.205L11.427,7.167L11.358,7.132L11.289,7.098L11.218,7.065L11.147,7.035L11.075,7.007L11.002,6.98L10.928,6.956L10.854,6.933L10.779,6.912L10.703,6.894L10.626,6.878L10.549,6.863L10.471,6.851L10.393,6.841L10.314,6.833L10.234,6.828L10.154,6.824L10.074,6.823L9.993,6.824Z"/>
                </g>
            </g>
        </g>
    </g>
</svg>
