<?xml version="1.0" encoding="UTF-8" standalone="no"?>
<!DOCTYPE svg PUBLIC "-//W3C//DTD SVG 1.1//EN" "http://www.w3.org/Graphics/SVG/1.1/DTD/svg11.dtd">
<svg width="100%" height="100%" viewBox="0 0 20 20" version="1.1" xmlns="http://www.w3.org/2000/svg" xmlns:xlink="http://www.w3.org/1999/xlink" xml:space="preserve" xmlns:serif="http://www.serif.com/" style="fill-rule:evenodd;clip-rule:evenodd;">
    <g transform="matrix(0.303622,0,0,0.303622,-59.5344,-49.0111)">
        <g id="Arborec">
            <g id="base">
                <path id="path3382" d="M201.429,180.755C209.273,159.186 232.679,162.416 232.679,162.416C262.163,168.856 257.869,193.775 257.797,199.64C254.709,226.391 224.643,226.469 224.643,226.469C222.938,226.091 222.413,222.436 223.929,222.184C229.464,223.701 235.536,220.576 235.536,220.576L230.714,219.505C230.178,219.189 229.808,216.133 231.607,216.291C231.607,216.291 237.813,217.273 239.107,216.826C241.078,211.77 242.104,206.961 242.181,202.726C242.252,198.858 241.487,196.061 239.571,191.417C237.498,186.393 233.223,181.979 231.201,180.414C214.831,167.744 203.045,185.719 201.429,180.755Z" style="fill:rgb(89,132,53);stroke:black;stroke-width:1px;"/>
                <path id="path3384" d="M216.518,179.684C201.429,178.969 199.365,192.628 200.179,198.344C202.275,213.072 216.25,214.326 216.25,214.326C225.685,214.019 229.952,206.896 229.763,205.868C229.763,205.868 228.765,203.371 227.94,203.907C218.192,210.251 212.589,202.451 212.589,202.451C204.02,191.35 208.222,185.176 216.032,181.87C217.73,181.151 216.518,179.684 216.518,179.684Z" style="fill:rgb(89,132,53);stroke:black;stroke-width:1px;"/>
                <ellipse id="path3386" cx="222.679" cy="192.541" rx="8.072" ry="8.251" style="fill:rgb(163,157,185);stroke:black;stroke-width:1.19px;stroke-linejoin:round;"/>
            </g>
        </g>
    </g>
</svg>
