<?xml version="1.0" encoding="UTF-8" standalone="no"?>
<!DOCTYPE svg PUBLIC "-//W3C//DTD SVG 1.1//EN" "http://www.w3.org/Graphics/SVG/1.1/DTD/svg11.dtd">
<svg width="100%" height="100%" viewBox="0 0 20 20" version="1.1" xmlns="http://www.w3.org/2000/svg" xmlns:xlink="http://www.w3.org/1999/xlink" xml:space="preserve" xmlns:serif="http://www.serif.com/" style="fill-rule:evenodd;clip-rule:evenodd;stroke-linejoin:round;stroke-miterlimit:1.41421;">
    <g transform="matrix(1.13629,0,0,1.13629,-0.0126155,-0.7251)">
        <g id="L1Z1X">
            <g>
                <g transform="matrix(1.11425,0,0,1.00463,-0.429192,-0.0270097)">
                    <path d="M5.557,3.55L4.121,3.55L4.121,10.976L0.891,10.969L0.891,12.668L5.557,12.668L5.557,3.55Z" style="fill:rgb(186,50,55);"/>
                    <path d="M5.794,12.931L0.654,12.931L0.654,10.705L3.885,10.713L3.885,3.287L5.794,3.287L5.794,12.931ZM4.121,3.55L4.121,10.976L0.891,10.969L0.891,12.668L5.557,12.668L5.557,3.55L4.121,3.55Z"/>
                </g>
                <g transform="matrix(-1.11425,1.36457e-16,-1.23031e-16,-1.00463,12.9394,16.2665)">
                    <path d="M5.557,3.55L4.121,3.55L4.121,10.976L0.891,10.969L0.891,12.668L5.557,12.668L5.557,3.55Z" style="fill:rgb(186,50,55);"/>
                    <path d="M0.654,10.705L3.885,10.713L3.885,3.287L5.794,3.287L5.794,12.931L0.654,12.931L0.654,10.705ZM5.557,12.668L5.557,3.55L4.121,3.55L4.121,10.976L0.891,10.969L0.891,12.668L5.557,12.668Z"/>
                </g>
                <g transform="matrix(1.11425,0,0,1.00463,4.70431,2.6108)">
                    <path d="M5.557,3.55L4.121,3.55L4.121,10.976L0.891,10.969L0.891,12.668L5.557,12.668L5.557,3.55Z" style="fill:rgb(186,50,55);"/>
                    <path d="M5.794,3.287L5.794,12.931L0.654,12.931L0.654,10.705L3.885,10.713L3.885,3.287L5.794,3.287ZM4.121,3.55L4.121,10.976L0.891,10.969L0.891,12.668L5.557,12.668L5.557,3.55L4.121,3.55Z"/>
                </g>
                <g transform="matrix(-1.11425,1.36457e-16,-1.23031e-16,-1.00463,18.0525,18.9043)">
                    <path d="M5.557,3.55L4.121,3.55L4.121,10.976L0.891,10.969L0.891,12.668L5.557,12.668L5.557,3.55Z" style="fill:rgb(186,50,55);"/>
                    <path d="M0.654,12.931L0.654,10.705L3.885,10.713L3.885,3.287L5.794,3.287L5.794,12.931L0.654,12.931ZM5.557,12.668L5.557,3.55L4.121,3.55L4.121,10.976L0.891,10.969L0.891,12.668L5.557,12.668Z"/>
                </g>
            </g>
        </g>
    </g>
</svg>
