<?xml version="1.0" encoding="UTF-8" standalone="no"?>
<!DOCTYPE svg PUBLIC "-//W3C//DTD SVG 1.1//EN" "http://www.w3.org/Graphics/SVG/1.1/DTD/svg11.dtd">
<svg width="100%" height="100%" viewBox="0 0 20 20" version="1.1" xmlns="http://www.w3.org/2000/svg" xmlns:xlink="http://www.w3.org/1999/xlink" xml:space="preserve" xmlns:serif="http://www.serif.com/" style="fill-rule:evenodd;clip-rule:evenodd;stroke-linecap:round;stroke-linejoin:round;stroke-miterlimit:1.5;">
    <g id="Xxcha" transform="matrix(0.04,0,0,0.04,0,0)">
        <g transform="matrix(25,0,0,25,0,0)">
            <path d="M10.088,5.176C14.049,5.425 14.186,14.826 10,14.826C9.853,14.826 9.707,14.811 9.564,14.78C5.667,13.962 5.859,5.087 10.088,5.176Z" style="fill:rgb(60,246,47);"/>
        </g>
        <g transform="matrix(25,0,0,25,2.86308,-5.1267)">
            <path d="M9.885,1.553C12.777,1.553 15.125,5.43 15.125,10.205C15.125,14.98 12.777,18.857 9.885,18.857C6.994,18.857 4.646,14.98 4.646,10.205C4.646,5.43 6.994,1.553 9.885,1.553ZM9.885,5.879C11.331,5.879 12.505,7.818 12.505,10.205C12.505,12.593 11.331,14.531 9.885,14.531C8.44,14.531 7.266,12.593 7.266,10.205C7.266,7.818 8.44,5.879 9.885,5.879Z" style="fill:rgb(57,126,11);stroke:black;stroke-width:0.3px;"/>
        </g>
        <g transform="matrix(25,0,0,25,0,0)">
            <path d="M19.58,10L15.399,13.273C15.928,11.14 15.922,8.817 15.454,6.762L19.58,10ZM4.638,6.69C4.529,7.156 4.445,7.625 4.385,8.087C4.159,9.793 4.202,11.59 4.549,13.232L0.42,10L4.638,6.69Z" style="fill:rgb(35,83,4);"/>
            <path d="M19.58,10L15.399,13.273L15.424,13.173L15.447,13.073L15.47,12.972L15.492,12.871L15.514,12.77L15.534,12.668L15.554,12.567L15.573,12.465L15.591,12.363L15.608,12.261L15.625,12.159L15.641,12.056L15.656,11.953L15.67,11.851L15.684,11.748L15.697,11.645L15.709,11.542L15.72,11.438L15.731,11.335L15.741,11.232L15.75,11.128L15.758,11.025L15.772,10.817L15.784,10.61L15.792,10.403L15.798,10.195L15.8,9.988L15.8,9.781L15.797,9.575L15.791,9.368L15.782,9.163L15.77,8.958L15.755,8.753L15.738,8.549L15.717,8.346L15.694,8.144L15.668,7.943L15.639,7.743L15.608,7.545L15.573,7.347L15.536,7.151L15.497,6.956L15.454,6.762L19.58,10ZM4.598,6.865L4.561,7.04L4.526,7.215L4.493,7.39L4.463,7.565L4.435,7.739L4.408,7.913L4.385,8.087L4.364,8.247L4.345,8.408L4.328,8.569L4.313,8.73L4.299,8.892L4.286,9.055L4.276,9.217L4.266,9.38L4.259,9.543L4.253,9.706L4.249,9.869L4.246,10.032L4.245,10.195L4.246,10.358L4.248,10.521L4.252,10.684L4.258,10.846L4.265,11.009L4.274,11.171L4.285,11.333L4.298,11.494L4.312,11.655L4.328,11.816L4.345,11.976L4.364,12.135L4.386,12.294L4.408,12.452L4.433,12.61L4.459,12.767L4.487,12.923L4.517,13.078L4.549,13.232L0.42,10L4.638,6.69L4.598,6.865ZM15.936,7.698L15.965,7.903L15.992,8.108L16.016,8.314L16.036,8.521L16.054,8.729L16.069,8.938L16.081,9.148L16.091,9.357L16.097,9.568L16.1,9.779L16.1,9.99L16.098,10.201L16.092,10.413L16.084,10.624L16.072,10.836L16.057,11.047L16.049,11.153L16.039,11.259L16.029,11.364L16.019,11.47L16.007,11.575L15.995,11.681L15.982,11.786L15.968,11.891L15.953,11.996L15.938,12.101L15.921,12.206L15.904,12.31L15.886,12.415L15.868,12.519L15.867,12.526L19.094,10L15.904,7.497L15.936,7.698ZM0.906,10L4.114,12.511L4.112,12.497L4.088,12.335L4.067,12.173L4.047,12.01L4.029,11.847L4.013,11.683L3.999,11.519L3.986,11.354L3.975,11.189L3.966,11.024L3.958,10.858L3.952,10.693L3.948,10.527L3.946,10.361L3.945,10.195L3.946,10.029L3.949,9.862L3.953,9.696L3.959,9.53L3.967,9.364L3.976,9.199L3.987,9.033L4,8.868L4.014,8.703L4.03,8.538L4.047,8.374L4.066,8.211L4.087,8.047L4.111,7.87L4.138,7.693L4.167,7.515L4.182,7.429L0.906,10Z"/>
        </g>
    </g>
</svg>
