<?xml version="1.0" encoding="UTF-8" standalone="no"?>
<!DOCTYPE svg PUBLIC "-//W3C//DTD SVG 1.1//EN" "http://www.w3.org/Graphics/SVG/1.1/DTD/svg11.dtd">
<svg width="100%" height="100%" viewBox="0 0 20 20" version="1.1" xmlns="http://www.w3.org/2000/svg" xmlns:xlink="http://www.w3.org/1999/xlink" xml:space="preserve" xmlns:serif="http://www.serif.com/" style="fill-rule:evenodd;clip-rule:evenodd;stroke-linejoin:round;stroke-miterlimit:1.41421;">
    <g id="Creuss">
        <g>
            <path d="M8.718,10.313C8.556,10.171 8.251,9.958 7.673,10.187C5.367,11.101 2.697,9.83 1.714,7.351C0.732,4.872 1.806,2.117 4.112,1.203C6.418,0.289 9.088,1.56 10.071,4.039C10.146,4.23 10.21,4.423 10.262,4.616C9.563,3.401 8.208,2.799 7.047,3.259C5.753,3.772 5.186,5.412 5.784,6.919C6.374,8.409 7.882,9.215 9.167,8.737C9.315,6.38 11.42,4.508 13.991,4.508C16.658,4.508 18.823,6.522 18.823,9.003C18.823,11.483 16.658,13.497 13.991,13.497C13.785,13.497 13.583,13.485 13.384,13.462C14.772,13.261 15.83,12.223 15.83,10.974C15.83,9.581 14.514,8.45 12.893,8.45C11.459,8.45 10.264,9.335 10.007,10.503C10.26,10.644 10.502,10.812 10.727,11.01C12.595,12.641 12.688,15.597 10.934,17.605C9.179,19.614 6.238,19.92 4.37,18.288C2.502,16.656 2.409,13.701 4.164,11.692C4.299,11.537 4.441,11.393 4.589,11.258C3.828,12.436 3.914,13.916 4.854,14.737C5.903,15.654 7.62,15.406 8.687,14.185C9.753,12.964 9.767,11.229 8.718,10.313Z" style="fill:rgb(55,121,171);"/>
            <path d="M5.774,0.608L5.893,0.613L6.011,0.62L6.129,0.63L6.246,0.644L6.363,0.66L6.48,0.68L6.596,0.702L6.712,0.727L6.826,0.755L6.941,0.786L7.054,0.819L7.167,0.856L7.279,0.895L7.39,0.936L7.5,0.981L7.609,1.028L7.717,1.078L7.824,1.131L7.93,1.186L8.034,1.243L8.138,1.304L8.24,1.366L8.341,1.432L8.441,1.499L8.539,1.57L8.636,1.642L8.731,1.717L8.825,1.795L8.917,1.875L9.007,1.957L9.096,2.041L9.183,2.128L9.269,2.217L9.352,2.308L9.433,2.402L9.513,2.497L9.591,2.595L9.666,2.695L9.74,2.797L9.811,2.901L9.88,3.008L9.947,3.116L10.012,3.226L10.074,3.338L10.134,3.453L10.192,3.569L10.247,3.687L10.3,3.807L10.349,3.928L10.379,4.005L10.407,4.081L10.434,4.157L10.46,4.233L10.485,4.309L10.508,4.386L10.53,4.462L10.551,4.537L10.56,4.582L10.561,4.627L10.556,4.672L10.545,4.716L10.526,4.757L10.502,4.796L10.472,4.83L10.438,4.859L10.399,4.883L10.357,4.901L10.313,4.912L10.268,4.916L10.222,4.914L10.178,4.905L10.135,4.889L10.096,4.867L10.06,4.839L10.029,4.806L10.003,4.768L9.971,4.714L9.94,4.664L9.908,4.614L9.875,4.565L9.842,4.517L9.808,4.47L9.773,4.424L9.737,4.378L9.7,4.334L9.663,4.29L9.625,4.248L9.587,4.206L9.548,4.165L9.508,4.126L9.468,4.087L9.427,4.049L9.385,4.012L9.343,3.977L9.301,3.942L9.258,3.908L9.214,3.875L9.17,3.844L9.126,3.813L9.081,3.783L9.036,3.755L8.99,3.727L8.944,3.701L8.898,3.676L8.851,3.651L8.804,3.628L8.757,3.606L8.71,3.585L8.662,3.565L8.614,3.547L8.566,3.529L8.518,3.513L8.469,3.497L8.421,3.483L8.372,3.47L8.323,3.458L8.274,3.448L8.225,3.438L8.176,3.43L8.127,3.423L8.078,3.417L8.029,3.412L7.98,3.408L7.931,3.406L7.881,3.405L7.832,3.405L7.783,3.406L7.735,3.409L7.686,3.413L7.637,3.418L7.588,3.424L7.54,3.431L7.492,3.44L7.443,3.45L7.395,3.462L7.347,3.474L7.3,3.488L7.252,3.504L7.205,3.52L7.158,3.538L7.106,3.56L7.055,3.583L7.005,3.607L6.956,3.632L6.908,3.659L6.86,3.687L6.814,3.717L6.769,3.748L6.725,3.78L6.681,3.813L6.639,3.847L6.598,3.883L6.557,3.92L6.518,3.958L6.479,3.997L6.442,4.037L6.406,4.078L6.37,4.121L6.336,4.164L6.303,4.209L6.27,4.254L6.239,4.301L6.209,4.348L6.18,4.396L6.152,4.446L6.126,4.496L6.1,4.547L6.076,4.599L6.052,4.652L6.03,4.705L6.009,4.759L5.989,4.815L5.971,4.87L5.954,4.927L5.938,4.984L5.923,5.042L5.909,5.1L5.897,5.159L5.886,5.219L5.876,5.279L5.868,5.339L5.861,5.4L5.855,5.462L5.851,5.524L5.848,5.586L5.846,5.649L5.846,5.712L5.847,5.775L5.849,5.839L5.853,5.903L5.859,5.967L5.865,6.031L5.874,6.096L5.883,6.16L5.894,6.225L5.907,6.29L5.921,6.355L5.937,6.42L5.954,6.485L5.973,6.55L5.993,6.615L6.014,6.679L6.038,6.744L6.062,6.809L6.088,6.872L6.115,6.935L6.144,6.996L6.173,7.056L6.204,7.116L6.235,7.174L6.268,7.232L6.302,7.288L6.336,7.343L6.372,7.398L6.409,7.451L6.446,7.503L6.485,7.554L6.524,7.604L6.565,7.653L6.606,7.701L6.648,7.747L6.69,7.793L6.734,7.837L6.778,7.88L6.823,7.922L6.869,7.963L6.915,8.002L6.962,8.041L7.009,8.078L7.057,8.114L7.106,8.148L7.155,8.181L7.205,8.213L7.255,8.244L7.306,8.274L7.357,8.302L7.408,8.328L7.46,8.354L7.512,8.378L7.564,8.401L7.617,8.422L7.67,8.442L7.723,8.461L7.776,8.478L7.83,8.494L7.884,8.508L7.937,8.521L7.991,8.533L8.045,8.543L8.1,8.552L8.154,8.559L8.208,8.565L8.262,8.57L8.316,8.573L8.37,8.574L8.424,8.574L8.478,8.573L8.532,8.57L8.586,8.565L8.64,8.559L8.693,8.552L8.747,8.543L8.8,8.532L8.853,8.52L8.886,8.512L8.889,8.483L8.904,8.367L8.922,8.251L8.943,8.136L8.966,8.023L8.993,7.91L9.022,7.798L9.055,7.688L9.09,7.578L9.127,7.47L9.168,7.362L9.21,7.256L9.256,7.152L9.304,7.048L9.355,6.946L9.408,6.845L9.463,6.745L9.521,6.647L9.581,6.55L9.643,6.455L9.708,6.361L9.775,6.269L9.844,6.178L9.916,6.089L9.989,6.002L10.065,5.916L10.142,5.832L10.222,5.75L10.303,5.669L10.387,5.591L10.472,5.514L10.559,5.439L10.649,5.365L10.739,5.294L10.832,5.225L10.926,5.157L11.022,5.092L11.12,5.029L11.219,4.968L11.32,4.909L11.423,4.852L11.526,4.797L11.632,4.744L11.739,4.694L11.847,4.646L11.956,4.6L12.067,4.557L12.179,4.516L12.293,4.477L12.407,4.441L12.523,4.408L12.64,4.376L12.758,4.348L12.877,4.322L12.997,4.298L13.118,4.277L13.241,4.259L13.364,4.244L13.487,4.231L13.612,4.221L13.738,4.214L13.864,4.21L13.991,4.208L14.123,4.21L14.253,4.214L14.384,4.222L14.513,4.233L14.641,4.247L14.769,4.263L14.895,4.283L15.02,4.305L15.145,4.33L15.268,4.358L15.39,4.389L15.51,4.422L15.63,4.458L15.748,4.497L15.865,4.539L15.981,4.583L16.095,4.629L16.208,4.678L16.319,4.729L16.429,4.783L16.537,4.84L16.643,4.898L16.748,4.959L16.851,5.022L16.953,5.088L17.052,5.155L17.15,5.225L17.246,5.297L17.34,5.371L17.433,5.447L17.523,5.525L17.611,5.606L17.697,5.688L17.781,5.772L17.863,5.858L17.943,5.945L18.021,6.035L18.096,6.126L18.169,6.219L18.24,6.314L18.308,6.411L18.374,6.509L18.437,6.608L18.498,6.71L18.557,6.813L18.612,6.917L18.665,7.023L18.716,7.13L18.764,7.238L18.808,7.348L18.851,7.459L18.89,7.572L18.926,7.685L18.96,7.8L18.99,7.915L19.004,7.974L19.017,8.033L19.03,8.092L19.042,8.151L19.053,8.21L19.063,8.27L19.072,8.33L19.081,8.39L19.089,8.45L19.096,8.511L19.102,8.572L19.108,8.633L19.112,8.694L19.116,8.755L19.119,8.817L19.121,8.879L19.122,8.94L19.123,9.003L19.122,9.065L19.121,9.127L19.119,9.189L19.116,9.25L19.112,9.312L19.108,9.373L19.102,9.434L19.096,9.494L19.089,9.555L19.081,9.615L19.072,9.676L19.063,9.735L19.053,9.795L19.042,9.854L19.03,9.914L19.017,9.972L19.004,10.031L18.99,10.09L18.96,10.205L18.926,10.32L18.89,10.434L18.851,10.546L18.808,10.657L18.764,10.767L18.716,10.876L18.665,10.983L18.612,11.088L18.557,11.193L18.498,11.296L18.437,11.397L18.374,11.496L18.308,11.595L18.24,11.691L18.169,11.786L18.096,11.879L18.021,11.97L17.943,12.06L17.863,12.148L17.781,12.234L17.697,12.318L17.611,12.4L17.523,12.48L17.433,12.558L17.34,12.634L17.246,12.708L17.15,12.78L17.052,12.85L16.953,12.918L16.851,12.983L16.748,13.046L16.643,13.107L16.537,13.166L16.429,13.222L16.319,13.276L16.208,13.327L16.095,13.376L15.981,13.423L15.865,13.467L15.748,13.508L15.63,13.547L15.51,13.583L15.39,13.616L15.268,13.647L15.145,13.675L15.02,13.7L14.895,13.723L14.769,13.742L14.641,13.759L14.513,13.772L14.384,13.783L14.253,13.791L14.123,13.795L13.992,13.797L13.91,13.796L13.829,13.795L13.748,13.792L13.667,13.788L13.587,13.782L13.508,13.776L13.428,13.768L13.351,13.76L13.307,13.752L13.264,13.737L13.224,13.715L13.187,13.688L13.155,13.656L13.129,13.619L13.108,13.579L13.093,13.536L13.086,13.491L13.085,13.446L13.09,13.401L13.103,13.357L13.122,13.316L13.147,13.278L13.177,13.244L13.213,13.216L13.252,13.193L13.294,13.176L13.338,13.165L13.4,13.156L13.459,13.145L13.517,13.134L13.574,13.122L13.631,13.108L13.688,13.094L13.744,13.078L13.799,13.062L13.854,13.044L13.908,13.026L13.961,13.006L14.014,12.986L14.066,12.964L14.118,12.942L14.169,12.919L14.219,12.895L14.268,12.87L14.317,12.844L14.365,12.817L14.412,12.79L14.459,12.761L14.505,12.732L14.549,12.702L14.594,12.671L14.637,12.64L14.679,12.608L14.721,12.575L14.761,12.541L14.801,12.506L14.84,12.471L14.878,12.436L14.915,12.399L14.951,12.362L14.986,12.325L15.02,12.286L15.053,12.247L15.085,12.208L15.116,12.168L15.146,12.128L15.175,12.086L15.203,12.045L15.23,12.003L15.256,11.96L15.28,11.917L15.304,11.874L15.327,11.83L15.348,11.785L15.368,11.741L15.387,11.695L15.405,11.65L15.422,11.604L15.438,11.557L15.452,11.511L15.466,11.464L15.478,11.416L15.488,11.368L15.498,11.32L15.507,11.272L15.514,11.223L15.52,11.174L15.524,11.124L15.527,11.074L15.529,11.024L15.53,10.974L15.529,10.917L15.527,10.862L15.523,10.806L15.517,10.751L15.51,10.696L15.501,10.642L15.49,10.588L15.479,10.535L15.465,10.482L15.45,10.429L15.434,10.377L15.416,10.326L15.397,10.275L15.376,10.224L15.354,10.174L15.33,10.124L15.305,10.075L15.279,10.027L15.251,9.979L15.222,9.932L15.191,9.885L15.16,9.839L15.127,9.793L15.092,9.749L15.057,9.705L15.02,9.661L14.982,9.619L14.943,9.577L14.902,9.536L14.861,9.495L14.818,9.456L14.774,9.417L14.729,9.379L14.683,9.343L14.636,9.307L14.587,9.272L14.538,9.237L14.488,9.204L14.436,9.172L14.384,9.141L14.331,9.111L14.277,9.082L14.222,9.054L14.166,9.027L14.109,9.001L14.051,8.976L13.993,8.953L13.933,8.931L13.873,8.91L13.812,8.89L13.751,8.871L13.689,8.854L13.626,8.838L13.562,8.823L13.498,8.809L13.433,8.797L13.367,8.786L13.301,8.777L13.234,8.769L13.167,8.762L13.099,8.757L13.031,8.753L12.962,8.751L12.893,8.75L12.832,8.751L12.771,8.753L12.71,8.756L12.65,8.76L12.591,8.765L12.531,8.771L12.472,8.779L12.414,8.787L12.356,8.797L12.299,8.807L12.242,8.819L12.185,8.832L12.129,8.845L12.074,8.86L12.019,8.876L11.965,8.893L11.911,8.91L11.858,8.929L11.805,8.949L11.753,8.969L11.702,8.99L11.651,9.013L11.601,9.036L11.552,9.06L11.503,9.085L11.456,9.111L11.408,9.137L11.362,9.165L11.316,9.193L11.272,9.222L11.227,9.252L11.184,9.282L11.142,9.313L11.1,9.345L11.059,9.378L11.019,9.411L10.98,9.445L10.942,9.48L10.905,9.515L10.869,9.551L10.833,9.588L10.799,9.625L10.765,9.663L10.732,9.701L10.701,9.74L10.67,9.779L10.641,9.819L10.612,9.86L10.584,9.901L10.558,9.942L10.532,9.984L10.508,10.026L10.484,10.069L10.462,10.113L10.441,10.156L10.421,10.2L10.402,10.245L10.384,10.29L10.367,10.335L10.358,10.362L10.453,10.423L10.55,10.49L10.646,10.559L10.74,10.631L10.833,10.706L10.924,10.783L10.971,10.825L11.017,10.867L11.062,10.909L11.107,10.951L11.15,10.995L11.193,11.038L11.236,11.083L11.277,11.127L11.318,11.172L11.359,11.218L11.398,11.264L11.437,11.311L11.475,11.358L11.513,11.405L11.55,11.453L11.586,11.501L11.621,11.549L11.656,11.599L11.723,11.698L11.788,11.798L11.849,11.9L11.908,12.004L11.964,12.109L12.017,12.215L12.068,12.322L12.115,12.431L12.16,12.54L12.202,12.651L12.241,12.762L12.277,12.875L12.31,12.988L12.341,13.102L12.369,13.217L12.393,13.333L12.416,13.449L12.435,13.566L12.451,13.683L12.465,13.801L12.476,13.919L12.484,14.038L12.489,14.157L12.491,14.276L12.491,14.395L12.487,14.515L12.481,14.634L12.472,14.754L12.46,14.874L12.446,14.993L12.428,15.113L12.408,15.232L12.385,15.351L12.359,15.47L12.33,15.588L12.298,15.706L12.264,15.824L12.227,15.941L12.187,16.058L12.144,16.174L12.098,16.289L12.049,16.403L11.998,16.517L11.944,16.63L11.887,16.742L11.827,16.854L11.764,16.964L11.698,17.073L11.63,17.181L11.559,17.288L11.484,17.393L11.407,17.498L11.328,17.601L11.245,17.702L11.16,17.803L11.072,17.901L10.982,17.996L10.891,18.089L10.798,18.18L10.703,18.267L10.607,18.352L10.509,18.435L10.41,18.514L10.309,18.591L10.207,18.666L10.103,18.737L9.999,18.806L9.893,18.873L9.786,18.936L9.678,18.997L9.569,19.055L9.458,19.111L9.347,19.163L9.236,19.213L9.123,19.26L9.009,19.305L8.895,19.346L8.78,19.385L8.665,19.421L8.549,19.455L8.432,19.485L8.315,19.513L8.198,19.538L8.08,19.56L7.962,19.58L7.844,19.596L7.726,19.61L7.607,19.621L7.488,19.629L7.37,19.634L7.251,19.637L7.133,19.636L7.014,19.633L6.896,19.627L6.778,19.617L6.661,19.605L6.544,19.59L6.427,19.573L6.31,19.552L6.195,19.528L6.079,19.502L5.965,19.472L5.851,19.44L5.738,19.404L5.626,19.366L5.514,19.324L5.404,19.28L5.294,19.233L5.186,19.182L5.079,19.129L5.025,19.101L4.972,19.073L4.92,19.043L4.867,19.013L4.815,18.982L4.764,18.951L4.713,18.919L4.662,18.886L4.611,18.852L4.561,18.817L4.511,18.782L4.461,18.746L4.412,18.709L4.364,18.672L4.315,18.633L4.267,18.594L4.22,18.554L4.173,18.514L4.126,18.473L4.08,18.431L4.035,18.389L3.991,18.346L3.947,18.303L3.904,18.259L3.862,18.215L3.82,18.17L3.779,18.125L3.739,18.079L3.699,18.033L3.66,17.987L3.622,17.94L3.584,17.893L3.548,17.845L3.512,17.797L3.476,17.748L3.441,17.698L3.374,17.6L3.31,17.499L3.248,17.397L3.189,17.294L3.133,17.189L3.08,17.083L3.03,16.975L2.982,16.867L2.938,16.757L2.896,16.647L2.857,16.535L2.82,16.423L2.787,16.309L2.756,16.195L2.729,16.08L2.704,15.965L2.682,15.848L2.662,15.732L2.646,15.614L2.632,15.496L2.622,15.378L2.614,15.26L2.609,15.141L2.606,15.022L2.607,14.902L2.61,14.783L2.616,14.663L2.625,14.543L2.637,14.424L2.652,14.304L2.669,14.185L2.689,14.065L2.712,13.946L2.738,13.828L2.767,13.709L2.799,13.591L2.833,13.473L2.87,13.356L2.911,13.24L2.953,13.124L2.999,13.009L3.048,12.894L3.099,12.78L3.154,12.667L3.211,12.555L3.271,12.444L3.333,12.334L3.399,12.225L3.467,12.117L3.539,12.01L3.613,11.904L3.69,11.8L3.77,11.697L3.852,11.595L3.937,11.495L3.992,11.434L4.046,11.374L4.102,11.315L4.158,11.257L4.214,11.201L4.271,11.145L4.329,11.09L4.386,11.038L4.422,11.009L4.461,10.987L4.504,10.971L4.548,10.961L4.593,10.958L4.639,10.962L4.683,10.973L4.725,10.991L4.764,11.014L4.798,11.043L4.829,11.077L4.853,11.116L4.872,11.157L4.884,11.201L4.889,11.246L4.888,11.291L4.879,11.336L4.864,11.379L4.843,11.419L4.809,11.472L4.778,11.523L4.749,11.574L4.72,11.625L4.693,11.677L4.667,11.729L4.642,11.781L4.618,11.834L4.595,11.887L4.573,11.94L4.553,11.993L4.533,12.046L4.515,12.099L4.498,12.153L4.482,12.207L4.467,12.26L4.453,12.314L4.441,12.368L4.429,12.421L4.419,12.475L4.41,12.529L4.402,12.582L4.395,12.636L4.389,12.689L4.384,12.743L4.381,12.796L4.378,12.849L4.377,12.901L4.377,12.954L4.378,13.006L4.38,13.058L4.383,13.11L4.387,13.162L4.392,13.213L4.399,13.264L4.406,13.314L4.415,13.364L4.424,13.414L4.435,13.463L4.447,13.512L4.46,13.56L4.474,13.608L4.489,13.656L4.505,13.703L4.522,13.749L4.541,13.795L4.56,13.84L4.58,13.885L4.602,13.929L4.624,13.973L4.648,14.016L4.673,14.058L4.698,14.1L4.725,14.141L4.753,14.181L4.782,14.221L4.812,14.259L4.843,14.298L4.875,14.335L4.908,14.372L4.942,14.408L4.978,14.443L5.014,14.478L5.051,14.511L5.094,14.548L5.138,14.583L5.183,14.616L5.228,14.648L5.274,14.678L5.32,14.707L5.368,14.735L5.416,14.761L5.465,14.786L5.514,14.809L5.564,14.831L5.615,14.852L5.666,14.871L5.718,14.888L5.77,14.905L5.823,14.919L5.876,14.933L5.93,14.945L5.984,14.956L6.039,14.965L6.094,14.973L6.15,14.979L6.206,14.984L6.262,14.988L6.319,14.99L6.376,14.991L6.433,14.99L6.49,14.988L6.548,14.985L6.605,14.98L6.663,14.973L6.721,14.966L6.779,14.957L6.837,14.946L6.896,14.934L6.954,14.921L7.012,14.906L7.07,14.89L7.128,14.873L7.186,14.854L7.243,14.834L7.301,14.812L7.358,14.789L7.415,14.764L7.472,14.739L7.529,14.711L7.585,14.683L7.641,14.653L7.696,14.621L7.751,14.589L7.806,14.555L7.86,14.519L7.913,14.482L7.966,14.444L8.019,14.404L8.071,14.364L8.122,14.321L8.172,14.278L8.222,14.233L8.272,14.186L8.32,14.139L8.368,14.09L8.415,14.04L8.461,13.988L8.506,13.935L8.549,13.882L8.591,13.828L8.632,13.774L8.671,13.719L8.709,13.663L8.746,13.607L8.781,13.551L8.814,13.494L8.846,13.437L8.877,13.379L8.906,13.321L8.934,13.263L8.961,13.204L8.986,13.145L9.009,13.086L9.031,13.027L9.052,12.967L9.072,12.907L9.09,12.848L9.106,12.788L9.121,12.728L9.135,12.668L9.147,12.608L9.158,12.548L9.168,12.488L9.176,12.429L9.183,12.369L9.188,12.31L9.192,12.25L9.195,12.191L9.196,12.133L9.196,12.074L9.194,12.016L9.191,11.958L9.187,11.901L9.181,11.843L9.174,11.787L9.165,11.731L9.156,11.675L9.144,11.619L9.132,11.565L9.118,11.511L9.103,11.457L9.086,11.404L9.069,11.351L9.049,11.3L9.029,11.249L9.007,11.198L8.984,11.149L8.96,11.1L8.934,11.051L8.907,11.004L8.878,10.957L8.849,10.912L8.817,10.867L8.785,10.823L8.751,10.779L8.716,10.737L8.68,10.696L8.642,10.655L8.603,10.616L8.563,10.577L8.521,10.539L8.496,10.518L8.47,10.497L8.44,10.476L8.428,10.468L8.413,10.459L8.398,10.45L8.383,10.442L8.367,10.434L8.351,10.426L8.334,10.42L8.316,10.413L8.298,10.407L8.279,10.402L8.258,10.398L8.237,10.394L8.215,10.39L8.192,10.388L8.167,10.387L8.141,10.386L8.113,10.387L8.084,10.389L8.053,10.393L8.02,10.397L7.986,10.404L7.949,10.412L7.911,10.423L7.87,10.435L7.828,10.449L7.78,10.467L7.725,10.489L7.667,10.51L7.609,10.531L7.551,10.551L7.492,10.57L7.434,10.589L7.375,10.606L7.316,10.623L7.257,10.638L7.198,10.653L7.139,10.667L7.08,10.681L7.021,10.693L6.962,10.705L6.902,10.716L6.843,10.726L6.784,10.735L6.723,10.743L6.605,10.758L6.486,10.769L6.367,10.777L6.248,10.782L6.129,10.784L6.011,10.782L5.892,10.778L5.774,10.771L5.656,10.76L5.539,10.747L5.422,10.73L5.305,10.711L5.189,10.689L5.074,10.664L4.959,10.636L4.845,10.605L4.731,10.572L4.618,10.535L4.507,10.496L4.396,10.454L4.286,10.41L4.176,10.362L4.068,10.313L3.961,10.26L3.855,10.205L3.751,10.147L3.647,10.087L3.545,10.024L3.444,9.959L3.344,9.891L3.246,9.821L3.149,9.748L3.054,9.673L2.96,9.596L2.868,9.516L2.778,9.434L2.689,9.35L2.602,9.263L2.517,9.174L2.433,9.083L2.352,8.989L2.272,8.893L2.194,8.796L2.119,8.696L2.045,8.594L1.974,8.489L1.905,8.383L1.838,8.275L1.773,8.165L1.711,8.052L1.651,7.938L1.593,7.822L1.538,7.704L1.485,7.584L1.435,7.462L1.388,7.339L1.344,7.215L1.304,7.092L1.266,6.967L1.231,6.843L1.2,6.719L1.171,6.594L1.146,6.469L1.124,6.344L1.104,6.22L1.088,6.095L1.075,5.97L1.064,5.846L1.057,5.722L1.052,5.598L1.05,5.474L1.051,5.351L1.055,5.228L1.062,5.105L1.072,4.984L1.084,4.862L1.1,4.742L1.118,4.622L1.138,4.503L1.162,4.384L1.188,4.267L1.217,4.15L1.248,4.034L1.282,3.919L1.319,3.806L1.359,3.693L1.401,3.581L1.445,3.471L1.492,3.362L1.542,3.254L1.594,3.147L1.649,3.042L1.706,2.939L1.766,2.836L1.828,2.736L1.892,2.637L1.959,2.539L2.029,2.444L2.1,2.35L2.174,2.258L2.251,2.167L2.329,2.079L2.41,1.993L2.494,1.908L2.579,1.826L2.667,1.746L2.757,1.668L2.849,1.593L2.944,1.519L3.039,1.449L3.089,1.414L3.139,1.38L3.189,1.346L3.24,1.314L3.291,1.281L3.343,1.25L3.395,1.219L3.447,1.189L3.501,1.159L3.554,1.131L3.609,1.102L3.663,1.075L3.718,1.048L3.774,1.022L3.83,0.996L3.887,0.972L3.944,0.948L4.002,0.924L4.06,0.902L4.118,0.88L4.176,0.86L4.234,0.84L4.293,0.82L4.351,0.802L4.41,0.785L4.469,0.768L4.528,0.752L4.587,0.737L4.646,0.723L4.705,0.71L4.764,0.698L4.823,0.686L4.883,0.675L4.942,0.665L5.002,0.656L5.062,0.647L5.18,0.633L5.299,0.622L5.418,0.614L5.537,0.609L5.656,0.607L5.774,0.608ZM5.545,0.909L5.434,0.913L5.323,0.921L5.212,0.931L5.101,0.945L5.046,0.953L4.99,0.961L4.935,0.971L4.879,0.981L4.824,0.992L4.769,1.003L4.714,1.016L4.658,1.029L4.603,1.043L4.548,1.057L4.494,1.073L4.439,1.089L4.384,1.106L4.329,1.124L4.275,1.143L4.221,1.162L4.166,1.182L4.112,1.203L4.058,1.225L4.005,1.248L3.952,1.271L3.9,1.294L3.848,1.319L3.796,1.344L3.745,1.369L3.695,1.396L3.644,1.423L3.595,1.45L3.546,1.478L3.497,1.507L3.449,1.537L3.401,1.567L3.354,1.597L3.307,1.628L3.261,1.66L3.215,1.692L3.125,1.759L3.037,1.827L2.951,1.898L2.866,1.97L2.784,2.045L2.704,2.122L2.627,2.201L2.551,2.282L2.477,2.364L2.406,2.449L2.336,2.535L2.269,2.623L2.204,2.712L2.142,2.804L2.081,2.897L2.023,2.991L1.967,3.087L1.913,3.184L1.862,3.283L1.813,3.383L1.766,3.484L1.722,3.587L1.68,3.69L1.641,3.795L1.604,3.901L1.569,4.008L1.537,4.116L1.507,4.225L1.48,4.335L1.455,4.446L1.433,4.558L1.414,4.67L1.397,4.783L1.382,4.897L1.371,5.011L1.362,5.126L1.355,5.241L1.351,5.357L1.35,5.473L1.352,5.59L1.356,5.707L1.363,5.824L1.373,5.942L1.386,6.059L1.401,6.177L1.42,6.295L1.441,6.413L1.465,6.531L1.492,6.648L1.521,6.766L1.554,6.884L1.59,7.001L1.628,7.118L1.67,7.235L1.714,7.351L1.762,7.467L1.811,7.58L1.863,7.692L1.918,7.802L1.975,7.91L2.034,8.016L2.095,8.12L2.158,8.222L2.223,8.323L2.291,8.421L2.36,8.518L2.432,8.612L2.505,8.704L2.58,8.795L2.657,8.883L2.736,8.969L2.816,9.053L2.898,9.135L2.982,9.214L3.067,9.292L3.154,9.367L3.242,9.44L3.332,9.511L3.423,9.579L3.516,9.645L3.61,9.709L3.705,9.77L3.801,9.83L3.899,9.886L3.997,9.94L4.097,9.992L4.197,10.042L4.299,10.089L4.401,10.133L4.505,10.175L4.609,10.214L4.714,10.251L4.82,10.285L4.926,10.316L5.033,10.345L5.141,10.371L5.249,10.395L5.358,10.416L5.467,10.434L5.577,10.449L5.686,10.462L5.797,10.471L5.907,10.478L6.018,10.482L6.129,10.484L6.24,10.482L6.351,10.477L6.462,10.47L6.573,10.459L6.684,10.446L6.74,10.438L6.795,10.43L6.85,10.42L6.906,10.41L6.961,10.399L7.016,10.388L7.072,10.375L7.127,10.362L7.182,10.348L7.237,10.333L7.292,10.318L7.346,10.302L7.401,10.284L7.456,10.267L7.51,10.248L7.564,10.229L7.619,10.208L7.673,10.187L7.726,10.167L7.778,10.149L7.828,10.134L7.877,10.121L7.924,10.11L7.97,10.102L8.015,10.095L8.057,10.09L8.099,10.087L8.139,10.086L8.178,10.087L8.215,10.089L8.251,10.093L8.286,10.098L8.319,10.104L8.352,10.111L8.383,10.12L8.413,10.129L8.441,10.139L8.469,10.151L8.495,10.163L8.52,10.175L8.545,10.188L8.568,10.202L8.59,10.215L8.611,10.229L8.651,10.258L8.686,10.286L8.718,10.313L8.767,10.357L8.814,10.402L8.859,10.447L8.903,10.494L8.945,10.542L8.985,10.591L9.024,10.642L9.062,10.693L9.098,10.745L9.132,10.798L9.165,10.852L9.196,10.906L9.226,10.962L9.254,11.018L9.281,11.075L9.306,11.133L9.329,11.192L9.351,11.251L9.372,11.311L9.391,11.371L9.408,11.433L9.424,11.494L9.438,11.556L9.45,11.619L9.462,11.682L9.471,11.746L9.479,11.81L9.486,11.874L9.49,11.939L9.494,12.004L9.496,12.069L9.496,12.135L9.494,12.201L9.492,12.267L9.487,12.333L9.481,12.399L9.474,12.466L9.465,12.532L9.454,12.599L9.442,12.665L9.428,12.732L9.413,12.798L9.396,12.865L9.378,12.931L9.358,12.997L9.337,13.063L9.314,13.129L9.289,13.194L9.263,13.259L9.235,13.324L9.206,13.389L9.176,13.453L9.143,13.517L9.109,13.58L9.074,13.643L9.037,13.706L8.999,13.768L8.959,13.829L8.917,13.89L8.874,13.951L8.83,14.01L8.784,14.069L8.736,14.128L8.687,14.185L8.636,14.242L8.585,14.297L8.533,14.351L8.48,14.403L8.426,14.454L8.371,14.503L8.315,14.551L8.259,14.597L8.202,14.642L8.144,14.686L8.086,14.728L8.027,14.768L7.967,14.807L7.907,14.845L7.847,14.881L7.786,14.915L7.724,14.949L7.662,14.98L7.599,15.01L7.537,15.039L7.473,15.066L7.41,15.092L7.346,15.116L7.282,15.138L7.218,15.159L7.153,15.179L7.089,15.196L7.024,15.213L6.959,15.228L6.894,15.241L6.829,15.253L6.764,15.263L6.699,15.271L6.634,15.278L6.569,15.284L6.504,15.288L6.44,15.29L6.375,15.291L6.311,15.29L6.247,15.287L6.183,15.283L6.119,15.277L6.056,15.27L5.993,15.261L5.931,15.251L5.868,15.239L5.807,15.225L5.746,15.209L5.685,15.192L5.625,15.174L5.565,15.153L5.506,15.131L5.448,15.108L5.39,15.082L5.333,15.055L5.276,15.027L5.221,14.997L5.166,14.965L5.112,14.931L5.058,14.896L5.006,14.859L4.954,14.82L4.904,14.78L4.854,14.737L4.811,14.698L4.769,14.658L4.728,14.618L4.688,14.576L4.649,14.533L4.612,14.49L4.576,14.445L4.542,14.4L4.508,14.354L4.476,14.308L4.445,14.26L4.415,14.212L4.387,14.163L4.36,14.114L4.334,14.064L4.309,14.013L4.285,13.961L4.263,13.909L4.242,13.857L4.223,13.804L4.204,13.75L4.187,13.696L4.171,13.641L4.156,13.586L4.143,13.53L4.131,13.474L4.12,13.418L4.11,13.361L4.101,13.304L4.094,13.247L4.088,13.189L4.083,13.131L4.08,13.073L4.078,13.015L4.077,12.956L4.077,12.897L4.079,12.838L4.081,12.779L4.085,12.719L4.09,12.66L4.097,12.6L4.105,12.541L4.114,12.481L4.124,12.421L4.135,12.362L4.148,12.302L4.162,12.243L4.177,12.183L4.194,12.124L4.211,12.064L4.23,12.005L4.25,11.946L4.272,11.887L4.294,11.829L4.318,11.77L4.343,11.712L4.37,11.654L4.398,11.597L4.426,11.539L4.456,11.482L4.488,11.426L4.52,11.37L4.554,11.314L4.589,11.258L4.534,11.309L4.479,11.361L4.425,11.414L4.372,11.468L4.319,11.522L4.266,11.578L4.215,11.635L4.164,11.692L4.083,11.787L4.005,11.883L3.929,11.981L3.856,12.079L3.786,12.179L3.719,12.28L3.654,12.382L3.592,12.485L3.533,12.589L3.476,12.694L3.422,12.8L3.371,12.907L3.323,13.014L3.277,13.122L3.234,13.231L3.193,13.341L3.155,13.451L3.12,13.561L3.088,13.672L3.058,13.783L3.031,13.895L3.006,14.007L2.985,14.119L2.965,14.232L2.949,14.344L2.935,14.457L2.924,14.569L2.916,14.682L2.91,14.795L2.907,14.907L2.906,15.019L2.908,15.131L2.913,15.243L2.921,15.355L2.931,15.466L2.944,15.576L2.959,15.686L2.977,15.796L2.998,15.905L3.021,16.013L3.047,16.121L3.076,16.228L3.107,16.334L3.141,16.44L3.178,16.544L3.217,16.648L3.259,16.75L3.303,16.851L3.35,16.952L3.4,17.051L3.452,17.149L3.507,17.245L3.564,17.341L3.625,17.435L3.687,17.527L3.72,17.573L3.753,17.618L3.787,17.663L3.821,17.708L3.856,17.752L3.891,17.796L3.928,17.839L3.965,17.882L4.002,17.925L4.041,17.967L4.079,18.009L4.119,18.05L4.159,18.091L4.2,18.131L4.242,18.171L4.284,18.21L4.327,18.249L4.37,18.288L4.414,18.326L4.458,18.363L4.503,18.399L4.548,18.435L4.594,18.47L4.64,18.505L4.686,18.538L4.732,18.571L4.779,18.603L4.826,18.635L4.874,18.666L4.922,18.696L4.97,18.725L5.019,18.754L5.067,18.782L5.116,18.809L5.166,18.836L5.216,18.862L5.316,18.912L5.417,18.959L5.519,19.003L5.622,19.044L5.726,19.083L5.831,19.119L5.937,19.152L6.044,19.182L6.151,19.21L6.258,19.235L6.367,19.257L6.476,19.277L6.585,19.293L6.695,19.307L6.805,19.319L6.916,19.327L7.027,19.333L7.138,19.336L7.249,19.337L7.36,19.334L7.472,19.33L7.583,19.322L7.695,19.312L7.806,19.299L7.917,19.283L8.028,19.265L8.139,19.244L8.249,19.221L8.359,19.194L8.469,19.166L8.578,19.134L8.687,19.1L8.796,19.063L8.903,19.024L9.01,18.982L9.116,18.938L9.222,18.891L9.327,18.841L9.431,18.789L9.534,18.734L9.636,18.676L9.737,18.616L9.837,18.554L9.935,18.489L10.033,18.421L10.129,18.351L10.224,18.278L10.318,18.203L10.411,18.125L10.502,18.045L10.591,17.962L10.679,17.876L10.766,17.789L10.85,17.698L10.934,17.605L11.014,17.51L11.093,17.414L11.168,17.317L11.241,17.218L11.311,17.118L11.378,17.017L11.443,16.915L11.505,16.812L11.564,16.708L11.621,16.603L11.675,16.497L11.726,16.391L11.775,16.283L11.82,16.175L11.864,16.066L11.904,15.957L11.942,15.847L11.977,15.736L12.01,15.625L12.039,15.514L12.066,15.402L12.091,15.291L12.113,15.178L12.132,15.066L12.148,14.953L12.162,14.841L12.173,14.728L12.182,14.615L12.187,14.503L12.191,14.39L12.191,14.278L12.189,14.166L12.184,14.054L12.177,13.943L12.166,13.832L12.154,13.721L12.138,13.611L12.12,13.501L12.099,13.392L12.076,13.284L12.05,13.176L12.021,13.069L11.99,12.963L11.956,12.858L11.92,12.753L11.881,12.65L11.839,12.547L11.794,12.446L11.747,12.346L11.698,12.247L11.645,12.149L11.59,12.052L11.533,11.957L11.473,11.863L11.41,11.77L11.377,11.724L11.344,11.679L11.311,11.634L11.276,11.589L11.241,11.545L11.206,11.502L11.169,11.458L11.133,11.415L11.095,11.373L11.057,11.33L11.018,11.289L10.978,11.247L10.938,11.207L10.897,11.166L10.856,11.126L10.813,11.087L10.771,11.048L10.727,11.01L10.642,10.937L10.555,10.867L10.467,10.8L10.377,10.735L10.287,10.673L10.195,10.614L10.102,10.557L10.007,10.503L10.02,10.448L10.034,10.394L10.05,10.34L10.066,10.287L10.084,10.234L10.104,10.182L10.124,10.13L10.146,10.079L10.169,10.028L10.194,9.978L10.219,9.929L10.246,9.88L10.274,9.831L10.303,9.783L10.334,9.736L10.365,9.689L10.398,9.643L10.431,9.598L10.466,9.553L10.502,9.509L10.539,9.466L10.576,9.423L10.615,9.381L10.655,9.34L10.696,9.3L10.738,9.26L10.781,9.221L10.825,9.183L10.869,9.146L10.915,9.109L10.962,9.073L11.009,9.039L11.057,9.005L11.106,8.971L11.156,8.939L11.207,8.908L11.259,8.877L11.311,8.848L11.364,8.819L11.418,8.792L11.472,8.765L11.528,8.739L11.584,8.715L11.64,8.691L11.698,8.668L11.756,8.647L11.814,8.626L11.874,8.607L11.933,8.588L11.994,8.571L12.055,8.555L12.116,8.54L12.179,8.526L12.241,8.513L12.304,8.501L12.368,8.491L12.432,8.481L12.497,8.473L12.562,8.466L12.627,8.461L12.693,8.456L12.759,8.453L12.826,8.451L12.893,8.45L12.969,8.451L13.044,8.454L13.119,8.458L13.193,8.463L13.267,8.471L13.34,8.479L13.413,8.49L13.485,8.502L13.556,8.515L13.627,8.53L13.697,8.546L13.766,8.564L13.835,8.583L13.903,8.604L13.97,8.625L14.036,8.649L14.101,8.673L14.166,8.699L14.23,8.727L14.293,8.755L14.355,8.785L14.416,8.816L14.476,8.848L14.535,8.881L14.593,8.916L14.65,8.952L14.706,8.989L14.761,9.027L14.815,9.066L14.867,9.106L14.919,9.147L14.969,9.19L15.019,9.233L15.067,9.277L15.114,9.323L15.159,9.369L15.203,9.416L15.246,9.464L15.288,9.513L15.328,9.563L15.367,9.614L15.405,9.666L15.441,9.718L15.475,9.771L15.509,9.825L15.54,9.88L15.57,9.936L15.599,9.992L15.626,10.049L15.652,10.106L15.676,10.165L15.698,10.224L15.719,10.283L15.738,10.343L15.755,10.404L15.77,10.465L15.784,10.527L15.796,10.59L15.806,10.652L15.815,10.716L15.822,10.78L15.826,10.844L15.829,10.909L15.83,10.974L15.829,11.032L15.827,11.09L15.823,11.148L15.818,11.205L15.811,11.262L15.803,11.319L15.793,11.375L15.782,11.431L15.769,11.486L15.755,11.541L15.74,11.596L15.723,11.65L15.705,11.703L15.686,11.756L15.665,11.809L15.643,11.861L15.62,11.913L15.595,11.963L15.569,12.014L15.542,12.064L15.514,12.113L15.485,12.161L15.454,12.209L15.422,12.257L15.389,12.303L15.355,12.349L15.32,12.395L15.283,12.439L15.246,12.483L15.208,12.527L15.168,12.569L15.127,12.611L15.086,12.652L15.043,12.692L15,12.731L14.955,12.77L14.91,12.807L14.863,12.844L14.816,12.88L14.768,12.916L14.719,12.95L14.669,12.983L14.618,13.016L14.566,13.047L14.514,13.078L14.461,13.107L14.406,13.136L14.352,13.164L14.296,13.191L14.24,13.216L14.183,13.241L14.125,13.265L14.067,13.287L14.008,13.309L13.948,13.329L13.888,13.348L13.827,13.367L13.765,13.384L13.703,13.4L13.64,13.414L13.577,13.428L13.513,13.441L13.449,13.452L13.384,13.462L13.459,13.47L13.534,13.477L13.609,13.483L13.685,13.488L13.761,13.492L13.837,13.495L13.914,13.496L13.991,13.497L14.115,13.495L14.239,13.491L14.362,13.484L14.485,13.474L14.606,13.461L14.726,13.445L14.846,13.427L14.964,13.406L15.081,13.382L15.198,13.355L15.313,13.326L15.427,13.295L15.54,13.261L15.651,13.224L15.762,13.185L15.871,13.144L15.979,13.1L16.085,13.053L16.19,13.005L16.293,12.954L16.395,12.901L16.496,12.846L16.594,12.789L16.692,12.729L16.787,12.667L16.881,12.604L16.973,12.538L17.064,12.47L17.152,12.4L17.239,12.329L17.324,12.255L17.407,12.18L17.488,12.103L17.567,12.024L17.644,11.943L17.719,11.861L17.792,11.777L17.862,11.691L17.931,11.604L17.997,11.515L18.061,11.424L18.123,11.332L18.182,11.239L18.239,11.144L18.294,11.048L18.346,10.95L18.396,10.852L18.443,10.751L18.487,10.65L18.529,10.547L18.569,10.443L18.605,10.338L18.639,10.232L18.67,10.125L18.699,10.017L18.712,9.963L18.724,9.908L18.736,9.853L18.747,9.798L18.757,9.742L18.767,9.687L18.776,9.631L18.784,9.575L18.791,9.518L18.798,9.462L18.804,9.405L18.809,9.348L18.813,9.291L18.816,9.234L18.819,9.176L18.821,9.119L18.822,9.061L18.823,9.003L18.822,8.945L18.821,8.887L18.819,8.829L18.816,8.772L18.813,8.714L18.809,8.657L18.804,8.6L18.798,8.543L18.791,8.487L18.784,8.431L18.776,8.374L18.767,8.319L18.757,8.263L18.747,8.208L18.736,8.152L18.724,8.097L18.712,8.043L18.699,7.988L18.67,7.88L18.639,7.773L18.605,7.667L18.569,7.562L18.529,7.458L18.487,7.355L18.443,7.254L18.396,7.154L18.346,7.055L18.294,6.957L18.239,6.861L18.182,6.766L18.123,6.673L18.061,6.581L17.997,6.491L17.931,6.402L17.862,6.314L17.792,6.229L17.719,6.145L17.644,6.062L17.567,5.981L17.488,5.902L17.407,5.825L17.324,5.75L17.239,5.676L17.152,5.605L17.064,5.535L16.973,5.467L16.881,5.402L16.787,5.338L16.692,5.276L16.594,5.217L16.496,5.159L16.395,5.104L16.293,5.051L16.19,5L16.085,4.952L15.979,4.906L15.871,4.862L15.762,4.82L15.651,4.781L15.54,4.745L15.427,4.711L15.313,4.679L15.198,4.65L15.081,4.623L14.964,4.6L14.846,4.579L14.726,4.56L14.606,4.544L14.485,4.532L14.362,4.521L14.239,4.514L14.115,4.51L13.991,4.508L13.871,4.51L13.751,4.514L13.633,4.521L13.515,4.53L13.398,4.542L13.281,4.557L13.166,4.574L13.052,4.593L12.938,4.616L12.826,4.64L12.714,4.667L12.604,4.697L12.494,4.728L12.386,4.762L12.279,4.799L12.173,4.838L12.069,4.879L11.965,4.922L11.863,4.967L11.763,5.014L11.663,5.064L11.565,5.115L11.469,5.169L11.374,5.225L11.28,5.282L11.188,5.342L11.098,5.404L11.009,5.467L10.922,5.532L10.836,5.599L10.753,5.668L10.67,5.739L10.59,5.811L10.512,5.885L10.435,5.961L10.36,6.038L10.287,6.117L10.217,6.198L10.148,6.28L10.081,6.363L10.016,6.448L9.953,6.535L9.892,6.623L9.834,6.712L9.777,6.802L9.723,6.894L9.671,6.987L9.622,7.082L9.575,7.178L9.53,7.274L9.487,7.372L9.447,7.471L9.409,7.572L9.374,7.673L9.342,7.775L9.312,7.879L9.284,7.983L9.259,8.088L9.237,8.194L9.218,8.301L9.201,8.409L9.187,8.517L9.176,8.627L9.167,8.737L9.107,8.758L9.046,8.778L8.985,8.796L8.924,8.812L8.863,8.826L8.801,8.838L8.739,8.848L8.677,8.857L8.615,8.864L8.553,8.869L8.491,8.873L8.428,8.874L8.366,8.874L8.304,8.873L8.242,8.869L8.179,8.864L8.117,8.857L8.055,8.849L7.994,8.839L7.932,8.827L7.87,8.814L7.809,8.799L7.748,8.783L7.688,8.765L7.627,8.745L7.567,8.724L7.507,8.701L7.448,8.677L7.389,8.652L7.33,8.625L7.272,8.596L7.215,8.566L7.158,8.535L7.101,8.502L7.045,8.467L6.99,8.432L6.935,8.395L6.881,8.356L6.828,8.316L6.775,8.275L6.723,8.233L6.671,8.189L6.621,8.144L6.571,8.097L6.522,8.05L6.474,8.001L6.427,7.951L6.381,7.899L6.335,7.846L6.291,7.793L6.247,7.738L6.205,7.681L6.164,7.624L6.123,7.565L6.084,7.506L6.046,7.445L6.009,7.383L5.973,7.32L5.938,7.256L5.905,7.191L5.872,7.124L5.842,7.057L5.812,6.989L5.784,6.919L5.756,6.849L5.731,6.778L5.707,6.707L5.685,6.636L5.665,6.564L5.646,6.493L5.629,6.422L5.613,6.35L5.599,6.279L5.587,6.208L5.576,6.137L5.567,6.066L5.56,5.995L5.554,5.925L5.55,5.854L5.547,5.784L5.546,5.714L5.546,5.644L5.548,5.575L5.551,5.506L5.556,5.437L5.562,5.369L5.57,5.302L5.58,5.234L5.59,5.168L5.603,5.101L5.616,5.036L5.631,4.971L5.648,4.906L5.666,4.842L5.685,4.779L5.706,4.717L5.728,4.655L5.752,4.594L5.776,4.534L5.803,4.474L5.83,4.416L5.859,4.358L5.889,4.301L5.921,4.245L5.954,4.191L5.988,4.137L6.023,4.084L6.06,4.032L6.098,3.981L6.137,3.932L6.178,3.883L6.22,3.836L6.263,3.79L6.307,3.745L6.352,3.701L6.399,3.658L6.446,3.617L6.495,3.578L6.545,3.539L6.597,3.502L6.649,3.466L6.703,3.432L6.757,3.4L6.813,3.368L6.87,3.339L6.928,3.311L6.987,3.284L7.047,3.259L7.102,3.238L7.157,3.219L7.212,3.202L7.267,3.185L7.323,3.171L7.378,3.157L7.434,3.146L7.49,3.136L7.546,3.127L7.602,3.12L7.659,3.114L7.715,3.109L7.772,3.107L7.828,3.105L7.885,3.105L7.941,3.106L7.998,3.109L8.054,3.113L8.11,3.118L8.167,3.125L8.223,3.133L8.279,3.143L8.335,3.154L8.39,3.166L8.446,3.179L8.501,3.194L8.556,3.21L8.611,3.227L8.666,3.246L8.72,3.266L8.774,3.287L8.828,3.309L8.881,3.333L8.934,3.358L8.987,3.384L9.039,3.411L9.091,3.439L9.143,3.469L9.193,3.5L9.244,3.531L9.294,3.564L9.343,3.599L9.392,3.634L9.441,3.67L9.488,3.708L9.536,3.746L9.582,3.786L9.628,3.827L9.673,3.869L9.718,3.911L9.762,3.955L9.805,4L9.848,4.046L9.889,4.093L9.93,4.141L9.971,4.19L10.01,4.24L10.049,4.291L10.086,4.343L10.123,4.396L10.159,4.45L10.194,4.504L10.228,4.56L10.262,4.616L10.242,4.544L10.221,4.472L10.198,4.399L10.175,4.327L10.151,4.255L10.125,4.183L10.099,4.111L10.071,4.039L10.023,3.924L9.974,3.811L9.922,3.699L9.867,3.589L9.811,3.481L9.752,3.375L9.69,3.271L9.627,3.168L9.562,3.068L9.494,2.97L9.425,2.873L9.354,2.779L9.28,2.686L9.205,2.596L9.128,2.508L9.049,2.422L8.969,2.338L8.887,2.256L8.803,2.176L8.718,2.099L8.631,2.024L8.543,1.951L8.453,1.88L8.362,1.812L8.269,1.746L8.175,1.682L8.08,1.62L7.984,1.561L7.887,1.504L7.788,1.45L7.688,1.398L7.588,1.349L7.486,1.302L7.384,1.258L7.28,1.216L7.176,1.177L7.071,1.14L6.965,1.106L6.859,1.074L6.752,1.045L6.644,1.019L6.536,0.996L6.427,0.975L6.318,0.957L6.209,0.942L6.099,0.929L5.988,0.919L5.878,0.912L5.767,0.908L5.656,0.907L5.545,0.909Z"/>
        </g>
    </g>
</svg>
