<?xml version="1.0" encoding="UTF-8" standalone="no"?>
<!DOCTYPE svg PUBLIC "-//W3C//DTD SVG 1.1//EN" "http://www.w3.org/Graphics/SVG/1.1/DTD/svg11.dtd">
<svg width="100%" height="100%" viewBox="0 0 260 260" version="1.1" xmlns="http://www.w3.org/2000/svg" xmlns:xlink="http://www.w3.org/1999/xlink" xml:space="preserve" xmlns:serif="http://www.serif.com/" style="fill-rule:evenodd;clip-rule:evenodd;stroke-linejoin:round;stroke-miterlimit:1.41421;">
    <g id="Industrial" transform="matrix(1.276,0,0,1.276,-1306.25,8.11352)">
        <path d="M1141.65,185.4L1109.52,185.4L1109.52,173.384C1078.53,167.012 1054.1,142.58 1047.72,111.591L1035.71,111.591L1035.71,79.454L1047.72,79.454C1054.1,48.464 1078.53,24.032 1109.52,17.66L1109.52,5.644L1141.65,5.644L1141.65,17.66C1172.64,24.032 1197.08,48.463 1203.45,79.454L1215.46,79.454L1215.46,111.591L1203.45,111.591C1197.08,142.581 1172.64,167.012 1141.65,173.384L1141.65,185.4ZM1179.25,126.465C1184.52,117.358 1187.53,106.79 1187.53,95.522C1187.53,84.255 1184.52,73.686 1179.25,64.579L1172.3,71.529L1149.58,48.805L1156.53,41.855C1147.42,36.589 1136.85,33.574 1125.59,33.574C1114.32,33.574 1103.75,36.589 1094.64,41.855L1101.59,48.805L1078.87,71.529L1071.92,64.579C1066.65,73.686 1063.64,84.255 1063.64,95.522C1063.64,106.79 1066.65,117.358 1071.92,126.465L1078.87,119.515L1101.59,142.24L1094.64,149.19C1103.75,154.456 1114.32,157.47 1125.59,157.47C1136.85,157.47 1147.42,154.456 1156.53,149.19L1149.58,142.24L1172.3,119.515L1179.25,126.465Z" style="fill:rgb(0,130,70);"/>
        <g transform="matrix(0.251604,0,0,0.251604,842.384,71.4885)">
            <path d="M1047.82,79.091C1054.28,48.277 1078.65,24.008 1109.52,17.662L1109.76,17.612C1114.88,16.576 1120.17,16.032 1125.59,16.032C1131,16.032 1136.3,16.576 1141.41,17.612L1141.65,17.662C1172.65,24.032 1197.08,48.467 1203.43,79.454C1204.52,84.649 1205.08,90.021 1205.08,95.522C1205.08,101.024 1204.52,106.396 1203.43,111.591C1197.08,142.577 1172.65,167.012 1141.65,173.383L1141.41,173.433C1136.3,174.469 1131,175.012 1125.59,175.012C1120.08,175.012 1114.71,174.452 1109.52,173.383L1109.31,173.339C1078.42,166.902 1054.09,142.52 1047.74,111.591L1047.69,111.348C1046.64,106.246 1046.1,100.947 1046.1,95.522C1046.1,90.021 1046.66,84.649 1047.74,79.454L1047.82,79.091Z" style="fill:rgb(0,130,70);"/>
        </g>
    </g>
</svg>
