<?xml version="1.0" encoding="UTF-8" standalone="no"?>
<!DOCTYPE svg PUBLIC "-//W3C//DTD SVG 1.1//EN" "http://www.w3.org/Graphics/SVG/1.1/DTD/svg11.dtd">
<svg width="100%" height="100%" viewBox="0 0 260 260" version="1.1" xmlns="http://www.w3.org/2000/svg" xmlns:xlink="http://www.w3.org/1999/xlink" xml:space="preserve" xmlns:serif="http://www.serif.com/" style="fill-rule:evenodd;clip-rule:evenodd;stroke-linejoin:round;stroke-miterlimit:1.41421;">
    <g id="Cultural" transform="matrix(0.945437,0.848292,-0.848292,0.945437,25.3879,-105.742)">
        <g transform="matrix(1,0,0,1,-1.16603,-0.125937)">
            <circle cx="190.852" cy="42.046" r="17.946" style="fill:rgb(0,150,210);"/>
        </g>
        <path d="M161.306,44.583C161.574,47.955 162.427,51.272 163.902,54.33C164.325,55.207 164.796,56.055 165.311,56.871C125.936,59.622 96.535,70.344 96.535,83.137C96.535,98.011 136.284,110.088 185.244,110.088C234.204,110.088 273.953,98.011 273.953,83.137C273.953,71.247 248.554,61.145 213.354,57.57C215.786,53.839 217.408,49.574 218.002,45.185C273.424,49.594 314.364,64.925 314.364,83.137C314.364,104.787 256.507,122.365 185.244,122.365C113.981,122.365 56.124,104.787 56.124,83.137C56.124,63.971 101.463,47.997 161.306,44.583ZM171.873,44.117C176.269,43.98 180.73,43.909 185.244,43.909C192.709,43.909 200.027,44.102 207.147,44.472C206.22,49.274 203.331,53.675 199.432,56.53C194.812,56.304 190.073,56.186 185.244,56.186C183.204,56.186 181.18,56.207 179.174,56.249C175.354,53.407 172.575,49.151 171.914,44.428C171.899,44.325 171.886,44.221 171.873,44.117Z" style="fill:rgb(0,150,210);"/>
    </g>
</svg>
