<?xml version="1.0" encoding="UTF-8" standalone="no"?>
<!DOCTYPE svg PUBLIC "-//W3C//DTD SVG 1.1//EN" "http://www.w3.org/Graphics/SVG/1.1/DTD/svg11.dtd">
<svg width="100%" height="100%" viewBox="0 0 20 20" version="1.1" xmlns="http://www.w3.org/2000/svg" xmlns:xlink="http://www.w3.org/1999/xlink" xml:space="preserve" xmlns:serif="http://www.serif.com/" style="fill-rule:evenodd;clip-rule:evenodd;">
    <g transform="matrix(0.301538,0,0,0.301538,-84.0154,-80.5277)">
        <g id="Mentak">
            <path id="path3364" d="M291.25,294.148L311.964,269.505L332.5,294.505L344.286,325.219L311.964,330.934L279.286,325.398L291.25,294.148Z" style="fill:rgb(218,163,38);"/>
            <clipPath id="_clip1">
                <path id="path33641" serif:id="path3364" d="M291.25,294.148L311.964,269.505L332.5,294.505L344.286,325.219L311.964,330.934L279.286,325.398L291.25,294.148Z"/>
            </clipPath>
            <g clip-path="url(#_clip1)">
                <path id="path33642" serif:id="path3364" d="M291.25,294.148L311.964,269.505L332.5,294.505L344.286,325.219L311.964,330.934L279.286,325.398L291.25,294.148Z" style="fill:rgb(218,163,38);stroke:black;stroke-width:1px;"/>
                <path id="path3367" d="M279.926,324.906L305.722,303.562L311.96,270.414L318.87,303.444L343.684,324.813L312.061,312.894L279.926,324.906Z"/>
                <g transform="matrix(3.17293,1.69058,-1.55944,2.9268,291.475,261.872)">
                    <path d="M2.483,9.388L2.483,8.061L5.091,8.061L5.091,6.979L7.898,8.724L5.091,10.47L5.091,9.388L2.483,9.388Z"/>
                </g>
                <g transform="matrix(-3.17162,1.69303,-1.5617,-2.92559,359.573,312.9)">
                    <path d="M2.483,9.388L2.483,8.061L5.091,8.061L5.091,6.979L7.898,8.724L5.091,10.47L5.091,9.388L2.483,9.388Z"/>
                </g>
                <g transform="matrix(2.66454e-15,-3.59521,3.31633,1.77636e-15,283.152,344.624)">
                    <path d="M2.483,9.388L2.483,8.061L5.091,8.061L5.091,6.979L7.898,8.724L5.091,10.47L5.091,9.388L2.483,9.388Z"/>
                </g>
            </g>
            <path id="path33643" serif:id="path3364" d="M291.25,294.148L311.964,269.505L332.5,294.505L344.286,325.219L311.964,330.934L279.286,325.398L291.25,294.148Z" style="fill:none;stroke:black;stroke-width:1px;"/>
        </g>
    </g>
</svg>
