<?xml version="1.0" encoding="UTF-8" standalone="no"?>
<!DOCTYPE svg PUBLIC "-//W3C//DTD SVG 1.1//EN" "http://www.w3.org/Graphics/SVG/1.1/DTD/svg11.dtd">
<svg width="100%" height="100%" viewBox="0 0 515 565" version="1.1" xmlns="http://www.w3.org/2000/svg" xmlns:xlink="http://www.w3.org/1999/xlink" xml:space="preserve" xmlns:serif="http://www.serif.com/" style="fill-rule:evenodd;clip-rule:evenodd;stroke-linejoin:round;stroke-miterlimit:1.41421;">
    <g transform="matrix(1,0,0,1,5.11667,22.6114)">
        <path d="M204.824,13.515L226.626,-24.297L276.803,-24.325L299.916,15.657L347.632,15.63L372.239,58.196L417.565,58.171L440.869,98.482L486.46,98.457L511.573,141.897L487.84,183.056L509.957,221.314L485.971,262.912L507.748,300.583L484.42,341.042L507.022,380.14L481.958,423.609L438.428,423.633L416.565,461.549L370.604,461.575L348.793,499.401L304.915,499.425L281.678,539.725L231.501,539.753L208.388,499.771L160.672,499.798L136.065,457.232L90.739,457.257L67.435,416.946L21.844,416.971L-3.269,373.531L20.464,332.372L-1.652,294.114L22.333,252.516L0.556,214.845L23.885,174.386L1.282,135.288L26.346,91.819L69.517,91.795L92.626,51.718L137.642,51.693L159.641,13.54L204.824,13.515ZM276.421,461.035L236.2,461.057L215.874,496.308L236.239,531.536L276.93,531.513L297.022,496.669L276.421,461.035ZM206.101,491.557L226.427,456.307L206.062,421.079L165.371,421.101L145.045,456.352L165.41,491.58L206.101,491.557ZM363.751,457.014L343.42,421.846L302.661,421.868L283.224,455.576L303.825,491.211L344.046,491.189L363.751,457.014ZM370.788,383.4L351.383,417.055L372.37,453.359L411.818,453.337L430.36,421.179L408.509,383.379L370.788,383.4ZM274.201,380.06L234.793,380.082L214.488,415.296L234.853,450.524L275.544,450.502L295.208,416.398L274.201,380.06ZM136.168,449.017L156.494,413.766L136.129,378.538L95.438,378.561L75.112,413.811L95.477,449.039L136.168,449.017ZM440.089,415.417L477.21,415.396L497.536,380.146L477.171,344.918L436.692,344.94L418.044,377.282L440.089,415.417ZM303.071,343.174L283.407,377.278L303.778,412.517L344.456,412.495L362.79,380.699L341.085,343.153L303.071,343.174ZM205.313,411.27L225.639,376.019L205.274,340.791L164.583,340.813L144.257,376.064L164.622,411.292L205.313,411.27ZM67.273,408.731L87.599,373.48L67.234,338.252L26.543,338.275L6.217,373.525L26.582,408.754L67.273,408.731ZM409.87,374.644L429.998,339.737L409.734,304.685L369.335,304.707L350.206,337.884L371.469,374.666L409.87,374.644ZM273.79,301.366L235.05,301.388L214.724,336.639L235.068,371.83L275.801,371.808L295.131,338.284L273.79,301.366ZM75.027,335.116L95.321,370.222L136.012,370.199L155.886,335.733L135.067,299.721L95.423,299.743L75.027,335.116ZM437.876,265.383L417.221,301.205L437.255,335.862L477.937,335.839L498.263,300.588L477.898,265.36L437.876,265.383ZM304.165,334.121L342.622,334.099L362.904,298.926L342.494,263.621L302.175,263.643L282.824,297.204L304.165,334.121ZM164.236,332.197L204.021,332.175L224.347,296.924L203.982,261.696L164.018,261.718L143.781,296.814L164.236,332.197ZM68.748,329.314L89.145,293.941L68.85,258.835L28.159,258.858L7.833,294.109L28.198,329.337L68.748,329.314ZM371.069,224.967L350.565,260.525L370.753,295.446L410.402,295.424L431.062,259.593L411.033,224.945L371.069,224.967ZM232.626,222.278L211.681,258.601L231.668,293.175L275.678,293.15L296.623,256.827L276.636,222.253L232.626,222.278ZM137.235,290.461L157.739,254.903L137.551,219.982L97.902,220.004L77.242,255.835L97.271,290.483L137.235,290.461ZM439.556,186.114L419.159,221.487L439.454,256.593L480.145,256.57L500.471,221.319L480.106,186.091L439.556,186.114ZM344.068,183.231L304.283,183.253L283.957,218.504L304.322,253.732L344.286,253.71L364.523,218.614L344.068,183.231ZM204.139,181.307L165.682,181.329L145.4,216.502L165.81,251.807L206.129,251.785L225.48,218.224L204.139,181.307ZM70.428,250.045L91.083,214.223L71.049,179.566L30.367,179.589L10.041,214.84L30.406,250.068L70.428,250.045ZM433.277,180.312L412.983,145.206L372.292,145.229L352.418,179.695L373.237,215.707L412.881,215.685L433.277,180.312ZM234.514,214.062L273.254,214.04L293.58,178.789L273.236,143.598L232.503,143.62L213.173,177.144L234.514,214.062ZM137.538,140.243L98.734,140.264L78.306,175.691L98.57,210.743L138.969,210.721L158.6,176.675L137.538,140.243ZM441.031,106.697L420.705,141.948L441.07,177.176L481.761,177.153L502.087,141.903L481.722,106.674L441.031,106.697ZM302.991,104.158L282.665,139.409L303.03,174.637L343.721,174.615L364.047,139.364L343.682,104.136L302.991,104.158ZM224.486,137.439L203.089,100.424L164.851,100.446L145.298,134.355L166.306,170.695L205.323,170.674L224.486,137.439ZM70.351,100.01L31.094,100.032L10.768,135.282L31.133,170.51L71.612,170.488L91.327,136.295L70.351,100.01ZM372.136,66.411L351.81,101.662L372.175,136.89L412.866,136.867L433.192,101.617L412.827,66.389L372.136,66.411ZM235.106,135.368L273.511,135.346L293.816,100.132L273.451,64.904L232.76,64.926L213.597,98.161L235.106,135.368ZM97.374,59.93L77.764,93.939L98.847,130.408L137.715,130.386L157.33,96.367L136.254,59.908L97.374,59.93ZM302.203,23.871L281.877,59.121L302.242,94.349L342.933,94.327L363.259,59.076L342.894,23.848L302.203,23.871ZM164.389,21.752L144.967,55.434L166.107,92.002L205.25,91.98L224.427,58.723L203.042,21.731L164.389,21.752ZM233.45,54.392L272.104,54.371L292.43,19.12L272.065,-16.108L231.374,-16.085L212.066,17.4L233.45,54.392Z" style="fill:white;fill-opacity:0.105422;"/>
    </g>
    <g transform="matrix(0.205372,0,0,0.205372,206.694,227.75)">
        <path d="M352.49,256C352.49,309.258 309.254,352.496 256,352.496C202.746,352.496 159.51,309.258 159.51,256C159.51,202.742 202.746,159.504 256,159.504C309.254,159.504 352.49,202.742 352.49,256Z" style="fill:white;"/>
    </g>
    <g transform="matrix(0.205372,0,0,0.205372,206.693,227.75)">
        <path d="M500.322,255.865L378.279,467.521L133.958,467.657L11.679,256.137L133.722,44.48L378.044,44.344L500.322,255.865ZM156.838,84.467L57.867,256.111L157.03,427.644L355.162,427.534L454.133,255.89L354.972,84.357L156.838,84.467Z" style="fill:white;stroke:white;stroke-width:12.17px;"/>
    </g>
    <path d="M301.531,200.445L279.386,162.138L304.45,118.67L354.627,118.642L379.739,162.082L356.101,203.078L378.246,241.386L377.886,242.01L421.006,241.986L446.119,285.426L422.488,326.408L442.14,360.401L487.766,360.376L512.879,403.816L487.814,447.285L444.385,447.309L421.054,487.77L370.878,487.798L345.765,444.358L367.998,405.799L344.167,364.575L301.249,364.599L276.137,321.159L300.026,279.728L277.893,241.442L301.531,200.445ZM415.536,409.079L375.577,409.102L355.251,444.352L375.616,479.58L416.307,479.558L436.267,444.941L415.536,409.079ZM443.108,439.094L483.067,439.072L503.393,403.822L483.028,368.593L442.337,368.616L422.377,403.232L443.108,439.094ZM373.797,329.005L353.471,364.255L373.836,399.483L414.527,399.461L434.853,364.21L414.488,328.982L373.797,329.005ZM345.996,285.881L305.948,285.903L285.622,321.154L305.987,356.382L346.678,356.359L366.683,321.665L345.996,285.881ZM376.259,320.704L416.307,320.682L436.633,285.431L416.268,250.203L375.577,250.226L355.572,284.919L376.259,320.704ZM307.704,206.186L287.378,241.436L307.743,276.664L348.434,276.642L368.76,241.391L348.395,206.163L307.704,206.186ZM309.198,126.882L288.872,162.133L309.237,197.361L349.928,197.338L370.254,162.087L349.889,126.859L309.198,126.882Z" style="fill:white;fill-opacity:0.480565;"/>
</svg>
