<?xml version="1.0" encoding="UTF-8" standalone="no"?>
<!DOCTYPE svg PUBLIC "-//W3C//DTD SVG 1.1//EN" "http://www.w3.org/Graphics/SVG/1.1/DTD/svg11.dtd">
<svg width="100%" height="100%" viewBox="0 0 260 260" version="1.1" xmlns="http://www.w3.org/2000/svg" xmlns:xlink="http://www.w3.org/1999/xlink" xml:space="preserve" xmlns:serif="http://www.serif.com/" style="fill-rule:evenodd;clip-rule:evenodd;stroke-linejoin:round;stroke-miterlimit:1.41421;">
    <g id="Hazardous" transform="matrix(1.25996,0,0,1.25996,-703.206,10.8922)">
        <path d="M754.666,27.117L722.162,83.362L717.694,75.624L687.694,127.585L696.606,127.585L664.633,182.911L661.935,181.04L661.935,100.483C674.698,98.526 684.485,87.487 684.485,74.181C684.485,71.051 683.944,68.046 682.949,65.256L751.553,25.648L754.666,27.117ZM632.687,65.576C631.764,68.276 631.263,71.17 631.263,74.181C631.263,87.28 640.749,98.182 653.22,100.385L653.22,181.04L650.85,182.683L619.069,127.585L627.25,127.585L597.25,75.624L593.172,82.688L560.968,26.856L563.529,25.648L632.687,65.576ZM657.874,55.559C668.152,55.559 676.496,63.903 676.496,74.181C676.496,84.459 668.152,92.803 657.874,92.803C647.596,92.803 639.252,84.459 639.252,74.181C639.252,63.903 647.596,55.559 657.874,55.559ZM567.629,14.997L632.084,15.023L627.874,22.314L687.874,22.314L683.677,15.044L747.446,15.07L747.195,18.1L678.713,57.638C673.836,51.505 666.311,47.57 657.874,47.57C649.316,47.57 641.696,51.618 636.827,57.903L567.886,18.1L567.629,14.997ZM761.624,15.076L761.617,15.089L761.623,15.076L761.624,15.076Z" style="fill:rgb(195,41,44);"/>
    </g>
</svg>
