<?xml version="1.0" standalone="no"?>
<!DOCTYPE svg PUBLIC "-//W3C//DTD SVG 20010904//EN"
 "http://www.w3.org/TR/2001/REC-SVG-20010904/DTD/svg10.dtd">
<svg version="1.0" xmlns="http://www.w3.org/2000/svg"
 width="700.000000pt" height="700.000000pt" viewBox="0 0 700.000000 700.000000"
 preserveAspectRatio="xMidYMid meet">
<metadata>
Created by potrace 1.11, written by Peter Selinger 2001-2013
</metadata>
<g transform="translate(0.000000,700.000000) scale(0.100000,-0.100000)"
fill="#000000" stroke="none">
<path d="M1980 6392 l-155 -3 -190 -331 c-104 -182 -202 -352 -216 -377 -42
-74 -198 -345 -208 -361 -6 -8 -38 -64 -72 -125 -34 -60 -84 -146 -110 -190
-43 -73 -249 -430 -289 -500 -9 -16 -70 -122 -135 -235 -65 -113 -140 -243
-167 -290 -26 -47 -52 -92 -57 -100 -5 -8 -57 -97 -115 -198 l-105 -183 93
-162 c257 -447 348 -604 564 -977 129 -223 244 -421 255 -440 24 -43 197 -342
225 -390 12 -19 36 -62 55 -95 18 -33 102 -179 187 -325 84 -146 179 -310 211
-365 32 -55 66 -109 76 -120 18 -20 30 -20 998 -18 539 1 1288 2 1665 3 l685
1 190 331 c105 182 202 351 217 377 15 25 31 52 35 60 3 8 35 64 71 125 35 61
77 136 94 166 17 30 37 62 44 71 8 8 14 18 14 22 0 3 74 133 164 289 90 156
174 301 187 324 161 279 232 402 239 414 23 37 140 243 140 246 0 3 44 76 78
129 6 11 15 27 19 35 4 8 27 49 52 90 24 41 61 107 82 145 l38 71 -23 39
c-181 312 -183 316 -298 515 -53 91 -153 264 -223 385 -70 121 -135 234 -145
250 -9 17 -70 122 -135 235 -65 113 -138 238 -162 278 -23 41 -43 75 -43 78 0
2 -17 32 -38 66 -21 35 -50 83 -64 108 -14 25 -113 197 -222 383 -108 187
-196 341 -196 343 0 3 -12 23 -27 47 -41 63 -73 120 -80 140 -3 9 -15 17 -27
18 -59 3 -3043 4 -3176 1z"/>
</g>
</svg>
