<?xml version="1.0" encoding="UTF-8" standalone="no"?>
<!DOCTYPE svg PUBLIC "-//W3C//DTD SVG 1.1//EN" "http://www.w3.org/Graphics/SVG/1.1/DTD/svg11.dtd">
<svg width="100%" height="100%" viewBox="0 0 20 20" version="1.1" xmlns="http://www.w3.org/2000/svg" xmlns:xlink="http://www.w3.org/1999/xlink" xml:space="preserve" xmlns:serif="http://www.serif.com/" style="fill-rule:evenodd;clip-rule:evenodd;stroke-linejoin:round;stroke-miterlimit:1.41421;">
    <g id="Sardakk" transform="matrix(1.15101,0,0,1.15101,-1.51013,-1.51013)">
        <g transform="matrix(1.67408,0,0,1.04244,-6.47493,-0.936668)">
            <rect x="9.283" y="2.398" width="1.116" height="16.186"/>
        </g>
        <g transform="matrix(1.02508e-16,-1.67408,0.748685,4.58437e-17,2.14525,26.0017)">
            <rect x="9.283" y="2.398" width="1.116" height="16.186"/>
        </g>
        <g transform="matrix(1,0,0,1.065,-0.0512436,-1.72047)">
            <ellipse cx="10.051" cy="10.561" rx="3.741" ry="4.325" style="fill:rgb(255,0,16);"/>
            <path d="M10.1,6.236L10.148,6.237L10.196,6.239L10.244,6.242L10.291,6.245L10.339,6.249L10.386,6.253L10.434,6.258L10.481,6.264L10.527,6.271L10.574,6.278L10.621,6.286L10.667,6.294L10.713,6.304L10.759,6.313L10.805,6.324L10.85,6.335L10.896,6.347L10.941,6.359L10.986,6.372L11.03,6.386L11.075,6.4L11.119,6.415L11.163,6.431L11.207,6.447L11.251,6.463L11.294,6.481L11.337,6.499L11.38,6.517L11.422,6.536L11.465,6.556L11.507,6.576L11.549,6.597L11.59,6.618L11.632,6.64L11.673,6.663L11.754,6.709L11.834,6.758L11.913,6.809L11.99,6.863L12.067,6.918L12.142,6.975L12.216,7.034L12.289,7.096L12.36,7.159L12.43,7.224L12.499,7.291L12.566,7.36L12.632,7.431L12.696,7.503L12.759,7.578L12.82,7.654L12.88,7.731L12.938,7.811L12.994,7.891L13.049,7.974L13.102,8.058L13.153,8.143L13.203,8.231L13.25,8.319L13.296,8.409L13.34,8.5L13.383,8.593L13.423,8.687L13.462,8.782L13.498,8.878L13.533,8.976L13.565,9.074L13.596,9.174L13.624,9.275L13.65,9.377L13.674,9.481L13.696,9.585L13.716,9.69L13.734,9.796L13.749,9.903L13.762,10.01L13.773,10.119L13.781,10.228L13.787,10.338L13.791,10.449L13.792,10.561L13.791,10.672L13.787,10.783L13.781,10.893L13.773,11.003L13.762,11.111L13.749,11.219L13.734,11.326L13.716,11.432L13.696,11.537L13.674,11.641L13.65,11.744L13.624,11.846L13.596,11.947L13.565,12.047L13.533,12.146L13.498,12.244L13.462,12.34L13.423,12.435L13.383,12.529L13.34,12.622L13.296,12.713L13.25,12.803L13.203,12.891L13.153,12.978L13.102,13.064L13.049,13.148L12.994,13.23L12.938,13.311L12.88,13.39L12.82,13.468L12.759,13.544L12.696,13.618L12.632,13.691L12.566,13.762L12.499,13.83L12.43,13.897L12.36,13.963L12.289,14.026L12.216,14.087L12.142,14.147L12.067,14.204L11.99,14.259L11.913,14.312L11.834,14.363L11.754,14.412L11.673,14.459L11.632,14.481L11.59,14.503L11.549,14.525L11.507,14.545L11.465,14.566L11.422,14.585L11.38,14.604L11.337,14.623L11.294,14.641L11.251,14.658L11.207,14.675L11.163,14.691L11.119,14.706L11.075,14.721L11.03,14.736L10.986,14.749L10.941,14.762L10.896,14.775L10.85,14.787L10.805,14.798L10.759,14.808L10.713,14.818L10.667,14.827L10.621,14.836L10.574,14.844L10.527,14.851L10.481,14.857L10.434,14.863L10.386,14.868L10.339,14.873L10.291,14.877L10.244,14.88L10.196,14.882L10.148,14.884L10.1,14.885L10.051,14.886L10.003,14.885L9.955,14.884L9.907,14.882L9.859,14.88L9.811,14.877L9.764,14.873L9.716,14.868L9.669,14.863L9.622,14.857L9.575,14.851L9.528,14.844L9.482,14.836L9.436,14.827L9.389,14.818L9.343,14.808L9.298,14.798L9.252,14.787L9.207,14.775L9.162,14.762L9.117,14.749L9.072,14.736L9.028,14.721L8.983,14.706L8.939,14.691L8.895,14.675L8.852,14.658L8.809,14.641L8.766,14.623L8.723,14.604L8.68,14.585L8.638,14.566L8.596,14.545L8.554,14.525L8.512,14.503L8.471,14.481L8.43,14.459L8.349,14.412L8.269,14.363L8.19,14.312L8.112,14.259L8.035,14.204L7.96,14.147L7.886,14.087L7.814,14.026L7.742,13.963L7.672,13.897L7.604,13.83L7.536,13.762L7.471,13.691L7.406,13.618L7.344,13.544L7.283,13.468L7.223,13.39L7.165,13.311L7.109,13.23L7.054,13.148L7.001,13.064L6.949,12.978L6.9,12.891L6.852,12.803L6.806,12.713L6.762,12.622L6.72,12.529L6.679,12.435L6.641,12.34L6.604,12.244L6.57,12.146L6.537,12.047L6.507,11.947L6.479,11.846L6.452,11.744L6.428,11.641L6.406,11.537L6.386,11.432L6.369,11.326L6.353,11.219L6.34,11.111L6.33,11.003L6.321,10.893L6.315,10.783L6.311,10.672L6.31,10.561L6.311,10.449L6.315,10.338L6.321,10.228L6.33,10.119L6.34,10.01L6.353,9.903L6.369,9.796L6.386,9.69L6.406,9.585L6.428,9.481L6.452,9.377L6.479,9.275L6.507,9.174L6.537,9.074L6.57,8.976L6.604,8.878L6.641,8.782L6.679,8.687L6.72,8.593L6.762,8.5L6.806,8.409L6.852,8.319L6.9,8.231L6.949,8.143L7.001,8.058L7.054,7.974L7.109,7.891L7.165,7.811L7.223,7.731L7.283,7.654L7.344,7.578L7.406,7.503L7.471,7.431L7.536,7.36L7.604,7.291L7.672,7.224L7.742,7.159L7.814,7.096L7.886,7.034L7.96,6.975L8.035,6.918L8.112,6.863L8.19,6.809L8.269,6.758L8.349,6.709L8.43,6.663L8.471,6.64L8.512,6.618L8.554,6.597L8.596,6.576L8.638,6.556L8.68,6.536L8.723,6.517L8.766,6.499L8.809,6.481L8.852,6.463L8.895,6.447L8.939,6.431L8.983,6.415L9.028,6.4L9.072,6.386L9.117,6.372L9.162,6.359L9.207,6.347L9.252,6.335L9.298,6.324L9.343,6.313L9.389,6.304L9.436,6.294L9.482,6.286L9.528,6.278L9.575,6.271L9.622,6.264L9.669,6.258L9.716,6.253L9.764,6.249L9.811,6.245L9.859,6.242L9.907,6.239L9.955,6.237L10.003,6.236L10.051,6.236L10.1,6.236ZM10.023,7.46L9.995,7.461L9.968,7.462L9.94,7.463L9.913,7.465L9.885,7.467L9.858,7.47L9.831,7.473L9.804,7.476L9.777,7.48L9.75,7.484L9.723,7.488L9.696,7.493L9.67,7.499L9.643,7.504L9.616,7.511L9.59,7.517L9.563,7.524L9.537,7.531L9.511,7.539L9.484,7.547L9.458,7.555L9.432,7.564L9.406,7.573L9.38,7.583L9.353,7.593L9.327,7.603L9.301,7.614L9.275,7.625L9.25,7.637L9.224,7.649L9.198,7.661L9.172,7.674L9.146,7.687L9.121,7.701L9.099,7.713L9.044,7.744L8.993,7.775L8.943,7.808L8.893,7.842L8.843,7.878L8.794,7.916L8.745,7.955L8.696,7.996L8.648,8.038L8.601,8.082L8.554,8.128L8.508,8.176L8.463,8.224L8.418,8.275L8.374,8.327L8.331,8.38L8.289,8.435L8.247,8.492L8.207,8.55L8.168,8.609L8.129,8.67L8.092,8.732L8.056,8.796L8.021,8.861L7.987,8.927L7.954,8.994L7.923,9.063L7.893,9.133L7.864,9.204L7.837,9.276L7.811,9.349L7.786,9.424L7.763,9.499L7.742,9.575L7.722,9.653L7.704,9.731L7.687,9.81L7.672,9.891L7.658,9.972L7.647,10.053L7.637,10.136L7.628,10.22L7.622,10.304L7.617,10.389L7.614,10.474L7.613,10.561L7.614,10.647L7.617,10.733L7.622,10.818L7.628,10.902L7.637,10.985L7.647,11.068L7.658,11.15L7.672,11.231L7.687,11.311L7.704,11.391L7.722,11.469L7.742,11.546L7.763,11.623L7.786,11.698L7.811,11.772L7.837,11.846L7.864,11.918L7.893,11.989L7.923,12.059L7.954,12.127L7.987,12.195L8.021,12.261L8.056,12.326L8.092,12.389L8.129,12.451L8.168,12.512L8.207,12.572L8.247,12.63L8.289,12.686L8.331,12.741L8.374,12.795L8.418,12.847L8.463,12.897L8.508,12.946L8.554,12.993L8.601,13.039L8.648,13.083L8.696,13.126L8.745,13.167L8.794,13.206L8.843,13.243L8.893,13.279L8.943,13.314L8.993,13.346L9.044,13.377L9.099,13.409L9.121,13.421L9.146,13.434L9.172,13.447L9.198,13.46L9.224,13.473L9.25,13.485L9.275,13.496L9.301,13.508L9.327,13.518L9.353,13.529L9.38,13.539L9.406,13.548L9.432,13.558L9.458,13.566L9.484,13.575L9.511,13.583L9.537,13.59L9.563,13.598L9.59,13.605L9.616,13.611L9.643,13.617L9.67,13.623L9.696,13.628L9.723,13.633L9.75,13.638L9.777,13.642L9.804,13.646L9.831,13.649L9.858,13.652L9.885,13.655L9.913,13.657L9.94,13.659L9.968,13.66L9.995,13.661L10.023,13.662L10.051,13.662L10.079,13.662L10.107,13.661L10.135,13.66L10.162,13.659L10.19,13.657L10.217,13.655L10.244,13.652L10.272,13.649L10.299,13.646L10.326,13.642L10.353,13.638L10.379,13.633L10.406,13.628L10.433,13.623L10.46,13.617L10.486,13.611L10.513,13.605L10.539,13.598L10.565,13.59L10.592,13.583L10.618,13.575L10.644,13.566L10.671,13.558L10.697,13.548L10.723,13.539L10.749,13.529L10.775,13.518L10.801,13.508L10.827,13.496L10.853,13.485L10.879,13.473L10.905,13.46L10.93,13.447L10.956,13.434L10.982,13.421L11.003,13.409L11.058,13.377L11.109,13.346L11.159,13.314L11.21,13.279L11.259,13.243L11.309,13.206L11.358,13.167L11.406,13.126L11.454,13.083L11.501,13.039L11.548,12.993L11.594,12.946L11.64,12.897L11.684,12.847L11.728,12.795L11.771,12.741L11.814,12.686L11.855,12.63L11.895,12.572L11.935,12.512L11.973,12.451L12.011,12.389L12.047,12.326L12.082,12.261L12.116,12.195L12.148,12.127L12.18,12.059L12.21,11.989L12.238,11.918L12.266,11.846L12.292,11.772L12.316,11.698L12.339,11.623L12.36,11.546L12.38,11.469L12.399,11.391L12.416,11.311L12.431,11.231L12.444,11.15L12.456,11.068L12.466,10.985L12.474,10.902L12.481,10.818L12.485,10.733L12.488,10.647L12.489,10.561L12.488,10.474L12.485,10.389L12.481,10.304L12.474,10.22L12.466,10.136L12.456,10.053L12.444,9.972L12.431,9.891L12.416,9.81L12.399,9.731L12.38,9.653L12.36,9.575L12.339,9.499L12.316,9.424L12.292,9.349L12.266,9.276L12.238,9.204L12.21,9.133L12.18,9.063L12.148,8.994L12.116,8.927L12.082,8.861L12.047,8.796L12.011,8.732L11.973,8.67L11.935,8.609L11.895,8.55L11.855,8.492L11.814,8.435L11.771,8.38L11.728,8.327L11.684,8.275L11.64,8.224L11.594,8.176L11.548,8.128L11.501,8.082L11.454,8.038L11.406,7.996L11.358,7.955L11.309,7.916L11.259,7.878L11.21,7.842L11.16,7.808L11.109,7.775L11.058,7.744L11.003,7.713L10.982,7.701L10.956,7.687L10.93,7.674L10.905,7.661L10.879,7.649L10.853,7.637L10.827,7.625L10.801,7.614L10.775,7.603L10.749,7.593L10.723,7.583L10.697,7.573L10.671,7.564L10.644,7.555L10.618,7.547L10.592,7.539L10.565,7.531L10.539,7.524L10.513,7.517L10.486,7.511L10.46,7.504L10.433,7.499L10.406,7.493L10.379,7.488L10.353,7.484L10.326,7.48L10.299,7.476L10.272,7.473L10.244,7.47L10.217,7.467L10.19,7.465L10.162,7.463L10.135,7.462L10.107,7.461L10.079,7.46L10.051,7.46L10.023,7.46Z"/>
        </g>
    </g>
</svg>
