<?xml version="1.0" encoding="UTF-8" standalone="no"?>
<!DOCTYPE svg PUBLIC "-//W3C//DTD SVG 1.1//EN" "http://www.w3.org/Graphics/SVG/1.1/DTD/svg11.dtd">
<svg width="100%" height="100%" viewBox="0 0 20 20" version="1.1" xmlns="http://www.w3.org/2000/svg" xmlns:xlink="http://www.w3.org/1999/xlink" xml:space="preserve" xmlns:serif="http://www.serif.com/" style="fill-rule:evenodd;clip-rule:evenodd;stroke-linejoin:round;">
    <g id="Letnev" transform="matrix(0.97,0,0,0.97,0.3,0.3)">
        <g id="path4116" transform="matrix(0.103043,0,0,0.103043,-28.8887,-19.2793)">
            <path d="M280.357,283.791L307.5,275.576L335.714,256.648L348.571,243.791L365,219.862L376.071,187.362L385.357,219.862L402.5,243.791L417.143,255.934L443.214,273.791L474.452,283.434L443.676,293.452L416.429,309.505L401.342,325.219L385.776,349.061L376.071,380.934L365.235,349.714L349.286,326.291L334.372,310.219L308.715,292.754L280.357,283.791Z" style="fill:rgb(61,8,11);fill-rule:nonzero;stroke:black;stroke-width:2.91px;"/>
        </g>
        <g id="path4119" transform="matrix(0.103043,0,0,0.103043,-28.8887,-19.2793)">
            <path d="M375,239.505L407.857,249.505L420.714,283.791L410.714,315.576L375.357,328.076L345,318.076L330,283.434L345.357,247.362L375,239.505Z" style="fill-rule:nonzero;stroke:black;stroke-width:1px;"/>
        </g>
        <g id="pikes">
            <path id="path4898" d="M4.756,16.019L3.836,15.065L7.521,11.334L6.777,10.839L6.533,8.613L9.22,11.261L4.756,16.019ZM15.884,15.045L14.929,15.965L11.201,12.277L10.705,12.812L8.687,13.081L11.129,10.578L15.884,15.045ZM14.933,3.832L15.843,4.795L12.122,8.49L12.653,8.991L12.904,11.011L10.423,8.547L14.933,3.832ZM3.661,4.864L4.63,3.96L8.3,7.705L8.768,7.03L11.213,6.738L8.346,9.405L3.661,4.864Z" style="fill:rgb(228,67,21);fill-rule:nonzero;stroke:black;stroke-width:0.3px;"/>
        </g>
    </g>
</svg>
