<?xml version="1.0" encoding="UTF-8" standalone="no"?>
<!DOCTYPE svg PUBLIC "-//W3C//DTD SVG 1.1//EN" "http://www.w3.org/Graphics/SVG/1.1/DTD/svg11.dtd">
<svg width="100%" height="100%" viewBox="0 0 20 20" version="1.1" xmlns="http://www.w3.org/2000/svg" xmlns:xlink="http://www.w3.org/1999/xlink" xml:space="preserve" xmlns:serif="http://www.serif.com/" style="fill-rule:evenodd;clip-rule:evenodd;stroke-linejoin:round;stroke-miterlimit:1.41421;">
    <g transform="matrix(1.23091,0,0,1.23091,-2.28056,-1.07813)">
        <g id="Nekro-Virus" serif:id="Nekro Virus">
            <g>
                <path d="M7.958,9.963C7.84,9.545 7.675,8.989 7.559,8.73C7.408,8.394 7.143,8.076 6.911,7.836C6.696,7.615 6.161,7.294 6.161,7.294C6.161,7.294 6.339,6.025 6.317,5.465C6.296,4.946 6.227,4.3 6.03,3.932C5.853,3.603 5.451,3.309 5.133,3.26C4.815,3.211 4.124,3.638 4.124,3.638C4.124,3.638 4.737,2.514 5.11,2.287C5.467,2.069 5.97,2.136 6.364,2.274C6.806,2.429 7.288,3.163 7.761,3.216C8.234,3.268 8.813,2.912 9.201,2.589C9.59,2.266 10.092,1.276 10.092,1.276C10.092,1.276 10.71,2.252 11.04,2.502C11.325,2.718 12.077,2.78 12.077,2.78L9.696,8.675C9.696,8.675 9.709,9.587 9.71,10.042L9.711,10.078C9.799,10.069 9.879,10.056 9.947,10.039C10.379,9.932 10.598,9.335 10.813,9.025C10.993,8.766 11.237,8.179 11.237,8.179C11.237,8.179 11.359,8.499 11.497,8.577C11.694,8.688 12.097,8.874 12.415,8.846C12.812,8.81 13.511,8.627 13.882,8.362C14.246,8.103 14.559,7.669 14.641,7.258C14.723,6.846 14.374,5.892 14.374,5.892C14.374,5.892 15.102,6.165 15.38,6.413C15.657,6.661 15.943,7.003 16.038,7.381C16.154,7.838 16.05,8.68 16.071,9.154C16.088,9.512 16.169,10.224 16.169,10.224L17.725,11.49L16.516,13.602C16.516,13.602 14.691,12.921 13.757,12.737C12.823,12.553 10.91,12.497 10.91,12.497L10.306,12.029C10.306,12.029 10.043,12.238 9.721,12.434C9.721,12.854 9.718,13.243 9.712,13.532C9.7,14.126 9.71,14.78 9.599,15.312C9.496,15.807 9.044,16.724 9.044,16.724C9.044,16.724 8.825,15.267 8.629,14.615C8.455,14.037 7.95,12.983 7.876,12.831C6.322,12.88 3.963,12.844 3.086,12.799C2.774,12.782 2.228,12.421 2.228,12.421C2.228,12.421 4.007,12.025 4.569,11.809C4.956,11.661 5.317,11.395 5.605,11.126C5.887,10.861 6.203,10.568 6.294,10.192C6.387,9.812 6.16,8.845 6.16,8.845C6.16,8.845 6.956,9.682 7.485,9.848C7.618,9.89 7.78,9.929 7.958,9.963Z" style="fill:rgb(162,57,60);"/>
                <path d="M10.117,1.033L10.153,1.04L10.187,1.051L10.22,1.068L10.249,1.089L10.275,1.115L10.297,1.144L10.324,1.186L10.397,1.298L10.448,1.374L10.506,1.46L10.571,1.554L10.641,1.654L10.714,1.755L10.79,1.858L10.828,1.907L10.866,1.956L10.903,2.004L10.941,2.05L10.977,2.094L11.013,2.135L11.048,2.174L11.081,2.209L11.112,2.241L11.14,2.268L11.166,2.29L11.187,2.308L11.203,2.319L11.222,2.33L11.244,2.343L11.27,2.356L11.299,2.368L11.33,2.381L11.363,2.393L11.398,2.405L11.435,2.417L11.473,2.428L11.512,2.438L11.551,2.448L11.591,2.458L11.631,2.466L11.711,2.483L11.788,2.496L11.86,2.508L11.926,2.517L11.984,2.525L12.068,2.534L12.099,2.537L12.136,2.543L12.172,2.555L12.206,2.573L12.236,2.595L12.263,2.622L12.285,2.653L12.302,2.687L12.313,2.722L12.319,2.76L12.32,2.798L12.314,2.835L12.303,2.871L9.94,8.721L9.946,9.185L9.951,9.634L9.952,9.779L9.956,9.777L9.968,9.771L9.979,9.765L9.99,9.759L10,9.752L10.025,9.735L10.048,9.717L10.072,9.697L10.095,9.675L10.119,9.651L10.143,9.625L10.166,9.597L10.19,9.568L10.213,9.537L10.236,9.505L10.259,9.472L10.282,9.437L10.304,9.402L10.349,9.329L10.393,9.254L10.436,9.178L10.479,9.103L10.523,9.028L10.566,8.957L10.59,8.921L10.611,8.888L10.627,8.866L10.641,8.844L10.673,8.791L10.706,8.733L10.74,8.67L10.774,8.604L10.807,8.536L10.84,8.468L10.871,8.402L10.928,8.279L10.972,8.178L11.013,8.083L11.03,8.049L11.053,8.019L11.081,7.992L11.112,7.97L11.146,7.953L11.183,7.942L11.221,7.936L11.259,7.936L11.297,7.943L11.333,7.955L11.367,7.973L11.397,7.996L11.424,8.023L11.446,8.055L11.463,8.089L11.468,8.1L11.481,8.132L11.503,8.18L11.516,8.206L11.53,8.234L11.546,8.262L11.561,8.288L11.577,8.313L11.594,8.336L11.6,8.344L11.606,8.352L11.612,8.358L11.621,8.367L11.652,8.384L11.691,8.405L11.735,8.426L11.781,8.448L11.831,8.471L11.882,8.492L11.935,8.513L11.99,8.533L12.046,8.551L12.073,8.559L12.1,8.567L12.127,8.574L12.154,8.581L12.181,8.586L12.208,8.591L12.233,8.596L12.259,8.599L12.283,8.602L12.307,8.604L12.33,8.605L12.352,8.605L12.373,8.604L12.394,8.603L12.427,8.6L12.462,8.595L12.5,8.59L12.539,8.585L12.622,8.571L12.71,8.554L12.802,8.534L12.896,8.511L12.943,8.498L12.991,8.485L13.039,8.471L13.087,8.457L13.135,8.442L13.182,8.426L13.229,8.41L13.276,8.393L13.321,8.376L13.366,8.359L13.411,8.34L13.454,8.322L13.495,8.303L13.536,8.284L13.575,8.264L13.612,8.244L13.647,8.224L13.68,8.204L13.712,8.184L13.741,8.164L13.77,8.143L13.799,8.12L13.828,8.097L13.857,8.073L13.885,8.048L13.913,8.022L13.941,7.995L13.969,7.968L13.995,7.94L14.022,7.911L14.048,7.882L14.073,7.852L14.097,7.822L14.121,7.791L14.145,7.759L14.167,7.728L14.189,7.696L14.21,7.664L14.23,7.631L14.249,7.598L14.268,7.566L14.285,7.533L14.302,7.5L14.317,7.467L14.331,7.434L14.345,7.401L14.357,7.369L14.368,7.336L14.378,7.304L14.387,7.272L14.395,7.241L14.402,7.21L14.404,7.199L14.406,7.187L14.407,7.173L14.408,7.16L14.41,7.125L14.409,7.087L14.407,7.045L14.404,7.001L14.399,6.954L14.393,6.905L14.385,6.854L14.376,6.802L14.365,6.749L14.354,6.696L14.342,6.642L14.33,6.589L14.316,6.535L14.303,6.483L14.275,6.381L14.247,6.286L14.22,6.199L14.196,6.123L14.175,6.061L14.159,6.014L14.144,5.973L14.135,5.938L14.13,5.901L14.132,5.864L14.139,5.828L14.151,5.793L14.169,5.76L14.191,5.731L14.218,5.705L14.248,5.684L14.281,5.667L14.316,5.655L14.352,5.649L14.389,5.649L14.426,5.654L14.461,5.664L14.495,5.677L14.584,5.713L14.645,5.738L14.715,5.767L14.792,5.801L14.874,5.838L14.961,5.878L15.049,5.921L15.137,5.966L15.182,5.99L15.225,6.015L15.268,6.039L15.311,6.065L15.352,6.091L15.393,6.117L15.432,6.144L15.47,6.172L15.507,6.201L15.541,6.23L15.598,6.283L15.654,6.336L15.71,6.392L15.765,6.45L15.82,6.511L15.873,6.574L15.924,6.638L15.95,6.672L15.975,6.706L15.999,6.74L16.023,6.775L16.046,6.81L16.069,6.846L16.091,6.883L16.112,6.92L16.133,6.958L16.152,6.996L16.171,7.035L16.189,7.074L16.206,7.114L16.222,7.154L16.237,7.195L16.251,7.237L16.263,7.279L16.275,7.322L16.287,7.374L16.298,7.428L16.306,7.483L16.314,7.539L16.32,7.596L16.325,7.654L16.329,7.713L16.333,7.773L16.335,7.833L16.336,7.894L16.337,7.956L16.338,8.018L16.336,8.143L16.334,8.268L16.33,8.392L16.325,8.514L16.317,8.749L16.314,8.859L16.312,8.962L16.313,9.058L16.313,9.101L16.315,9.143L16.319,9.21L16.324,9.286L16.33,9.366L16.337,9.451L16.352,9.627L16.369,9.799L16.385,9.954L16.399,10.081L16.401,10.098L17.879,11.301L17.907,11.327L17.93,11.358L17.948,11.391L17.961,11.427L17.968,11.464L17.969,11.502L17.964,11.54L17.953,11.577L17.937,11.611L16.727,13.723L16.706,13.754L16.68,13.782L16.65,13.805L16.617,13.823L16.581,13.836L16.544,13.844L16.506,13.845L16.468,13.84L16.432,13.83L16.352,13.801L16.134,13.722L15.983,13.668L15.809,13.607L15.616,13.54L15.409,13.469L15.191,13.396L14.966,13.323L14.739,13.252L14.626,13.217L14.513,13.183L14.402,13.151L14.293,13.12L14.186,13.09L14.083,13.063L13.983,13.037L13.887,13.014L13.796,12.994L13.71,12.976L13.624,12.96L13.532,12.944L13.435,12.929L13.334,12.915L13.228,12.901L13.119,12.888L13.008,12.876L12.894,12.864L12.778,12.853L12.662,12.842L12.544,12.832L12.427,12.823L12.194,12.806L11.968,12.791L11.753,12.778L11.552,12.767L11.371,12.759L11.214,12.752L10.986,12.743L10.902,12.74L10.865,12.736L10.828,12.726L10.793,12.71L10.761,12.689L10.304,12.336L10.277,12.355L10.187,12.419L10.085,12.49L10.029,12.527L9.97,12.565L9.964,12.569L9.964,12.743L9.962,13.034L9.96,13.301L9.956,13.536L9.952,13.761L9.949,13.99L9.944,14.222L9.941,14.339L9.936,14.455L9.931,14.572L9.924,14.688L9.915,14.803L9.905,14.918L9.892,15.03L9.884,15.087L9.877,15.143L9.868,15.198L9.859,15.253L9.849,15.308L9.838,15.363L9.826,15.416L9.811,15.472L9.796,15.528L9.779,15.586L9.76,15.645L9.74,15.704L9.719,15.765L9.698,15.826L9.652,15.947L9.604,16.068L9.555,16.186L9.507,16.3L9.459,16.408L9.415,16.508L9.374,16.598L9.337,16.677L9.284,16.789L9.264,16.831L9.244,16.864L9.22,16.894L9.191,16.919L9.158,16.94L9.122,16.955L9.085,16.965L9.047,16.968L9.008,16.965L8.97,16.957L8.935,16.942L8.902,16.922L8.872,16.897L8.847,16.868L8.827,16.835L8.812,16.799L8.803,16.761L8.794,16.698L8.766,16.525L8.724,16.269L8.699,16.119L8.67,15.957L8.64,15.788L8.607,15.615L8.573,15.441L8.538,15.27L8.502,15.105L8.484,15.027L8.466,14.951L8.448,14.878L8.431,14.809L8.413,14.745L8.396,14.686L8.38,14.634L8.362,14.579L8.342,14.522L8.321,14.462L8.298,14.4L8.274,14.337L8.222,14.204L8.167,14.069L8.109,13.932L8.051,13.796L7.992,13.662L7.935,13.533L7.879,13.412L7.78,13.196L7.725,13.079L7.582,13.083L7.264,13.09L6.935,13.094L6.597,13.097L6.253,13.098L5.908,13.098L5.564,13.097L5.225,13.094L4.893,13.09L4.573,13.086L4.267,13.08L3.98,13.074L3.713,13.067L3.471,13.059L3.257,13.051L3.07,13.042L3.029,13.038L2.985,13.032L2.942,13.024L2.899,13.014L2.857,13.003L2.816,12.99L2.775,12.976L2.734,12.961L2.693,12.945L2.653,12.928L2.614,12.911L2.574,12.893L2.499,12.857L2.427,12.82L2.359,12.783L2.297,12.748L2.24,12.715L2.191,12.686L2.122,12.643L2.096,12.626L2.066,12.603L2.04,12.575L2.018,12.544L2.001,12.51L1.99,12.473L1.985,12.436L1.986,12.398L1.992,12.36L2.005,12.324L2.023,12.29L2.046,12.26L2.073,12.234L2.104,12.212L2.138,12.195L2.175,12.184L2.252,12.166L2.46,12.119L2.765,12.047L2.942,12.005L3.13,11.959L3.324,11.911L3.521,11.862L3.715,11.811L3.902,11.761L4.077,11.711L4.159,11.688L4.236,11.664L4.307,11.642L4.373,11.62L4.431,11.6L4.483,11.581L4.514,11.569L4.546,11.555L4.579,11.542L4.611,11.527L4.643,11.512L4.674,11.497L4.738,11.463L4.801,11.428L4.864,11.391L4.926,11.352L4.987,11.311L5.048,11.269L5.107,11.226L5.165,11.181L5.223,11.136L5.279,11.09L5.333,11.043L5.387,10.996L5.439,10.947L5.544,10.848L5.596,10.799L5.646,10.749L5.696,10.698L5.744,10.648L5.789,10.597L5.833,10.545L5.853,10.521L5.873,10.495L5.892,10.47L5.91,10.444L5.927,10.418L5.944,10.393L5.96,10.367L5.974,10.341L5.988,10.315L6.001,10.29L6.013,10.264L6.024,10.238L6.034,10.212L6.042,10.187L6.05,10.161L6.057,10.134L6.06,10.124L6.062,10.114L6.066,10.084L6.069,10.052L6.071,10.015L6.072,9.974L6.072,9.93L6.071,9.884L6.069,9.835L6.066,9.785L6.061,9.733L6.056,9.68L6.05,9.627L6.044,9.573L6.037,9.52L6.021,9.413L6.004,9.311L5.987,9.215L5.97,9.127L5.955,9.051L5.931,8.939L5.922,8.899L5.917,8.862L5.917,8.825L5.923,8.788L5.934,8.753L5.951,8.719L5.972,8.689L5.998,8.662L6.028,8.64L6.061,8.622L6.095,8.61L6.132,8.603L6.169,8.601L6.206,8.606L6.242,8.615L6.276,8.63L6.307,8.65L6.335,8.675L6.369,8.71L6.409,8.751L6.463,8.804L6.529,8.868L6.606,8.94L6.691,9.018L6.784,9.1L6.832,9.142L6.882,9.183L6.933,9.225L6.984,9.266L7.036,9.307L7.088,9.346L7.141,9.384L7.192,9.42L7.244,9.454L7.294,9.486L7.343,9.516L7.391,9.542L7.438,9.567L7.459,9.577L7.481,9.586L7.501,9.595L7.521,9.603L7.54,9.61L7.559,9.616L7.605,9.63L7.608,9.631L7.577,9.528L7.525,9.36L7.499,9.279L7.474,9.2L7.448,9.125L7.424,9.055L7.4,8.989L7.377,8.929L7.356,8.876L7.336,8.829L7.324,8.803L7.311,8.776L7.282,8.72L7.252,8.665L7.219,8.61L7.184,8.555L7.148,8.501L7.11,8.447L7.071,8.394L7.03,8.341L6.989,8.29L6.947,8.239L6.905,8.19L6.863,8.142L6.82,8.095L6.778,8.05L6.737,8.007L6.72,7.99L6.701,7.973L6.681,7.954L6.659,7.936L6.609,7.894L6.555,7.852L6.497,7.809L6.438,7.766L6.378,7.724L6.319,7.684L6.262,7.646L6.21,7.612L6.118,7.554L6.057,7.516L6.035,7.502L6.006,7.481L5.98,7.457L5.959,7.429L5.941,7.398L5.929,7.366L5.921,7.331L5.918,7.296L5.92,7.261L5.927,7.206L5.947,7.056L5.974,6.834L5.99,6.703L6.005,6.563L6.02,6.417L6.035,6.268L6.048,6.118L6.059,5.971L6.067,5.829L6.07,5.762L6.073,5.697L6.074,5.635L6.075,5.577L6.075,5.524L6.073,5.474L6.069,5.378L6.063,5.28L6.057,5.18L6.048,5.08L6.039,4.979L6.027,4.878L6.014,4.779L5.999,4.68L5.991,4.633L5.982,4.586L5.973,4.539L5.964,4.493L5.954,4.449L5.943,4.405L5.932,4.362L5.921,4.321L5.909,4.281L5.897,4.242L5.884,4.205L5.871,4.17L5.857,4.137L5.843,4.105L5.829,4.075L5.815,4.047L5.802,4.024L5.788,4.001L5.772,3.977L5.756,3.953L5.738,3.929L5.719,3.906L5.7,3.882L5.679,3.859L5.658,3.835L5.635,3.813L5.612,3.79L5.589,3.768L5.564,3.747L5.54,3.726L5.514,3.706L5.489,3.686L5.463,3.668L5.437,3.65L5.41,3.632L5.384,3.616L5.358,3.601L5.331,3.586L5.305,3.573L5.28,3.56L5.254,3.549L5.229,3.539L5.205,3.529L5.181,3.521L5.158,3.515L5.137,3.509L5.116,3.504L5.096,3.501L5.092,3.5L5.088,3.5L5.082,3.5L5.076,3.5L5.055,3.501L5.033,3.503L5.006,3.508L4.977,3.514L4.946,3.522L4.912,3.532L4.877,3.543L4.841,3.555L4.803,3.569L4.765,3.584L4.727,3.6L4.689,3.616L4.651,3.633L4.614,3.651L4.541,3.687L4.473,3.722L4.411,3.755L4.356,3.785L4.312,3.81L4.279,3.83L4.25,3.847L4.216,3.864L4.18,3.875L4.143,3.881L4.106,3.881L4.069,3.876L4.033,3.865L3.999,3.848L3.969,3.826L3.942,3.8L3.919,3.77L3.901,3.737L3.889,3.702L3.882,3.665L3.88,3.628L3.885,3.59L3.895,3.554L3.911,3.52L3.938,3.47L3.971,3.412L4.015,3.337L4.068,3.246L4.129,3.144L4.198,3.033L4.272,2.916L4.311,2.856L4.352,2.795L4.393,2.735L4.435,2.674L4.477,2.614L4.521,2.555L4.564,2.498L4.608,2.442L4.653,2.387L4.698,2.335L4.743,2.285L4.788,2.238L4.834,2.194L4.858,2.172L4.882,2.152L4.906,2.132L4.931,2.113L4.957,2.096L4.984,2.079L5.027,2.053L5.072,2.03L5.117,2.009L5.163,1.991L5.209,1.974L5.256,1.959L5.303,1.946L5.35,1.935L5.398,1.926L5.445,1.918L5.493,1.912L5.54,1.908L5.588,1.905L5.636,1.903L5.683,1.903L5.731,1.904L5.778,1.906L5.825,1.909L5.872,1.913L5.918,1.918L5.964,1.925L6.01,1.932L6.056,1.94L6.101,1.949L6.146,1.958L6.19,1.969L6.234,1.98L6.277,1.991L6.32,2.004L6.362,2.017L6.404,2.03L6.446,2.045L6.473,2.055L6.501,2.066L6.529,2.078L6.557,2.092L6.609,2.119L6.66,2.15L6.71,2.182L6.759,2.216L6.807,2.252L6.854,2.289L6.901,2.326L6.947,2.365L6.992,2.404L7.037,2.444L7.126,2.523L7.213,2.601L7.299,2.677L7.34,2.712L7.382,2.747L7.423,2.779L7.463,2.81L7.502,2.839L7.54,2.865L7.577,2.888L7.614,2.91L7.63,2.919L7.647,2.927L7.663,2.935L7.679,2.942L7.695,2.949L7.71,2.954L7.724,2.959L7.738,2.963L7.751,2.967L7.764,2.97L7.776,2.972L7.787,2.973L7.82,2.976L7.852,2.977L7.887,2.976L7.922,2.974L7.958,2.97L7.996,2.965L8.034,2.957L8.073,2.948L8.113,2.938L8.154,2.926L8.195,2.912L8.237,2.897L8.279,2.881L8.321,2.863L8.364,2.844L8.406,2.824L8.449,2.803L8.492,2.78L8.534,2.757L8.577,2.733L8.619,2.707L8.661,2.682L8.702,2.655L8.743,2.628L8.784,2.601L8.823,2.573L8.863,2.544L8.901,2.516L8.938,2.487L8.975,2.459L9.045,2.402L9.059,2.39L9.072,2.378L9.103,2.348L9.135,2.315L9.168,2.279L9.202,2.239L9.237,2.196L9.273,2.15L9.308,2.103L9.344,2.053L9.38,2.002L9.415,1.95L9.45,1.898L9.485,1.844L9.518,1.791L9.584,1.685L9.645,1.582L9.701,1.485L9.751,1.397L9.793,1.319L9.828,1.254L9.854,1.206L9.875,1.164L9.895,1.133L9.918,1.105L9.945,1.081L9.976,1.061L10.009,1.046L10.044,1.036L10.081,1.032L10.117,1.033ZM10.07,1.319L10.043,1.369L10.007,1.435L9.964,1.515L9.913,1.606L9.855,1.705L9.792,1.811L9.725,1.92L9.69,1.976L9.654,2.031L9.617,2.086L9.58,2.141L9.542,2.195L9.504,2.247L9.466,2.298L9.428,2.348L9.39,2.395L9.351,2.44L9.313,2.482L9.275,2.521L9.238,2.557L9.22,2.573L9.201,2.589L9.126,2.65L9.087,2.68L9.047,2.711L9.007,2.741L8.965,2.771L8.922,2.801L8.879,2.831L8.835,2.86L8.79,2.888L8.745,2.916L8.7,2.943L8.654,2.969L8.607,2.995L8.56,3.02L8.513,3.043L8.465,3.066L8.418,3.087L8.37,3.107L8.322,3.126L8.274,3.143L8.226,3.159L8.179,3.173L8.131,3.185L8.083,3.196L8.036,3.205L7.989,3.212L7.943,3.217L7.897,3.22L7.851,3.221L7.806,3.219L7.761,3.216L7.739,3.213L7.717,3.209L7.694,3.204L7.672,3.198L7.65,3.191L7.628,3.184L7.606,3.176L7.583,3.166L7.561,3.156L7.539,3.146L7.517,3.135L7.494,3.122L7.45,3.096L7.405,3.068L7.361,3.038L7.316,3.005L7.272,2.971L7.228,2.935L7.183,2.899L7.139,2.861L7.051,2.783L6.963,2.704L6.876,2.626L6.832,2.588L6.789,2.551L6.745,2.514L6.702,2.479L6.659,2.446L6.617,2.414L6.574,2.384L6.532,2.357L6.489,2.332L6.447,2.31L6.427,2.3L6.406,2.29L6.385,2.282L6.364,2.274L6.327,2.261L6.289,2.249L6.251,2.237L6.212,2.226L6.172,2.215L6.133,2.205L6.092,2.196L6.052,2.187L6.011,2.179L5.97,2.172L5.929,2.166L5.888,2.16L5.847,2.155L5.806,2.152L5.764,2.149L5.723,2.147L5.682,2.146L5.641,2.147L5.6,2.148L5.56,2.151L5.52,2.155L5.48,2.16L5.44,2.166L5.401,2.174L5.363,2.183L5.325,2.193L5.287,2.205L5.25,2.218L5.214,2.233L5.179,2.249L5.144,2.267L5.11,2.287L5.093,2.298L5.075,2.311L5.056,2.325L5.038,2.339L5.019,2.356L5,2.373L4.961,2.41L4.921,2.451L4.881,2.496L4.84,2.544L4.799,2.594L4.757,2.647L4.716,2.701L4.675,2.757L4.634,2.814L4.594,2.872L4.554,2.931L4.515,2.99L4.477,3.048L4.404,3.162L4.338,3.271L4.277,3.371L4.225,3.459L4.183,3.533L4.151,3.59L4.124,3.638L4.154,3.62L4.19,3.599L4.237,3.572L4.294,3.541L4.359,3.506L4.432,3.469L4.509,3.431L4.55,3.412L4.591,3.393L4.632,3.375L4.674,3.358L4.716,3.341L4.758,3.326L4.8,3.311L4.841,3.298L4.882,3.287L4.922,3.277L4.961,3.268L4.998,3.262L5.035,3.258L5.069,3.256L5.086,3.256L5.102,3.257L5.118,3.258L5.133,3.26L5.163,3.265L5.194,3.272L5.224,3.28L5.256,3.289L5.287,3.3L5.319,3.312L5.35,3.325L5.382,3.339L5.414,3.355L5.446,3.371L5.478,3.389L5.51,3.407L5.541,3.427L5.573,3.447L5.604,3.469L5.634,3.491L5.665,3.514L5.694,3.538L5.724,3.562L5.752,3.588L5.78,3.614L5.808,3.64L5.834,3.667L5.86,3.695L5.885,3.723L5.909,3.752L5.932,3.781L5.954,3.811L5.974,3.841L5.994,3.871L6.013,3.901L6.03,3.932L6.048,3.967L6.065,4.004L6.082,4.042L6.098,4.082L6.113,4.123L6.128,4.166L6.142,4.209L6.155,4.254L6.168,4.299L6.18,4.346L6.191,4.393L6.202,4.442L6.212,4.491L6.222,4.54L6.231,4.591L6.24,4.642L6.255,4.744L6.269,4.849L6.281,4.953L6.291,5.058L6.3,5.162L6.307,5.265L6.312,5.366L6.317,5.465L6.318,5.519L6.319,5.578L6.318,5.64L6.316,5.704L6.314,5.772L6.311,5.842L6.302,5.987L6.291,6.137L6.277,6.29L6.263,6.441L6.247,6.589L6.232,6.731L6.216,6.863L6.189,7.087L6.169,7.238L6.161,7.294L6.185,7.308L6.248,7.347L6.342,7.407L6.397,7.443L6.455,7.482L6.517,7.524L6.579,7.567L6.642,7.612L6.703,7.658L6.762,7.704L6.817,7.749L6.842,7.772L6.867,7.794L6.889,7.815L6.911,7.836L6.955,7.882L6.999,7.93L7.044,7.979L7.089,8.03L7.134,8.082L7.178,8.136L7.222,8.191L7.265,8.247L7.308,8.304L7.349,8.363L7.389,8.422L7.427,8.483L7.463,8.544L7.497,8.605L7.529,8.668L7.544,8.699L7.559,8.73L7.581,8.782L7.605,8.84L7.629,8.904L7.654,8.973L7.679,9.046L7.705,9.124L7.731,9.204L7.758,9.287L7.81,9.457L7.862,9.63L7.912,9.801L7.958,9.963L7.892,9.95L7.827,9.937L7.765,9.923L7.704,9.909L7.646,9.894L7.59,9.879L7.536,9.864L7.485,9.848L7.46,9.84L7.434,9.831L7.409,9.821L7.383,9.81L7.357,9.798L7.33,9.785L7.276,9.757L7.222,9.727L7.166,9.694L7.111,9.659L7.055,9.621L6.999,9.582L6.943,9.542L6.888,9.5L6.833,9.458L6.779,9.414L6.727,9.371L6.675,9.327L6.624,9.284L6.528,9.199L6.44,9.118L6.361,9.044L6.293,8.978L6.237,8.923L6.195,8.881L6.16,8.845L6.17,8.887L6.194,9.002L6.21,9.081L6.227,9.171L6.244,9.27L6.262,9.376L6.278,9.486L6.285,9.542L6.292,9.599L6.299,9.655L6.304,9.711L6.309,9.767L6.312,9.821L6.315,9.875L6.316,9.927L6.316,9.977L6.315,10.025L6.312,10.071L6.308,10.114L6.302,10.155L6.298,10.174L6.294,10.192L6.285,10.227L6.274,10.262L6.263,10.296L6.25,10.329L6.236,10.362L6.221,10.395L6.205,10.427L6.187,10.459L6.169,10.491L6.151,10.522L6.131,10.553L6.11,10.583L6.089,10.613L6.067,10.642L6.044,10.672L6.021,10.701L5.973,10.758L5.923,10.813L5.871,10.868L5.819,10.921L5.765,10.974L5.712,11.025L5.605,11.126L5.55,11.176L5.494,11.226L5.436,11.276L5.376,11.325L5.315,11.374L5.253,11.421L5.189,11.468L5.124,11.513L5.058,11.557L4.991,11.599L4.923,11.639L4.854,11.678L4.784,11.714L4.748,11.731L4.713,11.748L4.677,11.764L4.642,11.78L4.606,11.795L4.569,11.809L4.513,11.83L4.45,11.851L4.382,11.874L4.307,11.897L4.228,11.921L4.144,11.946L3.966,11.996L3.777,12.047L3.581,12.098L3.384,12.148L3.188,12.196L2.999,12.242L2.821,12.285L2.515,12.356L2.306,12.404L2.228,12.421L2.252,12.437L2.319,12.478L2.364,12.506L2.417,12.536L2.476,12.57L2.54,12.604L2.608,12.638L2.678,12.672L2.713,12.688L2.749,12.704L2.785,12.719L2.82,12.733L2.856,12.746L2.891,12.758L2.926,12.769L2.96,12.778L2.993,12.786L3.025,12.792L3.056,12.796L3.086,12.799L3.267,12.807L3.48,12.815L3.72,12.823L3.986,12.83L4.272,12.836L4.577,12.842L4.896,12.847L5.227,12.851L5.565,12.853L5.909,12.855L6.253,12.855L6.595,12.853L6.932,12.85L7.26,12.846L7.576,12.84L7.876,12.831L7.923,12.928L8,13.093L8.101,13.31L8.157,13.433L8.215,13.563L8.274,13.699L8.334,13.837L8.392,13.976L8.448,14.114L8.501,14.249L8.526,14.315L8.55,14.379L8.572,14.441L8.593,14.502L8.612,14.56L8.629,14.615L8.648,14.679L8.666,14.747L8.685,14.818L8.703,14.893L8.722,14.971L8.74,15.052L8.777,15.22L8.812,15.393L8.847,15.569L8.879,15.744L8.91,15.914L8.939,16.077L8.965,16.229L9.007,16.486L9.035,16.66L9.044,16.724L9.064,16.684L9.117,16.573L9.152,16.496L9.193,16.408L9.237,16.31L9.283,16.204L9.33,16.092L9.378,15.976L9.425,15.859L9.469,15.741L9.49,15.683L9.51,15.626L9.528,15.57L9.546,15.515L9.562,15.461L9.576,15.409L9.588,15.36L9.599,15.312L9.609,15.262L9.619,15.211L9.627,15.159L9.635,15.107L9.643,15.054L9.65,15.001L9.662,14.893L9.672,14.783L9.681,14.672L9.687,14.559L9.693,14.445L9.697,14.331L9.7,14.216L9.705,13.986L9.708,13.757L9.712,13.532L9.716,13.297L9.719,13.032L9.72,12.742L9.721,12.434L9.78,12.397L9.838,12.36L9.894,12.324L9.948,12.288L10.048,12.22L10.134,12.158L10.206,12.106L10.26,12.065L10.306,12.029L10.91,12.497L10.994,12.499L11.224,12.508L11.382,12.515L11.565,12.524L11.766,12.535L11.983,12.548L12.211,12.563L12.446,12.58L12.564,12.589L12.683,12.599L12.801,12.61L12.918,12.622L13.034,12.634L13.147,12.646L13.259,12.66L13.367,12.674L13.471,12.688L13.571,12.704L13.667,12.72L13.757,12.737L13.847,12.755L13.942,12.777L14.041,12.801L14.144,12.827L14.25,12.855L14.359,12.885L14.47,12.917L14.582,12.95L14.696,12.984L14.811,13.019L15.041,13.091L15.267,13.165L15.487,13.238L15.696,13.309L15.889,13.376L16.064,13.438L16.216,13.492L16.436,13.572L16.516,13.602L17.725,11.49L16.169,10.224L16.156,10.107L16.143,9.98L16.127,9.823L16.11,9.65L16.094,9.472L16.087,9.386L16.08,9.303L16.075,9.225L16.071,9.154L16.07,9.109L16.069,9.061L16.069,8.961L16.07,8.854L16.073,8.741L16.082,8.505L16.086,8.384L16.09,8.261L16.093,8.139L16.094,8.018L16.094,7.958L16.093,7.899L16.091,7.841L16.089,7.784L16.086,7.728L16.082,7.674L16.078,7.62L16.072,7.569L16.065,7.519L16.058,7.471L16.049,7.425L16.038,7.381L16.029,7.346L16.018,7.31L16.007,7.276L15.994,7.241L15.98,7.207L15.966,7.172L15.951,7.139L15.934,7.105L15.917,7.072L15.899,7.039L15.881,7.006L15.861,6.974L15.841,6.942L15.82,6.91L15.799,6.879L15.777,6.848L15.755,6.818L15.732,6.788L15.685,6.729L15.636,6.671L15.586,6.616L15.535,6.562L15.484,6.51L15.432,6.461L15.38,6.413L15.352,6.39L15.323,6.366L15.291,6.343L15.257,6.319L15.221,6.296L15.184,6.273L15.145,6.25L15.106,6.227L15.065,6.204L15.024,6.182L14.94,6.139L14.855,6.098L14.773,6.059L14.693,6.024L14.619,5.991L14.551,5.963L14.492,5.938L14.406,5.904L14.374,5.892L14.389,5.934L14.406,5.983L14.427,6.047L14.452,6.126L14.48,6.215L14.509,6.314L14.538,6.42L14.553,6.475L14.566,6.531L14.58,6.588L14.592,6.645L14.604,6.702L14.615,6.758L14.625,6.815L14.634,6.87L14.641,6.925L14.647,6.979L14.651,7.031L14.653,7.081L14.653,7.129L14.651,7.174L14.65,7.196L14.647,7.217L14.644,7.238L14.641,7.258L14.633,7.296L14.623,7.335L14.612,7.374L14.6,7.413L14.586,7.451L14.572,7.49L14.556,7.529L14.539,7.567L14.521,7.606L14.502,7.644L14.482,7.682L14.461,7.72L14.439,7.757L14.416,7.794L14.392,7.831L14.367,7.867L14.342,7.903L14.315,7.938L14.288,7.973L14.261,8.007L14.232,8.041L14.203,8.074L14.173,8.107L14.143,8.138L14.112,8.169L14.08,8.199L14.048,8.229L14.016,8.257L13.983,8.285L13.95,8.312L13.916,8.338L13.882,8.362L13.847,8.387L13.809,8.411L13.77,8.435L13.729,8.458L13.687,8.48L13.643,8.502L13.598,8.524L13.552,8.545L13.505,8.565L13.458,8.585L13.409,8.604L13.36,8.622L13.31,8.64L13.26,8.657L13.209,8.674L13.158,8.69L13.108,8.705L13.057,8.72L13.006,8.734L12.956,8.747L12.856,8.771L12.759,8.792L12.666,8.81L12.577,8.825L12.534,8.832L12.493,8.837L12.453,8.842L12.415,8.846L12.385,8.848L12.354,8.849L12.323,8.848L12.292,8.847L12.261,8.844L12.229,8.841L12.197,8.837L12.165,8.831L12.133,8.825L12.101,8.818L12.069,8.811L12.037,8.802L12.005,8.793L11.973,8.784L11.911,8.764L11.849,8.741L11.79,8.718L11.733,8.694L11.679,8.67L11.628,8.645L11.58,8.621L11.536,8.598L11.497,8.577L11.484,8.569L11.472,8.559L11.459,8.549L11.446,8.537L11.434,8.525L11.422,8.511L11.41,8.497L11.398,8.482L11.376,8.45L11.354,8.417L11.334,8.383L11.315,8.349L11.298,8.316L11.283,8.284L11.258,8.23L11.242,8.193L11.237,8.179L11.196,8.275L11.15,8.378L11.092,8.505L11.06,8.573L11.026,8.643L10.991,8.714L10.955,8.783L10.919,8.851L10.883,8.914L10.848,8.973L10.83,9L10.813,9.025L10.793,9.055L10.773,9.086L10.732,9.153L10.691,9.224L10.648,9.299L10.604,9.376L10.559,9.454L10.511,9.531L10.487,9.57L10.461,9.608L10.436,9.645L10.409,9.682L10.382,9.718L10.354,9.753L10.325,9.786L10.296,9.819L10.266,9.85L10.234,9.879L10.202,9.906L10.169,9.932L10.135,9.956L10.117,9.967L10.099,9.977L10.081,9.987L10.063,9.996L10.045,10.005L10.026,10.013L10.007,10.02L9.987,10.027L9.967,10.033L9.947,10.039L9.894,10.051L9.836,10.061L9.775,10.07L9.711,10.078L9.71,10.042L9.709,9.853L9.708,9.637L9.703,9.188L9.696,8.675L12.077,2.78L12.044,2.777L11.955,2.767L11.894,2.759L11.824,2.749L11.747,2.737L11.665,2.722L11.58,2.705L11.537,2.695L11.493,2.685L11.45,2.674L11.407,2.662L11.364,2.65L11.323,2.637L11.282,2.623L11.242,2.608L11.204,2.593L11.167,2.576L11.132,2.559L11.099,2.541L11.069,2.522L11.04,2.502L11.009,2.477L10.975,2.447L10.941,2.414L10.905,2.378L10.868,2.338L10.83,2.296L10.792,2.252L10.753,2.205L10.713,2.157L10.674,2.107L10.634,2.056L10.595,2.004L10.517,1.899L10.442,1.795L10.371,1.694L10.305,1.598L10.245,1.51L10.194,1.432L10.119,1.318L10.092,1.276L10.07,1.319Z"/>
            </g>
        </g>
    </g>
</svg>
