<?xml version="1.0" encoding="UTF-8" standalone="no"?>
<!DOCTYPE svg PUBLIC "-//W3C//DTD SVG 1.1//EN" "http://www.w3.org/Graphics/SVG/1.1/DTD/svg11.dtd">
<svg width="100%" height="100%" viewBox="0 0 525 515" version="1.1" xmlns="http://www.w3.org/2000/svg" xmlns:xlink="http://www.w3.org/1999/xlink" xml:space="preserve" xmlns:serif="http://www.serif.com/" style="fill-rule:evenodd;clip-rule:evenodd;stroke-linejoin:round;stroke-miterlimit:1.41421;">
    <g transform="matrix(0.665182,0.478951,-0.478951,0.665182,202.469,-40.2885)">
        <path d="M331.323,-49.598L307.077,101.387L385.531,-53.699L331.323,-49.598ZM491.813,35.156L365.433,177.241L508.19,97.017L491.813,35.156ZM185.375,80.25C184.723,80.26 184.082,80.284 183.437,80.313C173.927,80.735 165.067,82.948 157.75,87.906C140.786,99.398 146.455,125.062 134.97,151C95.73,239.616 23.34,335.027 -11.688,382.455L58.699,480.56C120.281,459.215 174.365,411.224 308.405,406.781C336.53,405.851 358.133,419.363 374.999,407.939C416.637,379.732 401.562,285.471 341.719,197.126C337.979,191.606 334.495,185.986 330.593,180.782C283.793,118.356 226.468,79.699 185.373,80.252L185.375,80.25ZM180,104.75C173.244,118.643 179.588,148.61 195.938,185.5C190.778,166.874 191.25,153.358 198.625,148.875C214.75,139.073 257.679,176.05 294.5,231.469C331.32,286.886 348.093,339.759 331.97,349.562C325.336,353.594 314.16,349.7 300.75,339.874C328.467,367.966 353.484,384.384 368.844,383.53C367.059,386.7 365.169,389.774 362.344,391.688C335.444,409.913 270.589,361.438 217.688,283.344C164.786,205.25 143.818,127.004 170.718,108.781C173.475,106.915 176.502,105.256 180,104.751L180,104.75ZM586.12,239.899L420.701,274.3L586.419,283.544L586.12,239.899Z" style="fill:white;fill-rule:nonzero;"/>
    </g>
</svg>
