<?xml version="1.0" encoding="UTF-8" standalone="no"?>
<!DOCTYPE svg PUBLIC "-//W3C//DTD SVG 1.1//EN" "http://www.w3.org/Graphics/SVG/1.1/DTD/svg11.dtd">
<svg width="100%" height="100%" viewBox="0 0 20 20" version="1.1" xmlns="http://www.w3.org/2000/svg" xmlns:xlink="http://www.w3.org/1999/xlink" xml:space="preserve" xmlns:serif="http://www.serif.com/" style="fill-rule:evenodd;clip-rule:evenodd;stroke-linecap:round;stroke-linejoin:round;">
    <g id="Naalu" transform="matrix(0.712017,0,0,0.712017,57.2171,-34.9914)">
        <g>
            <g id="path3353" transform="matrix(0.151407,0,0,0.151407,-122.875,9.48692)">
                <path d="M293.929,293.434C317.809,302.561 335.656,309.938 356.429,298.791L356.071,405.219C314.643,396.291 293.214,417.362 293.214,417.362C293.214,417.362 291.429,397.005 301.429,381.291C275.714,362.362 280,333.791 300.714,323.076C286.825,308.177 293.929,293.434 293.929,293.434Z" style="fill:rgb(194,211,71);stroke:black;stroke-width:2.85px;"/>
            </g>
            <g id="path33531" serif:id="path3353" transform="matrix(0.151407,0,0,0.151407,-122.875,9.48692)">
                <path d="M393.929,406.291L394.286,300.576C422.857,312.719 455.714,292.005 455.714,292.005C458.929,311.291 448.214,324.505 448.214,324.505C463.929,335.219 473.214,360.219 447.143,380.576C461.786,397.362 455,415.219 455,415.219C417.857,391.648 393.929,406.291 393.929,406.291Z" style="fill:rgb(194,211,71);stroke:black;stroke-width:2.85px;"/>
            </g>
        </g>
        <g transform="matrix(1.93931,0,0,2.11511,-85.197,42.4652)">
            <path d="M9.737,7.828C12.556,7.828 14.844,9.798 14.844,9.798C14.844,9.798 12.556,11.768 9.737,11.768C6.918,11.768 4.629,9.798 4.629,9.798C4.629,9.798 6.918,7.828 9.737,7.828ZM9.737,9.228C10.552,9.228 11.215,9.798 11.215,9.798C11.215,9.798 10.552,10.368 9.737,10.368C8.921,10.368 8.259,9.798 8.259,9.798C8.259,9.798 8.921,9.228 9.737,9.228Z" style="fill:rgb(240,244,200);"/>
            <path d="M9.805,7.629L9.874,7.63L9.942,7.632L10.01,7.634L10.077,7.638L10.144,7.641L10.212,7.646L10.278,7.651L10.345,7.657L10.411,7.664L10.477,7.671L10.543,7.679L10.609,7.687L10.674,7.696L10.739,7.706L10.803,7.716L10.868,7.727L10.932,7.738L10.995,7.75L11.059,7.762L11.122,7.775L11.184,7.788L11.247,7.802L11.309,7.816L11.37,7.831L11.432,7.846L11.553,7.878L11.673,7.911L11.792,7.946L11.909,7.983L12.025,8.02L12.139,8.059L12.251,8.1L12.361,8.141L12.47,8.183L12.577,8.226L12.683,8.27L12.786,8.315L12.888,8.36L12.988,8.406L13.086,8.452L13.181,8.499L13.275,8.546L13.367,8.593L13.457,8.64L13.544,8.688L13.63,8.735L13.713,8.782L13.794,8.828L13.872,8.874L13.949,8.92L14.023,8.966L14.094,9.01L14.163,9.054L14.23,9.097L14.294,9.139L14.356,9.18L14.471,9.259L14.576,9.333L14.67,9.401L14.752,9.462L14.823,9.516L14.882,9.562L14.929,9.6L14.963,9.628L14.991,9.651L15.01,9.669L15.027,9.69L15.04,9.712L15.05,9.735L15.057,9.76L15.061,9.785L15.061,9.81L15.057,9.836L15.05,9.86L15.04,9.884L15.027,9.906L15.01,9.926L14.991,9.945L14.963,9.968L14.929,9.996L14.882,10.033L14.823,10.079L14.752,10.134L14.67,10.195L14.576,10.263L14.471,10.337L14.356,10.415L14.294,10.456L14.23,10.499L14.163,10.542L14.094,10.585L14.023,10.63L13.949,10.675L13.872,10.721L13.794,10.767L13.713,10.814L13.63,10.861L13.544,10.908L13.457,10.955L13.367,11.002L13.275,11.049L13.181,11.096L13.086,11.143L12.988,11.189L12.888,11.235L12.786,11.281L12.683,11.325L12.577,11.369L12.47,11.413L12.361,11.455L12.251,11.496L12.139,11.536L12.025,11.575L11.909,11.613L11.792,11.649L11.673,11.684L11.553,11.718L11.432,11.749L11.37,11.764L11.309,11.779L11.247,11.793L11.184,11.807L11.122,11.821L11.059,11.833L10.995,11.846L10.932,11.857L10.868,11.869L10.803,11.879L10.739,11.89L10.674,11.899L10.609,11.908L10.543,11.917L10.477,11.925L10.411,11.932L10.345,11.938L10.278,11.944L10.212,11.95L10.144,11.954L10.077,11.958L10.01,11.961L9.942,11.964L9.874,11.966L9.805,11.967L9.737,11.967L9.668,11.967L9.6,11.966L9.532,11.964L9.464,11.961L9.396,11.958L9.329,11.954L9.262,11.95L9.195,11.944L9.128,11.938L9.062,11.932L8.996,11.925L8.93,11.917L8.865,11.908L8.8,11.899L8.735,11.89L8.67,11.879L8.606,11.869L8.542,11.857L8.478,11.846L8.415,11.833L8.352,11.821L8.289,11.807L8.227,11.793L8.165,11.779L8.103,11.764L8.041,11.749L7.92,11.718L7.8,11.684L7.681,11.649L7.564,11.613L7.449,11.575L7.335,11.536L7.223,11.496L7.112,11.455L7.003,11.413L6.896,11.369L6.791,11.325L6.687,11.281L6.585,11.235L6.486,11.189L6.388,11.143L6.292,11.096L6.198,11.049L6.106,11.002L6.017,10.955L5.929,10.908L5.844,10.861L5.761,10.814L5.68,10.767L5.601,10.721L5.525,10.675L5.451,10.63L5.379,10.585L5.31,10.542L5.243,10.499L5.179,10.456L5.117,10.415L5.002,10.337L4.897,10.263L4.804,10.195L4.721,10.134L4.65,10.079L4.591,10.033L4.544,9.996L4.51,9.968L4.483,9.945L4.463,9.926L4.447,9.906L4.433,9.884L4.423,9.86L4.416,9.836L4.412,9.81L4.412,9.785L4.416,9.76L4.423,9.735L4.433,9.712L4.447,9.69L4.463,9.669L4.483,9.651L4.51,9.628L4.544,9.6L4.591,9.562L4.65,9.516L4.721,9.462L4.804,9.401L4.897,9.333L5.002,9.259L5.117,9.18L5.179,9.139L5.243,9.097L5.31,9.054L5.379,9.01L5.451,8.966L5.525,8.92L5.601,8.874L5.68,8.828L5.761,8.782L5.844,8.735L5.929,8.688L6.017,8.64L6.106,8.593L6.198,8.546L6.292,8.499L6.388,8.452L6.486,8.406L6.585,8.36L6.687,8.315L6.791,8.27L6.896,8.226L7.003,8.183L7.112,8.141L7.223,8.1L7.335,8.059L7.449,8.02L7.564,7.983L7.681,7.946L7.8,7.911L7.92,7.878L8.041,7.846L8.103,7.831L8.165,7.816L8.227,7.802L8.289,7.788L8.352,7.775L8.415,7.762L8.478,7.75L8.542,7.738L8.606,7.727L8.67,7.716L8.735,7.706L8.8,7.696L8.865,7.687L8.93,7.679L8.996,7.671L9.062,7.664L9.128,7.657L9.195,7.651L9.262,7.646L9.329,7.641L9.396,7.638L9.464,7.634L9.532,7.632L9.6,7.63L9.668,7.629L9.737,7.628L9.805,7.629ZM9.671,7.828L9.605,7.829L9.539,7.831L9.474,7.833L9.409,7.836L9.344,7.84L9.279,7.845L9.215,7.85L9.151,7.855L9.087,7.862L9.023,7.869L8.959,7.876L8.896,7.884L8.833,7.893L8.77,7.902L8.708,7.912L8.646,7.923L8.584,7.934L8.522,7.945L8.461,7.957L8.4,7.969L8.339,7.982L8.279,7.996L8.219,8.009L8.159,8.024L8.099,8.038L7.981,8.069L7.865,8.102L7.749,8.135L7.636,8.171L7.523,8.207L7.412,8.245L7.303,8.285L7.195,8.325L7.089,8.366L6.985,8.408L6.882,8.451L6.781,8.495L6.682,8.539L6.584,8.584L6.489,8.629L6.395,8.675L6.303,8.72L6.214,8.767L6.126,8.813L6.04,8.859L5.957,8.905L5.875,8.951L5.796,8.996L5.719,9.042L5.644,9.087L5.572,9.131L5.502,9.174L5.434,9.217L5.369,9.259L5.306,9.301L5.246,9.341L5.133,9.418L5.031,9.49L4.939,9.556L4.859,9.616L4.79,9.669L4.733,9.713L4.688,9.749L4.656,9.776L4.629,9.798L4.656,9.82L4.688,9.846L4.733,9.882L4.79,9.927L4.859,9.98L4.939,10.039L5.031,10.106L5.133,10.178L5.246,10.255L5.306,10.295L5.369,10.336L5.434,10.378L5.502,10.421L5.572,10.465L5.644,10.509L5.719,10.554L5.796,10.599L5.875,10.645L5.957,10.691L6.04,10.737L6.126,10.783L6.214,10.829L6.303,10.875L6.395,10.921L6.489,10.967L6.584,11.012L6.682,11.057L6.781,11.101L6.882,11.145L6.985,11.188L7.089,11.23L7.195,11.271L7.303,11.311L7.412,11.35L7.523,11.388L7.636,11.425L7.749,11.46L7.865,11.494L7.981,11.526L8.099,11.557L8.159,11.572L8.219,11.586L8.279,11.6L8.339,11.613L8.4,11.626L8.461,11.639L8.522,11.651L8.584,11.662L8.646,11.673L8.708,11.683L8.77,11.693L8.833,11.702L8.896,11.711L8.959,11.719L9.023,11.727L9.087,11.734L9.151,11.74L9.215,11.746L9.279,11.751L9.344,11.755L9.409,11.759L9.474,11.762L9.539,11.765L9.605,11.767L9.671,11.768L9.737,11.768L9.803,11.768L9.868,11.767L9.934,11.765L9.999,11.762L10.065,11.759L10.129,11.755L10.194,11.751L10.259,11.746L10.323,11.74L10.387,11.734L10.451,11.727L10.514,11.719L10.577,11.711L10.64,11.702L10.703,11.693L10.766,11.683L10.828,11.673L10.89,11.662L10.951,11.651L11.013,11.639L11.074,11.626L11.134,11.613L11.195,11.6L11.255,11.586L11.315,11.572L11.374,11.557L11.492,11.526L11.609,11.494L11.724,11.46L11.838,11.425L11.95,11.388L12.061,11.35L12.17,11.311L12.278,11.271L12.384,11.23L12.489,11.188L12.592,11.145L12.693,11.101L12.792,11.057L12.889,11.012L12.985,10.967L13.078,10.921L13.17,10.875L13.26,10.829L13.348,10.783L13.433,10.737L13.517,10.691L13.598,10.645L13.677,10.599L13.754,10.554L13.829,10.509L13.901,10.465L13.971,10.421L14.039,10.378L14.104,10.336L14.167,10.295L14.227,10.255L14.34,10.178L14.443,10.106L14.534,10.039L14.614,9.98L14.683,9.927L14.74,9.882L14.785,9.846L14.818,9.82L14.844,9.798L14.818,9.776L14.785,9.749L14.74,9.713L14.683,9.669L14.614,9.616L14.534,9.556L14.443,9.49L14.34,9.418L14.227,9.341L14.167,9.301L14.104,9.259L14.039,9.217L13.971,9.174L13.901,9.131L13.829,9.087L13.754,9.042L13.677,8.996L13.598,8.951L13.517,8.905L13.433,8.859L13.348,8.813L13.26,8.767L13.17,8.72L13.078,8.675L12.985,8.629L12.889,8.584L12.792,8.539L12.693,8.495L12.592,8.451L12.489,8.408L12.384,8.366L12.278,8.325L12.17,8.285L12.061,8.245L11.95,8.207L11.838,8.171L11.724,8.135L11.609,8.102L11.492,8.069L11.374,8.038L11.315,8.024L11.255,8.009L11.195,7.996L11.134,7.982L11.074,7.969L11.013,7.957L10.951,7.945L10.89,7.934L10.828,7.923L10.766,7.912L10.703,7.902L10.64,7.893L10.577,7.884L10.514,7.876L10.451,7.869L10.387,7.862L10.323,7.855L10.259,7.85L10.194,7.845L10.129,7.84L10.065,7.836L9.999,7.833L9.934,7.831L9.868,7.829L9.803,7.828L9.737,7.828L9.671,7.828ZM9.775,9.228L9.813,9.229L9.85,9.231L9.888,9.234L9.925,9.238L9.962,9.242L9.998,9.247L10.034,9.252L10.07,9.258L10.106,9.265L10.141,9.272L10.176,9.28L10.211,9.289L10.245,9.298L10.278,9.307L10.312,9.317L10.345,9.327L10.377,9.338L10.441,9.36L10.503,9.383L10.563,9.408L10.621,9.433L10.677,9.46L10.73,9.486L10.782,9.513L10.831,9.539L10.877,9.566L10.921,9.592L10.962,9.617L11.001,9.642L11.036,9.666L11.069,9.688L11.099,9.709L11.148,9.745L11.185,9.773L11.207,9.791L11.215,9.798L11.207,9.804L11.185,9.822L11.148,9.85L11.099,9.887L11.069,9.908L11.036,9.93L11.001,9.954L10.962,9.978L10.921,10.004L10.877,10.03L10.831,10.056L10.782,10.083L10.73,10.11L10.677,10.136L10.621,10.162L10.563,10.188L10.503,10.212L10.441,10.236L10.377,10.258L10.345,10.269L10.312,10.279L10.278,10.289L10.245,10.298L10.211,10.307L10.176,10.315L10.141,10.323L10.106,10.331L10.07,10.337L10.034,10.343L9.998,10.349L9.962,10.354L9.925,10.358L9.888,10.362L9.85,10.364L9.813,10.366L9.775,10.368L9.737,10.368L9.699,10.368L9.661,10.366L9.623,10.364L9.586,10.362L9.549,10.358L9.512,10.354L9.475,10.349L9.439,10.343L9.403,10.337L9.368,10.331L9.332,10.323L9.297,10.315L9.263,10.307L9.229,10.298L9.195,10.289L9.162,10.279L9.129,10.269L9.096,10.258L9.032,10.236L8.971,10.212L8.911,10.188L8.853,10.162L8.797,10.136L8.743,10.11L8.692,10.083L8.643,10.056L8.596,10.03L8.552,10.004L8.511,9.978L8.473,9.954L8.437,9.93L8.404,9.908L8.375,9.887L8.325,9.85L8.289,9.822L8.266,9.804L8.259,9.798L8.266,9.791L8.289,9.773L8.325,9.745L8.375,9.709L8.404,9.688L8.437,9.666L8.473,9.642L8.511,9.617L8.552,9.592L8.596,9.566L8.643,9.539L8.692,9.513L8.743,9.486L8.797,9.46L8.853,9.433L8.911,9.408L8.971,9.383L9.032,9.36L9.096,9.338L9.129,9.327L9.162,9.317L9.195,9.307L9.229,9.298L9.263,9.289L9.297,9.28L9.332,9.272L9.368,9.265L9.403,9.258L9.439,9.252L9.475,9.247L9.512,9.242L9.549,9.238L9.586,9.234L9.623,9.231L9.661,9.229L9.699,9.228L9.737,9.228L9.775,9.228ZM9.704,9.427L9.671,9.428L9.638,9.43L9.606,9.432L9.573,9.435L9.541,9.439L9.509,9.443L9.477,9.448L9.445,9.454L9.414,9.46L9.382,9.466L9.351,9.473L9.32,9.481L9.29,9.489L9.26,9.497L9.23,9.506L9.2,9.515L9.171,9.524L9.113,9.545L9.057,9.566L9.002,9.589L8.949,9.612L8.898,9.636L8.848,9.66L8.801,9.685L8.756,9.71L8.713,9.734L8.672,9.758L8.634,9.782L8.609,9.798L8.634,9.814L8.672,9.837L8.713,9.861L8.756,9.886L8.801,9.911L8.848,9.935L8.898,9.96L8.949,9.983L9.002,10.007L9.057,10.029L9.113,10.051L9.171,10.071L9.2,10.08L9.23,10.09L9.26,10.098L9.29,10.107L9.32,10.115L9.351,10.122L9.382,10.129L9.414,10.136L9.445,10.142L9.477,10.147L9.509,10.152L9.541,10.156L9.573,10.16L9.606,10.163L9.638,10.166L9.671,10.167L9.704,10.168L9.737,10.169L9.77,10.168L9.803,10.167L9.835,10.166L9.868,10.163L9.9,10.16L9.933,10.156L9.965,10.152L9.997,10.147L10.028,10.142L10.06,10.136L10.091,10.129L10.122,10.122L10.153,10.115L10.184,10.107L10.214,10.098L10.244,10.09L10.273,10.08L10.302,10.071L10.361,10.051L10.417,10.029L10.472,10.007L10.525,9.983L10.576,9.96L10.625,9.935L10.673,9.911L10.718,9.886L10.761,9.861L10.801,9.837L10.839,9.814L10.865,9.798L10.839,9.782L10.801,9.758L10.761,9.734L10.718,9.71L10.673,9.685L10.625,9.66L10.576,9.636L10.525,9.612L10.472,9.589L10.417,9.566L10.361,9.545L10.302,9.524L10.273,9.515L10.244,9.506L10.214,9.497L10.184,9.489L10.153,9.481L10.122,9.473L10.091,9.466L10.06,9.46L10.028,9.454L9.997,9.448L9.965,9.443L9.933,9.439L9.9,9.435L9.868,9.432L9.835,9.43L9.803,9.428L9.77,9.427L9.737,9.427L9.704,9.427Z"/>
        </g>
    </g>
</svg>
