<?xml version="1.0" encoding="UTF-8" standalone="no"?>
<!DOCTYPE svg PUBLIC "-//W3C//DTD SVG 1.1//EN" "http://www.w3.org/Graphics/SVG/1.1/DTD/svg11.dtd">
<svg width="100%" height="100%" viewBox="0 0 20 20" version="1.1" xmlns="http://www.w3.org/2000/svg" xmlns:xlink="http://www.w3.org/1999/xlink" xml:space="preserve" xmlns:serif="http://www.serif.com/" style="fill-rule:evenodd;clip-rule:evenodd;stroke-linejoin:round;">
    <g id="Hacan" transform="matrix(1.05305,0,0,1.05305,-0.578767,-1.25262)">
        <g id="path3057-1" transform="matrix(0.232093,0,0,0.207036,-68.7551,-61.3122)">
            <path d="M339.107,328.434C339.107,328.437 339.107,328.44 339.107,328.443C339.107,335.692 333.344,341.657 326.339,341.657C319.335,341.657 313.571,335.692 313.571,328.443C313.571,328.44 313.571,328.437 313.571,328.434C313.571,328.431 313.571,328.428 313.571,328.425C313.571,321.175 319.335,315.21 326.339,315.21C333.344,315.21 339.107,321.175 339.107,328.425C339.107,328.428 339.107,328.431 339.107,328.434Z" style="fill:rgb(255,122,0);fill-rule:nonzero;stroke:black;stroke-width:1.36px;"/>
        </g>
        <g id="path3057-11" serif:id="path3057-1" transform="matrix(0.232093,0,0,0.207036,-59.6372,-59.3925)">
            <path d="M339.107,328.434C339.107,328.437 339.107,328.44 339.107,328.443C339.107,335.692 333.344,341.657 326.339,341.657C319.335,341.657 313.571,335.692 313.571,328.443C313.571,328.44 313.571,328.437 313.571,328.434C313.571,328.431 313.571,328.428 313.571,328.425C313.571,321.175 319.335,315.21 326.339,315.21C333.344,315.21 339.107,321.175 339.107,328.425C339.107,328.428 339.107,328.431 339.107,328.434Z" style="fill:rgb(255,122,0);fill-rule:nonzero;stroke:black;stroke-width:1.36px;"/>
        </g>
        <g id="path3057-12" serif:id="path3057-1" transform="matrix(0.232093,0,0,0.207036,-65.842,-52.6202)">
            <path d="M339.107,328.434C339.107,328.437 339.107,328.44 339.107,328.443C339.107,335.692 333.344,341.657 326.339,341.657C319.335,341.657 313.571,335.692 313.571,328.443C313.571,328.44 313.571,328.437 313.571,328.434C313.571,328.431 313.571,328.428 313.571,328.425C313.571,321.175 319.335,315.21 326.339,315.21C333.344,315.21 339.107,321.175 339.107,328.425C339.107,328.428 339.107,328.431 339.107,328.434Z" style="fill:rgb(255,122,0);fill-rule:nonzero;stroke:black;stroke-width:1.36px;"/>
        </g>
        <path d="M17.045,1.826C17.045,1.826 15.971,1.955 15.492,2.185C14.845,2.496 13.776,3.17 13.163,3.691C12.627,4.145 12.156,4.824 11.809,5.308C11.522,5.707 11.273,6.213 11.081,6.591C10.919,6.909 10.759,7.251 10.656,7.573C10.557,7.882 10.446,8.255 10.46,8.525C10.471,8.766 10.601,9.023 10.735,9.194C10.867,9.361 11.054,9.567 11.267,9.55C11.485,9.533 11.853,9.319 12.045,9.089C12.236,8.86 12.383,8.501 12.416,8.173C12.452,7.827 12.258,7.016 12.258,7.016C12.258,7.016 12.023,7.496 11.917,7.645C11.84,7.753 11.677,7.952 11.62,7.91C11.563,7.869 11.515,7.559 11.573,7.397C11.673,7.118 11.991,6.616 12.219,6.236C12.46,5.836 12.74,5.345 13.019,4.996C13.273,4.677 13.587,4.411 13.893,4.141C14.328,3.757 15.106,3.078 15.631,2.693C16.076,2.365 17.045,1.826 17.045,1.826Z"/>
        <g transform="matrix(-0.493196,0.869918,-0.869918,-0.493196,25.3683,5.61895)">
            <path d="M17.045,1.826C17.045,1.826 15.971,1.955 15.492,2.185C14.845,2.496 13.776,3.17 13.163,3.691C12.627,4.145 12.156,4.824 11.809,5.308C11.522,5.707 11.273,6.213 11.081,6.591C10.919,6.909 10.759,7.251 10.656,7.573C10.557,7.882 10.446,8.255 10.46,8.525C10.471,8.766 10.601,9.023 10.735,9.194C10.867,9.361 11.054,9.567 11.267,9.55C11.485,9.533 11.853,9.319 12.045,9.089C12.236,8.86 12.383,8.501 12.416,8.173C12.452,7.827 12.258,7.016 12.258,7.016C12.258,7.016 12.023,7.496 11.917,7.645C11.84,7.753 11.677,7.952 11.62,7.91C11.563,7.869 11.515,7.559 11.573,7.397C11.673,7.118 11.991,6.616 12.219,6.236C12.46,5.836 12.74,5.345 13.019,4.996C13.273,4.677 13.587,4.411 13.893,4.141C14.328,3.757 15.106,3.078 15.631,2.693C16.076,2.365 17.045,1.826 17.045,1.826Z"/>
        </g>
        <g transform="matrix(-0.476416,-0.87922,0.87922,-0.476416,7.53964,24.7877)">
            <path d="M17.045,1.826C17.045,1.826 15.971,1.955 15.492,2.185C14.845,2.496 13.776,3.17 13.163,3.691C12.627,4.145 12.156,4.824 11.809,5.308C11.522,5.707 11.273,6.213 11.081,6.591C10.919,6.909 10.759,7.251 10.656,7.573C10.557,7.882 10.446,8.255 10.46,8.525C10.471,8.766 10.601,9.023 10.735,9.194C10.867,9.361 11.054,9.567 11.267,9.55C11.485,9.533 11.853,9.319 12.045,9.089C12.236,8.86 12.383,8.501 12.416,8.173C12.452,7.827 12.258,7.016 12.258,7.016C12.258,7.016 12.023,7.496 11.917,7.645C11.84,7.753 11.677,7.952 11.62,7.91C11.563,7.869 11.515,7.559 11.573,7.397C11.673,7.118 11.991,6.616 12.219,6.236C12.46,5.836 12.74,5.345 13.019,4.996C13.273,4.677 13.587,4.411 13.893,4.141C14.328,3.757 15.106,3.078 15.631,2.693C16.076,2.365 17.045,1.826 17.045,1.826Z"/>
        </g>
    </g>
</svg>
