<?xml version="1.0" encoding="UTF-8" standalone="no"?>
<!DOCTYPE svg PUBLIC "-//W3C//DTD SVG 1.1//EN" "http://www.w3.org/Graphics/SVG/1.1/DTD/svg11.dtd">
<svg width="100%" height="100%" viewBox="0 0 20 20" version="1.1" xmlns="http://www.w3.org/2000/svg" xmlns:xlink="http://www.w3.org/1999/xlink" xml:space="preserve" xmlns:serif="http://www.serif.com/" style="fill-rule:evenodd;clip-rule:evenodd;stroke-linejoin:round;stroke-miterlimit:1.41421;">
    <g id="Yssaril">
        <g transform="matrix(1.05891,0,0,1.05891,-0.680817,-0.836808)">
            <path d="M10.087,1.552L19.215,8.184L15.728,18.916L4.445,18.916L0.958,8.184L10.087,1.552Z" style="fill:rgb(246,239,84);"/>
            <path d="M10.131,1.272L10.174,1.283L10.215,1.3L10.253,1.323L19.382,7.955L19.416,7.984L19.444,8.018L19.468,8.056L19.485,8.097L19.495,8.14L19.498,8.184L19.495,8.229L19.485,8.272L15.998,19.003L15.981,19.044L15.958,19.082L15.929,19.116L15.895,19.145L15.857,19.168L15.816,19.185L15.773,19.196L15.728,19.199L4.445,19.199L4.401,19.196L4.357,19.185L4.316,19.168L4.278,19.145L4.244,19.116L4.216,19.082L4.192,19.044L4.175,19.003L0.689,8.272L0.678,8.229L0.675,8.184L0.678,8.14L0.689,8.097L0.706,8.056L0.729,8.018L0.758,7.984L0.791,7.955L9.92,1.323L9.958,1.3L9.999,1.283L10.042,1.272L10.087,1.269L10.131,1.272ZM0.958,8.184L4.445,18.916L15.728,18.916L19.215,8.184L10.087,1.552L0.958,8.184Z"/>
        </g>
        <g transform="matrix(1.18802,0,0,1.18802,3.44995,-3.34446)">
            <path d="M5.513,3.492L6.587,10.432L13.519,9.308L7.25,12.473L10.461,18.719L5.513,13.735L0.566,18.719L3.777,12.473L-2.492,9.308L4.44,10.432L5.513,3.492Z" style="fill:rgb(251,0,0);"/>
            <path d="M5.553,3.242L5.592,3.252L5.628,3.267L5.662,3.288L5.692,3.314L5.718,3.344L5.739,3.378L5.754,3.414L5.763,3.453L6.797,10.142L13.478,9.059L13.518,9.055L13.558,9.058L13.596,9.068L13.633,9.083L13.667,9.103L13.697,9.129L13.723,9.159L13.744,9.193L13.759,9.23L13.768,9.269L13.771,9.308L13.768,9.348L13.759,9.386L13.744,9.423L13.723,9.457L13.697,9.487L13.667,9.513L13.633,9.533L7.591,12.584L10.686,18.603L10.701,18.64L10.71,18.679L10.714,18.718L10.711,18.758L10.701,18.797L10.686,18.833L10.665,18.867L10.64,18.897L10.609,18.923L10.576,18.944L10.539,18.959L10.5,18.968L10.461,18.971L10.421,18.968L10.382,18.959L10.346,18.944L10.312,18.923L10.282,18.897L5.513,14.094L0.745,18.897L0.715,18.923L0.681,18.944L0.644,18.959L0.606,18.968L0.566,18.971L0.527,18.968L0.488,18.959L0.451,18.944L0.417,18.923L0.387,18.897L0.361,18.867L0.341,18.833L0.326,18.797L0.316,18.758L0.313,18.718L0.317,18.679L0.326,18.64L0.341,18.603L3.436,12.584L-2.606,9.533L-2.64,9.513L-2.67,9.487L-2.696,9.457L-2.717,9.423L-2.732,9.386L-2.741,9.348L-2.744,9.308L-2.741,9.269L-2.732,9.23L-2.717,9.193L-2.696,9.159L-2.67,9.129L-2.64,9.103L-2.606,9.083L-2.569,9.068L-2.531,9.058L-2.491,9.055L-2.452,9.059L4.229,10.142L5.264,3.453L5.273,3.414L5.288,3.378L5.309,3.344L5.334,3.314L5.365,3.288L5.398,3.267L5.435,3.252L5.474,3.242L5.513,3.239L5.553,3.242ZM4.44,10.432L-2.492,9.308L3.777,12.473L0.566,18.719L5.513,13.735L10.461,18.719L7.25,12.473L13.519,9.308L6.587,10.432L5.513,3.492L4.44,10.432Z"/>
        </g>
        <g transform="matrix(0.932842,0,0,0.932842,1.52345,0.695691)">
            <circle cx="9.087" cy="10.856" r="2.338"/>
            <path d="M9.155,8.197L9.223,8.2L9.291,8.204L9.358,8.21L9.425,8.218L9.491,8.227L9.557,8.238L9.622,8.25L9.687,8.264L9.751,8.28L9.815,8.297L9.877,8.316L9.94,8.336L10.001,8.358L10.062,8.381L10.122,8.406L10.181,8.432L10.24,8.459L10.298,8.488L10.355,8.518L10.411,8.549L10.466,8.582L10.52,8.616L10.574,8.651L10.626,8.687L10.678,8.725L10.729,8.764L10.779,8.804L10.827,8.845L10.875,8.888L10.922,8.931L10.967,8.976L11.012,9.021L11.055,9.068L11.098,9.116L11.139,9.164L11.179,9.214L11.218,9.265L11.255,9.317L11.292,9.369L11.327,9.423L11.361,9.477L11.394,9.532L11.425,9.588L11.455,9.645L11.484,9.703L11.511,9.762L11.537,9.821L11.562,9.881L11.585,9.942L11.607,10.003L11.627,10.066L11.646,10.128L11.663,10.192L11.679,10.256L11.693,10.321L11.705,10.386L11.716,10.452L11.725,10.518L11.733,10.585L11.739,10.652L11.743,10.72L11.746,10.788L11.747,10.856L11.746,10.925L11.743,10.993L11.739,11.06L11.733,11.128L11.725,11.194L11.716,11.261L11.705,11.326L11.693,11.392L11.679,11.456L11.663,11.52L11.646,11.584L11.627,11.647L11.607,11.709L11.585,11.77L11.562,11.831L11.537,11.891L11.511,11.951L11.484,12.009L11.455,12.067L11.425,12.124L11.394,12.18L11.361,12.235L11.327,12.29L11.292,12.343L11.255,12.396L11.218,12.447L11.179,12.498L11.139,12.548L11.098,12.597L11.055,12.644L11.012,12.691L10.967,12.737L10.922,12.781L10.875,12.825L10.827,12.867L10.779,12.908L10.729,12.948L10.678,12.987L10.626,13.025L10.574,13.061L10.52,13.097L10.466,13.131L10.411,13.163L10.355,13.195L10.298,13.225L10.24,13.253L10.181,13.281L10.122,13.307L10.062,13.331L10.001,13.354L9.94,13.376L9.877,13.396L9.815,13.415L9.751,13.432L9.687,13.448L9.622,13.462L9.557,13.474L9.491,13.485L9.425,13.495L9.358,13.502L9.291,13.508L9.223,13.513L9.155,13.515L9.087,13.516L9.018,13.515L8.95,13.513L8.883,13.508L8.815,13.502L8.749,13.495L8.682,13.485L8.616,13.474L8.551,13.462L8.487,13.448L8.423,13.432L8.359,13.415L8.296,13.396L8.234,13.376L8.173,13.354L8.112,13.331L8.052,13.307L7.992,13.281L7.934,13.253L7.876,13.225L7.819,13.195L7.763,13.163L7.708,13.131L7.653,13.097L7.6,13.061L7.547,13.025L7.496,12.987L7.445,12.948L7.395,12.908L7.346,12.867L7.299,12.825L7.252,12.781L7.206,12.737L7.162,12.691L7.118,12.644L7.076,12.597L7.035,12.548L6.995,12.498L6.956,12.447L6.918,12.396L6.882,12.343L6.846,12.29L6.812,12.235L6.78,12.18L6.748,12.124L6.718,12.067L6.69,12.009L6.662,11.951L6.636,11.891L6.612,11.831L6.589,11.77L6.567,11.709L6.547,11.647L6.528,11.584L6.511,11.52L6.495,11.456L6.481,11.392L6.468,11.326L6.458,11.261L6.448,11.194L6.441,11.128L6.435,11.06L6.43,10.993L6.428,10.925L6.427,10.856L6.428,10.788L6.43,10.72L6.435,10.652L6.441,10.585L6.448,10.518L6.458,10.452L6.468,10.386L6.481,10.321L6.495,10.256L6.511,10.192L6.528,10.128L6.547,10.066L6.567,10.003L6.589,9.942L6.612,9.881L6.636,9.821L6.662,9.762L6.69,9.703L6.718,9.645L6.748,9.588L6.78,9.532L6.812,9.477L6.846,9.423L6.882,9.369L6.918,9.317L6.956,9.265L6.995,9.214L7.035,9.164L7.076,9.116L7.118,9.068L7.162,9.021L7.206,8.976L7.252,8.931L7.299,8.888L7.346,8.845L7.395,8.804L7.445,8.764L7.496,8.725L7.547,8.687L7.6,8.651L7.653,8.616L7.708,8.582L7.763,8.549L7.819,8.518L7.876,8.488L7.934,8.459L7.992,8.432L8.052,8.406L8.112,8.381L8.173,8.358L8.234,8.336L8.296,8.316L8.359,8.297L8.423,8.28L8.487,8.264L8.551,8.25L8.617,8.238L8.682,8.227L8.749,8.218L8.815,8.21L8.883,8.204L8.95,8.2L9.018,8.197L9.087,8.196L9.155,8.197ZM9.026,8.519L8.967,8.521L8.907,8.525L8.848,8.53L8.789,8.537L8.731,8.545L8.673,8.554L8.616,8.565L8.559,8.578L8.503,8.592L8.447,8.607L8.392,8.623L8.337,8.641L8.283,8.66L8.23,8.68L8.177,8.702L8.125,8.725L8.073,8.749L8.023,8.774L7.973,8.8L7.923,8.828L7.875,8.857L7.827,8.887L7.78,8.917L7.734,8.95L7.688,8.983L7.644,9.017L7.6,9.052L7.557,9.088L7.515,9.126L7.474,9.164L7.434,9.203L7.395,9.243L7.356,9.284L7.319,9.326L7.283,9.369L7.248,9.413L7.213,9.458L7.18,9.503L7.148,9.549L7.117,9.596L7.087,9.644L7.059,9.693L7.031,9.742L7.005,9.792L6.979,9.843L6.955,9.894L6.932,9.946L6.911,9.999L6.891,10.053L6.871,10.107L6.854,10.161L6.837,10.216L6.822,10.272L6.808,10.328L6.796,10.385L6.785,10.442L6.775,10.5L6.767,10.559L6.761,10.617L6.755,10.676L6.752,10.736L6.749,10.796L6.749,10.856L6.749,10.916L6.752,10.976L6.755,11.036L6.761,11.095L6.767,11.154L6.775,11.212L6.785,11.27L6.796,11.327L6.808,11.384L6.822,11.44L6.837,11.496L6.854,11.551L6.871,11.606L6.891,11.66L6.911,11.713L6.932,11.766L6.955,11.818L6.979,11.87L7.005,11.92L7.031,11.97L7.059,12.02L7.087,12.068L7.117,12.116L7.148,12.163L7.18,12.209L7.213,12.255L7.248,12.299L7.283,12.343L7.319,12.386L7.356,12.428L7.395,12.469L7.434,12.509L7.474,12.548L7.515,12.587L7.557,12.624L7.6,12.66L7.644,12.695L7.688,12.73L7.734,12.763L7.78,12.795L7.827,12.826L7.875,12.856L7.923,12.884L7.973,12.912L8.023,12.938L8.073,12.964L8.125,12.988L8.177,13.011L8.23,13.032L8.283,13.052L8.337,13.071L8.392,13.089L8.447,13.106L8.503,13.121L8.559,13.135L8.616,13.147L8.673,13.158L8.731,13.167L8.789,13.176L8.848,13.182L8.907,13.188L8.967,13.191L9.026,13.194L9.087,13.194L9.147,13.194L9.207,13.191L9.267,13.188L9.326,13.182L9.384,13.176L9.443,13.167L9.5,13.158L9.558,13.147L9.615,13.135L9.671,13.121L9.727,13.106L9.782,13.089L9.836,13.071L9.89,13.052L9.944,13.032L9.997,13.011L10.049,12.988L10.1,12.964L10.151,12.938L10.201,12.912L10.25,12.884L10.299,12.856L10.347,12.826L10.394,12.795L10.44,12.763L10.485,12.73L10.53,12.695L10.574,12.66L10.617,12.624L10.659,12.587L10.7,12.548L10.74,12.509L10.779,12.469L10.817,12.428L10.855,12.386L10.891,12.343L10.926,12.299L10.96,12.255L10.993,12.209L11.025,12.163L11.056,12.116L11.086,12.068L11.115,12.02L11.143,11.97L11.169,11.92L11.194,11.87L11.218,11.818L11.241,11.766L11.263,11.713L11.283,11.66L11.302,11.606L11.32,11.551L11.336,11.496L11.351,11.44L11.365,11.384L11.378,11.327L11.389,11.27L11.398,11.212L11.406,11.154L11.413,11.095L11.418,11.036L11.422,10.976L11.424,10.916L11.425,10.856L11.424,10.796L11.422,10.736L11.418,10.676L11.413,10.617L11.406,10.559L11.398,10.5L11.389,10.442L11.378,10.385L11.365,10.328L11.351,10.272L11.336,10.216L11.32,10.161L11.302,10.107L11.283,10.053L11.263,9.999L11.241,9.946L11.218,9.894L11.194,9.843L11.169,9.792L11.143,9.742L11.115,9.693L11.086,9.644L11.056,9.596L11.025,9.549L10.993,9.503L10.96,9.458L10.926,9.413L10.891,9.369L10.855,9.326L10.817,9.284L10.779,9.243L10.74,9.203L10.7,9.164L10.659,9.126L10.617,9.088L10.574,9.052L10.53,9.017L10.485,8.983L10.44,8.95L10.394,8.917L10.347,8.887L10.299,8.857L10.25,8.828L10.201,8.8L10.151,8.774L10.1,8.749L10.049,8.725L9.997,8.702L9.944,8.68L9.89,8.66L9.836,8.641L9.782,8.623L9.727,8.607L9.671,8.592L9.615,8.578L9.558,8.565L9.5,8.554L9.443,8.545L9.384,8.537L9.326,8.53L9.267,8.525L9.207,8.521L9.147,8.519L9.087,8.518L9.026,8.519Z"/>
        </g>
    </g>
</svg>
