<?xml version="1.0" encoding="UTF-8" standalone="no"?>
<!DOCTYPE svg PUBLIC "-//W3C//DTD SVG 1.1//EN" "http://www.w3.org/Graphics/SVG/1.1/DTD/svg11.dtd">
<svg width="100%" height="100%" viewBox="0 0 20 20" version="1.1" xmlns="http://www.w3.org/2000/svg" xmlns:xlink="http://www.w3.org/1999/xlink" xml:space="preserve" xmlns:serif="http://www.serif.com/" style="fill-rule:evenodd;clip-rule:evenodd;stroke-linejoin:round;stroke-miterlimit:1.41421;">
    <g id="Saar" transform="matrix(1.16416,0,0,1.16416,-2.1354,-1.66568)">
        <g>
            <path d="M10.424,1.86C14.928,1.86 18.585,5.517 18.585,10.021C18.585,14.525 14.928,18.181 10.424,18.181C5.92,18.181 2.264,14.525 2.264,10.021C2.264,5.517 5.92,1.86 10.424,1.86ZM15.226,5.792C14.053,4.461 12.336,3.621 10.424,3.621C8.614,3.621 6.979,4.374 5.815,5.583L6.116,5.859C6.116,5.859 7.134,5.846 7.603,6.015C8.149,6.211 9.054,6.675 9.392,7.037C9.659,7.322 9.707,7.799 9.635,8.183C9.546,8.653 9.212,9.389 8.86,9.856C8.509,10.321 7.918,10.766 7.523,10.982C7.216,11.149 6.821,11.2 6.489,11.152C6.157,11.105 5.704,10.886 5.53,10.697C5.375,10.529 5.365,10.221 5.444,10.017C5.523,9.814 5.76,9.535 6.001,9.475C6.243,9.415 6.62,9.685 6.893,9.656C7.166,9.626 7.475,9.474 7.64,9.297C7.806,9.12 7.906,8.827 7.884,8.594C7.862,8.362 7.727,8.046 7.508,7.901C7.209,7.702 6.589,7.362 6.089,7.402C5.681,7.434 4.828,7.798 4.345,8.017C4.137,8.648 4.025,9.321 4.025,10.021C4.025,12.877 5.9,15.299 8.485,16.121L8.659,15.591C8.659,15.591 8.23,14.667 8.192,14.17C8.147,13.592 8.199,12.576 8.39,12.119C8.54,11.759 8.956,11.519 9.336,11.428C9.801,11.316 10.609,11.318 11.179,11.448C11.747,11.577 12.395,11.934 12.754,12.206C13.033,12.416 13.241,12.756 13.334,13.078C13.427,13.401 13.413,13.903 13.312,14.14C13.222,14.35 12.946,14.485 12.728,14.497C12.51,14.509 12.158,14.407 12.004,14.211C11.85,14.016 11.942,13.561 11.803,13.324C11.664,13.087 11.399,12.867 11.17,12.789C10.941,12.711 10.632,12.74 10.429,12.856C10.226,12.971 9.994,13.223 9.951,13.483C9.892,13.837 9.836,14.542 10.078,14.982C10.28,15.35 10.995,16.004 11.387,16.348C14.463,15.883 16.824,13.225 16.824,10.021C16.824,9.426 16.742,8.849 16.59,8.302L16.12,8.434C16.12,8.434 15.592,9.304 15.201,9.613C14.745,9.972 13.872,10.494 13.386,10.59C13.003,10.665 12.573,10.453 12.286,10.188C11.934,9.864 11.486,9.191 11.276,8.646C11.068,8.102 11.003,7.364 11.029,6.915C11.049,6.566 11.216,6.204 11.432,5.948C11.648,5.691 12.073,5.423 12.326,5.375C12.55,5.333 12.817,5.488 12.948,5.662C13.079,5.837 13.19,6.185 13.113,6.422C13.036,6.659 12.607,6.835 12.488,7.083C12.368,7.33 12.334,7.673 12.396,7.907C12.459,8.141 12.654,8.381 12.863,8.485C13.072,8.59 13.411,8.642 13.651,8.534C13.978,8.385 14.595,8.039 14.825,7.594C15.013,7.232 15.156,6.318 15.226,5.792Z" style="fill:url(#_Radial1);"/>
            <path d="M10.533,1.603L10.641,1.605L10.749,1.609L10.857,1.614L10.964,1.62L11.071,1.627L11.178,1.636L11.284,1.646L11.39,1.658L11.495,1.67L11.601,1.684L11.705,1.7L11.809,1.716L11.913,1.734L12.017,1.753L12.12,1.774L12.222,1.795L12.324,1.818L12.426,1.842L12.527,1.868L12.628,1.894L12.728,1.922L12.827,1.951L12.926,1.981L13.025,2.013L13.123,2.045L13.221,2.079L13.317,2.114L13.414,2.15L13.51,2.187L13.605,2.225L13.7,2.265L13.794,2.305L13.887,2.347L13.98,2.39L14.073,2.433L14.164,2.478L14.255,2.524L14.346,2.571L14.436,2.619L14.525,2.669L14.613,2.719L14.701,2.77L14.788,2.822L14.875,2.875L14.96,2.93L15.045,2.985L15.13,3.041L15.213,3.098L15.296,3.157L15.378,3.216L15.46,3.276L15.54,3.337L15.62,3.399L15.699,3.462L15.778,3.526L15.855,3.591L15.932,3.656L16.008,3.723L16.083,3.791L16.158,3.859L16.231,3.928L16.304,3.998L16.376,4.069L16.447,4.141L16.517,4.214L16.586,4.287L16.654,4.362L16.722,4.437L16.788,4.513L16.854,4.59L16.919,4.667L16.983,4.745L17.046,4.825L17.108,4.904L17.169,4.985L17.229,5.067L17.288,5.149L17.346,5.232L17.404,5.315L17.46,5.4L17.515,5.485L17.569,5.57L17.623,5.657L17.675,5.744L17.726,5.832L17.776,5.92L17.826,6.009L17.874,6.099L17.921,6.189L17.967,6.281L18.012,6.372L18.055,6.465L18.098,6.557L18.14,6.651L18.18,6.745L18.22,6.84L18.258,6.935L18.295,7.031L18.331,7.127L18.366,7.224L18.4,7.322L18.432,7.42L18.464,7.519L18.494,7.618L18.523,7.717L18.551,7.817L18.577,7.918L18.602,8.019L18.627,8.121L18.65,8.223L18.671,8.325L18.692,8.428L18.711,8.532L18.729,8.635L18.745,8.74L18.761,8.844L18.775,8.949L18.787,9.055L18.799,9.161L18.809,9.267L18.818,9.374L18.825,9.481L18.831,9.588L18.836,9.696L18.84,9.804L18.842,9.912L18.842,10.021L18.842,10.129L18.84,10.238L18.836,10.346L18.831,10.453L18.825,10.561L18.818,10.668L18.809,10.774L18.799,10.881L18.787,10.987L18.775,11.092L18.761,11.197L18.745,11.302L18.729,11.406L18.711,11.51L18.692,11.613L18.671,11.716L18.65,11.819L18.627,11.921L18.602,12.022L18.577,12.123L18.551,12.224L18.523,12.324L18.494,12.424L18.464,12.523L18.432,12.621L18.4,12.72L18.366,12.817L18.331,12.914L18.295,13.01L18.258,13.106L18.22,13.202L18.18,13.296L18.14,13.39L18.098,13.484L18.055,13.577L18.012,13.669L17.967,13.761L17.921,13.852L17.874,13.942L17.826,14.032L17.776,14.121L17.726,14.21L17.675,14.298L17.623,14.385L17.569,14.471L17.515,14.557L17.46,14.642L17.404,14.726L17.346,14.81L17.288,14.893L17.229,14.975L17.169,15.056L17.108,15.137L17.046,15.217L16.983,15.296L16.919,15.374L16.854,15.452L16.788,15.529L16.722,15.605L16.654,15.68L16.586,15.754L16.517,15.828L16.447,15.9L16.376,15.972L16.304,16.043L16.231,16.113L16.158,16.182L16.083,16.251L16.008,16.318L15.932,16.385L15.855,16.451L15.778,16.515L15.699,16.579L15.62,16.642L15.54,16.704L15.46,16.765L15.378,16.826L15.296,16.885L15.213,16.943L15.13,17L15.045,17.056L14.96,17.112L14.875,17.166L14.788,17.219L14.701,17.271L14.613,17.323L14.525,17.373L14.436,17.422L14.346,17.47L14.255,17.517L14.164,17.563L14.073,17.608L13.98,17.652L13.887,17.695L13.794,17.736L13.7,17.777L13.605,17.816L13.51,17.854L13.414,17.892L13.317,17.928L13.221,17.962L13.123,17.996L13.025,18.029L12.926,18.06L12.827,18.09L12.728,18.119L12.628,18.147L12.527,18.174L12.426,18.199L12.324,18.223L12.222,18.246L12.12,18.268L12.017,18.288L11.913,18.307L11.809,18.325L11.705,18.342L11.601,18.357L11.495,18.371L11.39,18.384L11.284,18.395L11.178,18.405L11.071,18.414L10.964,18.422L10.857,18.428L10.749,18.433L10.641,18.436L10.533,18.438L10.424,18.439L10.316,18.438L10.207,18.436L10.099,18.433L9.991,18.428L9.884,18.422L9.777,18.414L9.671,18.405L9.564,18.395L9.458,18.384L9.353,18.371L9.248,18.357L9.143,18.342L9.039,18.325L8.935,18.307L8.832,18.288L8.729,18.268L8.626,18.246L8.524,18.223L8.423,18.199L8.322,18.174L8.221,18.147L8.121,18.119L8.021,18.09L7.922,18.06L7.823,18.029L7.725,17.996L7.628,17.962L7.531,17.928L7.434,17.892L7.339,17.854L7.243,17.816L7.149,17.777L7.054,17.736L6.961,17.695L6.868,17.652L6.776,17.608L6.684,17.563L6.593,17.517L6.503,17.47L6.413,17.422L6.324,17.373L6.235,17.323L6.147,17.271L6.06,17.219L5.974,17.166L5.888,17.112L5.803,17.056L5.719,17L5.635,16.943L5.552,16.885L5.47,16.826L5.389,16.765L5.308,16.704L5.228,16.642L5.149,16.579L5.071,16.515L4.993,16.451L4.916,16.385L4.84,16.318L4.765,16.251L4.691,16.182L4.617,16.113L4.545,16.043L4.473,15.972L4.402,15.9L4.332,15.828L4.262,15.754L4.194,15.68L4.127,15.605L4.06,15.529L3.994,15.452L3.929,15.374L3.866,15.296L3.803,15.217L3.741,15.137L3.68,15.056L3.619,14.975L3.56,14.893L3.502,14.81L3.445,14.726L3.388,14.642L3.333,14.557L3.279,14.471L3.226,14.385L3.173,14.298L3.122,14.21L3.072,14.121L3.023,14.032L2.975,13.942L2.928,13.852L2.882,13.761L2.837,13.669L2.793,13.577L2.75,13.484L2.709,13.39L2.668,13.296L2.629,13.202L2.59,13.106L2.553,13.01L2.517,12.914L2.482,12.817L2.449,12.72L2.416,12.621L2.385,12.523L2.355,12.424L2.326,12.324L2.298,12.224L2.271,12.123L2.246,12.022L2.222,11.921L2.199,11.819L2.177,11.716L2.157,11.613L2.138,11.51L2.12,11.406L2.103,11.302L2.088,11.197L2.074,11.092L2.061,10.987L2.05,10.881L2.039,10.774L2.031,10.668L2.023,10.561L2.017,10.453L2.012,10.346L2.009,10.238L2.007,10.129L2.006,10.021L2.007,9.912L2.009,9.804L2.012,9.696L2.017,9.588L2.023,9.481L2.031,9.374L2.039,9.267L2.05,9.161L2.061,9.055L2.074,8.949L2.088,8.844L2.103,8.74L2.12,8.635L2.138,8.532L2.157,8.428L2.177,8.325L2.199,8.223L2.222,8.121L2.246,8.019L2.271,7.918L2.298,7.817L2.326,7.717L2.355,7.618L2.385,7.519L2.416,7.42L2.449,7.322L2.482,7.224L2.517,7.127L2.553,7.031L2.59,6.935L2.629,6.84L2.668,6.745L2.709,6.651L2.75,6.557L2.793,6.465L2.837,6.372L2.882,6.281L2.928,6.189L2.975,6.099L3.023,6.009L3.072,5.92L3.122,5.832L3.173,5.744L3.226,5.657L3.279,5.57L3.333,5.485L3.388,5.4L3.445,5.315L3.502,5.232L3.56,5.149L3.619,5.067L3.68,4.985L3.741,4.904L3.803,4.825L3.866,4.745L3.929,4.667L3.994,4.59L4.06,4.513L4.127,4.437L4.194,4.362L4.262,4.287L4.332,4.214L4.402,4.141L4.473,4.069L4.545,3.998L4.617,3.928L4.691,3.859L4.765,3.791L4.84,3.723L4.916,3.656L4.993,3.591L5.071,3.526L5.149,3.462L5.228,3.399L5.308,3.337L5.389,3.276L5.47,3.216L5.552,3.157L5.635,3.098L5.719,3.041L5.803,2.985L5.888,2.93L5.974,2.875L6.06,2.822L6.147,2.77L6.235,2.719L6.324,2.669L6.413,2.619L6.503,2.571L6.593,2.524L6.684,2.478L6.776,2.433L6.868,2.39L6.961,2.347L7.054,2.305L7.149,2.265L7.243,2.225L7.339,2.187L7.434,2.15L7.531,2.114L7.628,2.079L7.725,2.045L7.823,2.013L7.922,1.981L8.021,1.951L8.121,1.922L8.221,1.894L8.322,1.868L8.423,1.842L8.524,1.818L8.626,1.795L8.729,1.774L8.832,1.753L8.935,1.734L9.039,1.716L9.143,1.7L9.248,1.684L9.353,1.67L9.458,1.658L9.564,1.646L9.671,1.636L9.777,1.627L9.884,1.62L9.991,1.614L10.099,1.609L10.207,1.605L10.316,1.603L10.424,1.603L10.533,1.603ZM10.319,1.861L10.214,1.863L10.109,1.866L10.005,1.871L9.9,1.877L9.797,1.884L9.693,1.893L9.59,1.902L9.488,1.914L9.385,1.926L9.284,1.94L9.182,1.954L9.081,1.971L8.98,1.988L8.88,2.006L8.78,2.026L8.681,2.047L8.582,2.069L8.484,2.093L8.386,2.117L8.288,2.143L8.191,2.17L8.095,2.198L7.999,2.227L7.903,2.258L7.808,2.289L7.714,2.322L7.62,2.356L7.526,2.391L7.433,2.427L7.341,2.464L7.249,2.502L7.158,2.541L7.067,2.582L6.977,2.623L6.888,2.666L6.799,2.709L6.71,2.754L6.623,2.799L6.536,2.846L6.449,2.893L6.364,2.942L6.279,2.992L6.194,3.042L6.11,3.094L6.027,3.147L5.945,3.2L5.863,3.255L5.782,3.31L5.702,3.367L5.622,3.424L5.543,3.482L5.465,3.542L5.387,3.602L5.311,3.663L5.235,3.725L5.159,3.788L5.085,3.851L5.011,3.916L4.939,3.981L4.866,4.048L4.795,4.115L4.725,4.183L4.655,4.252L4.586,4.321L4.518,4.392L4.451,4.463L4.385,4.535L4.319,4.608L4.255,4.682L4.191,4.756L4.128,4.831L4.066,4.907L4.005,4.984L3.945,5.061L3.886,5.14L3.828,5.218L3.77,5.298L3.714,5.378L3.658,5.459L3.604,5.541L3.55,5.624L3.498,5.707L3.446,5.791L3.395,5.875L3.346,5.96L3.297,6.046L3.249,6.132L3.203,6.219L3.157,6.307L3.113,6.395L3.069,6.484L3.027,6.574L2.985,6.664L2.945,6.754L2.905,6.846L2.867,6.937L2.83,7.03L2.794,7.123L2.759,7.216L2.726,7.31L2.693,7.405L2.661,7.5L2.631,7.595L2.602,7.691L2.574,7.788L2.547,7.885L2.521,7.982L2.496,8.08L2.473,8.179L2.451,8.278L2.43,8.377L2.41,8.477L2.391,8.577L2.374,8.678L2.358,8.779L2.343,8.88L2.329,8.982L2.317,9.084L2.306,9.187L2.296,9.29L2.288,9.393L2.28,9.497L2.274,9.601L2.27,9.705L2.266,9.81L2.264,9.915L2.264,10.021L2.264,10.126L2.266,10.231L2.27,10.336L2.274,10.44L2.28,10.544L2.288,10.648L2.296,10.752L2.306,10.855L2.317,10.957L2.329,11.059L2.343,11.161L2.358,11.263L2.374,11.364L2.391,11.464L2.41,11.565L2.43,11.664L2.451,11.764L2.473,11.863L2.496,11.961L2.521,12.059L2.547,12.157L2.574,12.254L2.602,12.35L2.631,12.446L2.661,12.542L2.693,12.637L2.726,12.731L2.759,12.825L2.794,12.919L2.83,13.012L2.867,13.104L2.905,13.196L2.945,13.287L2.985,13.378L3.027,13.468L3.069,13.557L3.113,13.646L3.157,13.734L3.203,13.822L3.249,13.909L3.297,13.996L3.346,14.081L3.395,14.166L3.446,14.251L3.498,14.335L3.55,14.418L3.604,14.5L3.658,14.582L3.714,14.663L3.77,14.743L3.828,14.823L3.886,14.902L3.945,14.98L4.005,15.058L4.066,15.134L4.128,15.21L4.191,15.285L4.255,15.36L4.319,15.434L4.385,15.506L4.451,15.578L4.518,15.65L4.586,15.72L4.655,15.79L4.725,15.859L4.795,15.927L4.866,15.994L4.939,16.06L5.011,16.126L5.085,16.19L5.159,16.254L5.235,16.317L5.311,16.379L5.387,16.44L5.465,16.5L5.543,16.559L5.622,16.617L5.702,16.675L5.782,16.731L5.863,16.787L5.945,16.841L6.027,16.895L6.11,16.947L6.194,16.999L6.279,17.05L6.364,17.099L6.449,17.148L6.536,17.196L6.623,17.242L6.71,17.288L6.799,17.332L6.888,17.376L6.977,17.418L7.067,17.46L7.158,17.5L7.249,17.539L7.341,17.578L7.433,17.615L7.526,17.651L7.62,17.686L7.714,17.719L7.808,17.752L7.903,17.784L7.999,17.814L8.095,17.843L8.191,17.871L8.288,17.898L8.386,17.924L8.484,17.949L8.582,17.972L8.681,17.994L8.78,18.015L8.88,18.035L8.98,18.054L9.081,18.071L9.182,18.087L9.284,18.102L9.385,18.116L9.488,18.128L9.59,18.139L9.693,18.149L9.797,18.157L9.9,18.165L10.005,18.171L10.109,18.175L10.214,18.178L10.319,18.18L10.424,18.181L10.53,18.18L10.635,18.178L10.739,18.175L10.844,18.171L10.948,18.165L11.052,18.157L11.155,18.149L11.258,18.139L11.361,18.128L11.463,18.116L11.565,18.102L11.666,18.087L11.767,18.071L11.868,18.054L11.968,18.035L12.068,18.015L12.167,17.994L12.266,17.972L12.365,17.949L12.463,17.924L12.56,17.898L12.657,17.871L12.754,17.843L12.85,17.814L12.945,17.784L13.04,17.752L13.135,17.719L13.229,17.686L13.322,17.651L13.415,17.615L13.508,17.578L13.599,17.539L13.691,17.5L13.781,17.46L13.871,17.418L13.961,17.376L14.05,17.332L14.138,17.288L14.226,17.242L14.313,17.196L14.399,17.148L14.485,17.099L14.57,17.05L14.654,16.999L14.738,16.947L14.821,16.895L14.904,16.841L14.985,16.787L15.067,16.731L15.147,16.675L15.226,16.617L15.305,16.559L15.384,16.5L15.461,16.44L15.538,16.379L15.614,16.317L15.689,16.254L15.763,16.19L15.837,16.126L15.91,16.06L15.982,15.994L16.053,15.927L16.124,15.859L16.193,15.79L16.262,15.72L16.33,15.65L16.397,15.578L16.464,15.506L16.529,15.434L16.594,15.36L16.657,15.285L16.72,15.21L16.782,15.134L16.843,15.058L16.903,14.98L16.963,14.902L17.021,14.823L17.078,14.743L17.135,14.663L17.19,14.582L17.245,14.5L17.298,14.418L17.351,14.335L17.403,14.251L17.453,14.166L17.503,14.081L17.551,13.996L17.599,13.909L17.646,13.822L17.691,13.734L17.736,13.646L17.779,13.557L17.822,13.468L17.863,13.378L17.904,13.287L17.943,13.196L17.981,13.104L18.018,13.012L18.054,12.919L18.089,12.825L18.123,12.731L18.156,12.637L18.187,12.542L18.217,12.446L18.247,12.35L18.275,12.254L18.302,12.157L18.328,12.059L18.352,11.961L18.376,11.863L18.398,11.764L18.419,11.664L18.438,11.565L18.457,11.464L18.474,11.364L18.491,11.263L18.505,11.161L18.519,11.059L18.531,10.957L18.542,10.855L18.552,10.752L18.561,10.648L18.568,10.544L18.574,10.44L18.579,10.336L18.582,10.231L18.584,10.126L18.585,10.021L18.584,9.915L18.582,9.81L18.579,9.705L18.574,9.601L18.568,9.497L18.561,9.393L18.552,9.29L18.542,9.187L18.531,9.084L18.519,8.982L18.505,8.88L18.491,8.779L18.474,8.678L18.457,8.577L18.438,8.477L18.419,8.377L18.398,8.278L18.376,8.179L18.352,8.08L18.328,7.982L18.302,7.885L18.275,7.788L18.247,7.691L18.217,7.595L18.187,7.5L18.156,7.405L18.123,7.31L18.089,7.216L18.054,7.123L18.018,7.03L17.981,6.937L17.943,6.846L17.904,6.754L17.863,6.664L17.822,6.574L17.779,6.484L17.736,6.395L17.691,6.307L17.646,6.219L17.599,6.132L17.551,6.046L17.503,5.96L17.453,5.875L17.403,5.791L17.351,5.707L17.298,5.624L17.245,5.541L17.19,5.459L17.135,5.378L17.078,5.298L17.021,5.218L16.963,5.14L16.903,5.061L16.843,4.984L16.782,4.907L16.72,4.831L16.657,4.756L16.594,4.682L16.529,4.608L16.464,4.535L16.397,4.463L16.33,4.392L16.262,4.321L16.193,4.252L16.124,4.183L16.053,4.115L15.982,4.048L15.91,3.981L15.837,3.916L15.763,3.851L15.689,3.788L15.614,3.725L15.538,3.663L15.461,3.602L15.384,3.542L15.305,3.482L15.226,3.424L15.147,3.367L15.067,3.31L14.985,3.255L14.904,3.2L14.821,3.147L14.738,3.094L14.654,3.042L14.57,2.992L14.485,2.942L14.399,2.893L14.313,2.846L14.226,2.799L14.138,2.754L14.05,2.709L13.961,2.666L13.871,2.623L13.781,2.582L13.691,2.541L13.599,2.502L13.508,2.464L13.415,2.427L13.322,2.391L13.229,2.356L13.135,2.322L13.04,2.289L12.945,2.258L12.85,2.227L12.754,2.198L12.657,2.17L12.56,2.143L12.463,2.117L12.365,2.093L12.266,2.069L12.167,2.047L12.068,2.026L11.968,2.006L11.868,1.988L11.767,1.971L11.666,1.954L11.565,1.94L11.463,1.926L11.361,1.914L11.258,1.902L11.155,1.893L11.052,1.884L10.948,1.877L10.844,1.871L10.739,1.866L10.635,1.863L10.53,1.861L10.424,1.86L10.319,1.861ZM10.514,3.622L10.603,3.624L10.692,3.627L10.78,3.631L10.869,3.636L10.956,3.643L11.044,3.651L11.131,3.66L11.218,3.67L11.305,3.681L11.391,3.694L11.477,3.707L11.562,3.722L11.647,3.738L11.732,3.755L11.816,3.773L11.9,3.792L11.983,3.813L12.066,3.834L12.149,3.857L12.231,3.88L12.312,3.905L12.394,3.93L12.474,3.957L12.555,3.985L12.634,4.014L12.714,4.043L12.792,4.074L12.87,4.106L12.948,4.139L13.025,4.173L13.102,4.208L13.178,4.243L13.254,4.28L13.329,4.318L13.403,4.356L13.477,4.396L13.55,4.437L13.623,4.478L13.695,4.52L13.767,4.564L13.838,4.608L13.908,4.653L13.978,4.699L14.047,4.746L14.115,4.793L14.183,4.842L14.25,4.891L14.316,4.942L14.382,4.993L14.447,5.045L14.511,5.098L14.575,5.151L14.638,5.205L14.7,5.261L14.761,5.317L14.822,5.373L14.882,5.431L14.941,5.489L15,5.548L15.057,5.608L15.114,5.669L15.171,5.73L15.226,5.792L15.196,6.006L15.179,6.123L15.16,6.245L15.14,6.37L15.118,6.498L15.095,6.626L15.07,6.754L15.044,6.881L15.016,7.003L14.987,7.121L14.973,7.178L14.957,7.234L14.942,7.287L14.926,7.338L14.91,7.387L14.894,7.434L14.877,7.478L14.86,7.52L14.843,7.558L14.825,7.594L14.803,7.635L14.778,7.676L14.751,7.716L14.722,7.756L14.692,7.795L14.659,7.833L14.626,7.871L14.591,7.908L14.554,7.944L14.517,7.979L14.478,8.014L14.439,8.048L14.398,8.081L14.357,8.113L14.316,8.144L14.274,8.175L14.232,8.205L14.19,8.233L14.147,8.261L14.105,8.288L14.063,8.314L14.021,8.339L13.94,8.387L13.861,8.43L13.785,8.469L13.715,8.503L13.651,8.534L13.628,8.543L13.605,8.552L13.581,8.56L13.557,8.567L13.532,8.573L13.507,8.578L13.482,8.583L13.456,8.587L13.43,8.589L13.404,8.592L13.378,8.593L13.351,8.594L13.325,8.594L13.299,8.593L13.272,8.591L13.246,8.589L13.193,8.583L13.141,8.575L13.09,8.565L13.041,8.552L12.993,8.538L12.947,8.522L12.904,8.504L12.863,8.485L12.844,8.475L12.824,8.464L12.805,8.452L12.786,8.44L12.767,8.427L12.748,8.413L12.711,8.384L12.675,8.352L12.64,8.318L12.607,8.282L12.575,8.244L12.545,8.205L12.516,8.165L12.49,8.123L12.466,8.081L12.445,8.038L12.435,8.016L12.426,7.994L12.417,7.973L12.409,7.951L12.402,7.929L12.396,7.907L12.391,7.885L12.386,7.862L12.381,7.838L12.377,7.814L12.371,7.765L12.367,7.714L12.366,7.662L12.366,7.609L12.369,7.554L12.374,7.5L12.381,7.445L12.39,7.391L12.401,7.336L12.414,7.283L12.43,7.231L12.447,7.18L12.466,7.13L12.477,7.106L12.488,7.083L12.5,7.06L12.514,7.037L12.529,7.015L12.546,6.993L12.564,6.971L12.583,6.95L12.604,6.929L12.625,6.908L12.647,6.888L12.67,6.868L12.718,6.827L12.767,6.788L12.816,6.748L12.865,6.709L12.913,6.67L12.958,6.63L12.979,6.611L13,6.59L13.019,6.57L13.037,6.55L13.054,6.529L13.069,6.508L13.083,6.487L13.095,6.466L13.105,6.444L13.113,6.422L13.12,6.4L13.125,6.377L13.13,6.353L13.133,6.329L13.136,6.304L13.137,6.279L13.138,6.254L13.138,6.228L13.137,6.202L13.135,6.176L13.132,6.15L13.129,6.124L13.125,6.097L13.12,6.071L13.115,6.045L13.108,6.019L13.094,5.967L13.078,5.917L13.06,5.868L13.04,5.821L13.018,5.777L12.996,5.735L12.972,5.697L12.96,5.679L12.948,5.662L12.935,5.646L12.922,5.63L12.908,5.614L12.893,5.598L12.861,5.567L12.827,5.538L12.791,5.51L12.753,5.483L12.733,5.471L12.713,5.459L12.693,5.448L12.672,5.437L12.651,5.427L12.63,5.418L12.608,5.409L12.587,5.401L12.565,5.394L12.543,5.388L12.521,5.382L12.499,5.378L12.477,5.374L12.455,5.371L12.433,5.369L12.412,5.368L12.39,5.368L12.368,5.37L12.347,5.372L12.326,5.375L12.302,5.38L12.276,5.387L12.251,5.394L12.224,5.403L12.196,5.413L12.168,5.424L12.139,5.436L12.11,5.449L12.08,5.463L12.05,5.478L11.989,5.51L11.927,5.545L11.865,5.583L11.804,5.624L11.743,5.666L11.684,5.711L11.627,5.757L11.6,5.78L11.573,5.804L11.547,5.828L11.522,5.852L11.498,5.876L11.475,5.9L11.453,5.924L11.432,5.948L11.392,5.997L11.354,6.049L11.316,6.103L11.281,6.158L11.247,6.216L11.215,6.275L11.185,6.335L11.157,6.397L11.144,6.428L11.132,6.46L11.12,6.491L11.109,6.523L11.098,6.555L11.088,6.588L11.079,6.62L11.07,6.653L11.062,6.685L11.055,6.718L11.049,6.751L11.043,6.784L11.039,6.817L11.035,6.849L11.031,6.882L11.029,6.915L11.025,7.002L11.024,7.096L11.024,7.195L11.027,7.298L11.033,7.406L11.041,7.517L11.051,7.63L11.065,7.745L11.072,7.803L11.081,7.861L11.09,7.919L11.1,7.977L11.11,8.036L11.121,8.094L11.133,8.151L11.146,8.209L11.159,8.266L11.174,8.322L11.189,8.378L11.205,8.433L11.221,8.488L11.239,8.541L11.257,8.594L11.276,8.646L11.297,8.697L11.318,8.749L11.341,8.802L11.365,8.855L11.391,8.909L11.417,8.963L11.445,9.017L11.473,9.071L11.502,9.126L11.532,9.18L11.563,9.234L11.595,9.288L11.627,9.342L11.66,9.395L11.694,9.448L11.728,9.5L11.762,9.552L11.797,9.602L11.832,9.653L11.867,9.702L11.902,9.75L11.938,9.797L11.973,9.843L12.009,9.887L12.044,9.931L12.08,9.972L12.115,10.013L12.15,10.051L12.184,10.088L12.219,10.124L12.252,10.157L12.286,10.188L12.313,10.213L12.341,10.237L12.37,10.261L12.4,10.285L12.43,10.308L12.461,10.33L12.493,10.352L12.525,10.373L12.558,10.394L12.591,10.414L12.625,10.433L12.659,10.451L12.694,10.469L12.729,10.486L12.764,10.502L12.8,10.516L12.836,10.53L12.872,10.543L12.909,10.555L12.945,10.566L12.982,10.575L13.019,10.583L13.056,10.59L13.093,10.596L13.13,10.6L13.167,10.603L13.204,10.605L13.241,10.605L13.278,10.603L13.314,10.6L13.35,10.596L13.386,10.59L13.433,10.579L13.482,10.567L13.533,10.552L13.585,10.535L13.639,10.516L13.695,10.495L13.752,10.472L13.811,10.447L13.87,10.421L13.931,10.393L13.992,10.364L14.054,10.333L14.116,10.301L14.179,10.269L14.242,10.235L14.305,10.2L14.368,10.164L14.43,10.128L14.493,10.092L14.554,10.054L14.676,9.979L14.793,9.904L14.906,9.828L15.012,9.754L15.062,9.718L15.11,9.682L15.157,9.647L15.201,9.613L15.238,9.582L15.275,9.549L15.314,9.512L15.352,9.474L15.392,9.432L15.431,9.389L15.47,9.345L15.509,9.298L15.549,9.251L15.587,9.203L15.626,9.154L15.664,9.104L15.737,9.005L15.807,8.908L15.873,8.814L15.933,8.725L15.986,8.645L16.032,8.575L16.097,8.472L16.12,8.434L16.59,8.302L16.618,8.405L16.644,8.509L16.668,8.613L16.691,8.718L16.712,8.823L16.731,8.93L16.748,9.036L16.764,9.143L16.778,9.251L16.79,9.36L16.8,9.469L16.809,9.578L16.815,9.688L16.82,9.798L16.823,9.909L16.824,10.021L16.823,10.096L16.822,10.171L16.82,10.245L16.817,10.32L16.813,10.394L16.808,10.468L16.803,10.541L16.796,10.615L16.789,10.688L16.781,10.761L16.772,10.834L16.763,10.906L16.752,10.979L16.741,11.05L16.729,11.122L16.716,11.194L16.703,11.265L16.688,11.336L16.673,11.406L16.657,11.477L16.64,11.547L16.623,11.616L16.605,11.686L16.586,11.755L16.566,11.824L16.545,11.892L16.524,11.96L16.502,12.028L16.479,12.096L16.456,12.163L16.432,12.23L16.407,12.296L16.381,12.362L16.355,12.428L16.328,12.493L16.3,12.558L16.272,12.623L16.243,12.687L16.213,12.751L16.182,12.815L16.151,12.878L16.119,12.941L16.087,13.003L16.054,13.065L16.02,13.126L15.985,13.188L15.95,13.248L15.915,13.309L15.878,13.368L15.841,13.428L15.803,13.487L15.765,13.545L15.726,13.603L15.687,13.661L15.647,13.718L15.606,13.775L15.565,13.831L15.523,13.887L15.48,13.942L15.437,13.997L15.393,14.052L15.349,14.106L15.304,14.159L15.259,14.212L15.213,14.264L15.166,14.316L15.119,14.368L15.072,14.418L15.023,14.469L14.975,14.519L14.925,14.568L14.876,14.617L14.825,14.665L14.775,14.712L14.723,14.76L14.671,14.806L14.619,14.852L14.566,14.898L14.513,14.942L14.459,14.987L14.405,15.031L14.35,15.074L14.294,15.116L14.239,15.158L14.182,15.2L14.126,15.24L14.069,15.281L14.011,15.32L13.953,15.359L13.894,15.397L13.835,15.435L13.776,15.472L13.716,15.509L13.656,15.544L13.595,15.579L13.534,15.614L13.473,15.648L13.411,15.681L13.348,15.714L13.286,15.745L13.223,15.777L13.159,15.807L13.095,15.837L13.031,15.866L12.966,15.895L12.901,15.922L12.836,15.95L12.77,15.976L12.704,16.002L12.638,16.026L12.571,16.051L12.504,16.074L12.436,16.097L12.368,16.119L12.3,16.14L12.232,16.161L12.163,16.181L12.094,16.2L12.025,16.218L11.955,16.236L11.885,16.252L11.815,16.268L11.744,16.284L11.673,16.298L11.602,16.312L11.531,16.325L11.459,16.337L11.387,16.348L11.227,16.206L11.138,16.126L11.046,16.041L10.95,15.953L10.854,15.862L10.757,15.769L10.661,15.674L10.568,15.579L10.478,15.485L10.434,15.439L10.392,15.393L10.352,15.347L10.313,15.302L10.275,15.258L10.24,15.215L10.207,15.173L10.176,15.132L10.148,15.093L10.122,15.054L10.098,15.017L10.078,14.982L10.056,14.94L10.036,14.897L10.018,14.852L10.001,14.806L9.985,14.759L9.971,14.711L9.959,14.662L9.948,14.612L9.938,14.562L9.93,14.511L9.922,14.46L9.916,14.408L9.911,14.356L9.907,14.304L9.904,14.252L9.902,14.201L9.901,14.149L9.9,14.098L9.901,14.047L9.902,13.997L9.903,13.948L9.906,13.899L9.912,13.805L9.92,13.715L9.93,13.631L9.94,13.553L9.951,13.483L9.955,13.459L9.961,13.434L9.968,13.41L9.975,13.386L9.984,13.362L9.993,13.339L10.004,13.315L10.015,13.292L10.027,13.269L10.04,13.246L10.053,13.223L10.067,13.201L10.082,13.179L10.098,13.157L10.113,13.136L10.13,13.115L10.164,13.075L10.2,13.037L10.237,13L10.275,12.966L10.313,12.934L10.352,12.905L10.391,12.879L10.429,12.856L10.448,12.845L10.468,12.835L10.489,12.826L10.51,12.817L10.531,12.808L10.553,12.8L10.598,12.786L10.645,12.773L10.692,12.763L10.741,12.756L10.79,12.75L10.839,12.747L10.888,12.746L10.937,12.747L10.986,12.751L11.034,12.757L11.057,12.761L11.08,12.765L11.103,12.77L11.126,12.776L11.148,12.782L11.17,12.789L11.191,12.797L11.213,12.806L11.235,12.815L11.257,12.825L11.301,12.847L11.346,12.873L11.39,12.9L11.434,12.93L11.478,12.963L11.52,12.997L11.562,13.033L11.602,13.071L11.641,13.111L11.678,13.152L11.713,13.193L11.746,13.236L11.776,13.28L11.79,13.302L11.803,13.324L11.816,13.347L11.827,13.371L11.837,13.396L11.846,13.422L11.853,13.449L11.86,13.477L11.866,13.506L11.872,13.535L11.876,13.565L11.881,13.595L11.887,13.657L11.893,13.72L11.898,13.783L11.904,13.846L11.91,13.907L11.917,13.966L11.922,13.995L11.927,14.023L11.934,14.051L11.94,14.077L11.948,14.102L11.957,14.127L11.967,14.15L11.978,14.172L11.991,14.192L12.004,14.211L12.019,14.229L12.035,14.247L12.053,14.264L12.071,14.28L12.09,14.296L12.11,14.311L12.13,14.326L12.152,14.34L12.174,14.353L12.196,14.366L12.22,14.379L12.243,14.391L12.268,14.402L12.292,14.412L12.317,14.422L12.342,14.432L12.393,14.449L12.444,14.463L12.494,14.475L12.544,14.485L12.593,14.492L12.64,14.496L12.685,14.498L12.707,14.498L12.728,14.497L12.748,14.495L12.769,14.493L12.79,14.49L12.812,14.487L12.855,14.478L12.898,14.466L12.942,14.451L12.985,14.434L13.006,14.425L13.027,14.415L13.048,14.404L13.068,14.393L13.088,14.381L13.108,14.368L13.127,14.355L13.145,14.342L13.163,14.328L13.181,14.313L13.198,14.298L13.214,14.282L13.229,14.266L13.244,14.25L13.257,14.232L13.27,14.215L13.282,14.197L13.293,14.178L13.303,14.159L13.312,14.14L13.321,14.117L13.33,14.092L13.338,14.066L13.346,14.039L13.353,14.011L13.36,13.982L13.366,13.951L13.371,13.919L13.376,13.887L13.381,13.854L13.388,13.785L13.393,13.714L13.396,13.641L13.396,13.568L13.394,13.494L13.39,13.42L13.384,13.347L13.38,13.311L13.375,13.276L13.37,13.241L13.364,13.207L13.357,13.173L13.35,13.141L13.342,13.109L13.334,13.078L13.315,13.018L13.294,12.957L13.27,12.896L13.243,12.836L13.214,12.776L13.183,12.716L13.149,12.658L13.114,12.6L13.095,12.572L13.076,12.544L13.056,12.516L13.036,12.489L13.015,12.463L12.994,12.436L12.972,12.411L12.949,12.386L12.927,12.361L12.903,12.337L12.88,12.313L12.856,12.29L12.831,12.268L12.806,12.247L12.78,12.226L12.754,12.206L12.684,12.154L12.607,12.1L12.524,12.046L12.437,11.991L12.344,11.935L12.248,11.88L12.148,11.826L12.045,11.773L11.993,11.747L11.94,11.722L11.886,11.697L11.832,11.673L11.778,11.649L11.724,11.626L11.669,11.604L11.614,11.583L11.559,11.562L11.505,11.542L11.45,11.524L11.395,11.506L11.341,11.49L11.286,11.475L11.232,11.461L11.179,11.448L11.125,11.436L11.069,11.425L11.013,11.415L10.955,11.405L10.897,11.396L10.837,11.388L10.777,11.381L10.716,11.374L10.654,11.368L10.593,11.363L10.53,11.359L10.468,11.355L10.405,11.352L10.343,11.35L10.28,11.348L10.218,11.347L10.156,11.347L10.094,11.348L10.033,11.349L9.973,11.351L9.913,11.354L9.854,11.357L9.796,11.361L9.74,11.366L9.684,11.371L9.63,11.377L9.576,11.384L9.525,11.391L9.475,11.399L9.427,11.408L9.38,11.418L9.336,11.428L9.3,11.437L9.264,11.447L9.228,11.458L9.192,11.469L9.156,11.482L9.12,11.495L9.084,11.509L9.049,11.524L9.013,11.54L8.978,11.556L8.943,11.574L8.909,11.592L8.875,11.611L8.842,11.631L8.809,11.651L8.777,11.673L8.745,11.695L8.714,11.718L8.684,11.742L8.655,11.766L8.627,11.792L8.599,11.818L8.573,11.844L8.547,11.872L8.523,11.9L8.5,11.929L8.478,11.959L8.458,11.99L8.439,12.021L8.421,12.053L8.404,12.086L8.39,12.119L8.372,12.164L8.355,12.211L8.34,12.262L8.324,12.315L8.31,12.371L8.297,12.429L8.284,12.489L8.272,12.551L8.261,12.615L8.25,12.681L8.24,12.748L8.231,12.817L8.223,12.886L8.215,12.956L8.208,13.028L8.202,13.099L8.197,13.171L8.192,13.243L8.188,13.316L8.184,13.387L8.179,13.53L8.177,13.67L8.177,13.805L8.179,13.935L8.182,13.997L8.184,14.057L8.188,14.115L8.192,14.17L8.196,14.218L8.203,14.268L8.212,14.32L8.223,14.374L8.235,14.429L8.249,14.486L8.264,14.543L8.281,14.602L8.299,14.661L8.317,14.72L8.337,14.779L8.357,14.838L8.398,14.954L8.44,15.067L8.482,15.173L8.522,15.272L8.559,15.361L8.592,15.439L8.641,15.55L8.659,15.591L8.485,16.121L8.365,16.081L8.245,16.039L8.126,15.995L8.009,15.948L7.893,15.899L7.778,15.848L7.664,15.795L7.551,15.74L7.44,15.682L7.33,15.623L7.221,15.561L7.114,15.497L7.007,15.432L6.903,15.364L6.799,15.294L6.698,15.222L6.597,15.149L6.498,15.073L6.401,14.996L6.305,14.917L6.211,14.836L6.118,14.753L6.027,14.669L5.938,14.582L5.85,14.495L5.764,14.405L5.68,14.314L5.597,14.221L5.517,14.126L5.438,14.03L5.361,13.933L5.285,13.833L5.212,13.733L5.141,13.631L5.071,13.527L5.004,13.422L4.938,13.316L4.875,13.208L4.814,13.099L4.754,12.989L4.697,12.878L4.642,12.765L4.589,12.651L4.538,12.536L4.49,12.419L4.444,12.302L4.4,12.183L4.358,12.063L4.319,11.942L4.282,11.821L4.247,11.698L4.231,11.636L4.215,11.574L4.2,11.512L4.185,11.449L4.171,11.386L4.158,11.323L4.145,11.26L4.133,11.197L4.121,11.133L4.11,11.069L4.1,11.005L4.09,10.941L4.081,10.876L4.073,10.812L4.065,10.747L4.058,10.682L4.052,10.616L4.046,10.551L4.041,10.485L4.037,10.419L4.033,10.353L4.03,10.287L4.028,10.221L4.026,10.154L4.025,10.088L4.025,10.021L4.025,9.955L4.026,9.89L4.028,9.825L4.03,9.76L4.033,9.695L4.036,9.63L4.041,9.566L4.046,9.501L4.051,9.437L4.057,9.373L4.071,9.246L4.088,9.119L4.107,8.993L4.128,8.868L4.152,8.744L4.179,8.62L4.207,8.498L4.238,8.376L4.272,8.256L4.307,8.136L4.345,8.017L4.542,7.929L4.65,7.882L4.764,7.833L4.881,7.784L5.001,7.735L5.123,7.687L5.245,7.64L5.366,7.595L5.485,7.553L5.601,7.515L5.657,7.497L5.712,7.481L5.766,7.466L5.818,7.452L5.868,7.44L5.917,7.429L5.963,7.419L6.007,7.412L6.049,7.406L6.089,7.402L6.136,7.399L6.184,7.399L6.232,7.4L6.281,7.404L6.33,7.409L6.38,7.416L6.429,7.425L6.479,7.435L6.529,7.447L6.579,7.46L6.629,7.474L6.679,7.49L6.728,7.506L6.777,7.524L6.826,7.543L6.874,7.562L6.921,7.582L6.968,7.603L7.014,7.624L7.059,7.645L7.104,7.667L7.147,7.689L7.23,7.734L7.309,7.778L7.382,7.821L7.448,7.862L7.508,7.901L7.528,7.915L7.548,7.93L7.567,7.946L7.586,7.963L7.604,7.981L7.622,7.999L7.639,8.018L7.656,8.038L7.672,8.058L7.688,8.079L7.703,8.101L7.717,8.123L7.731,8.145L7.745,8.168L7.758,8.192L7.77,8.215L7.793,8.263L7.813,8.311L7.831,8.36L7.847,8.408L7.86,8.457L7.87,8.504L7.878,8.55L7.884,8.594L7.885,8.616L7.886,8.639L7.887,8.661L7.886,8.684L7.885,8.707L7.884,8.731L7.878,8.778L7.87,8.825L7.86,8.872L7.847,8.92L7.832,8.967L7.815,9.013L7.796,9.058L7.775,9.103L7.751,9.145L7.726,9.186L7.713,9.206L7.699,9.226L7.685,9.244L7.671,9.263L7.656,9.28L7.64,9.297L7.625,9.314L7.608,9.33L7.59,9.346L7.572,9.362L7.534,9.393L7.492,9.424L7.449,9.453L7.403,9.48L7.356,9.507L7.307,9.532L7.257,9.555L7.206,9.576L7.154,9.595L7.102,9.612L7.049,9.627L6.997,9.639L6.944,9.649L6.919,9.652L6.893,9.656L6.867,9.657L6.84,9.658L6.813,9.657L6.786,9.654L6.758,9.65L6.73,9.645L6.701,9.639L6.672,9.631L6.643,9.623L6.614,9.615L6.554,9.596L6.495,9.575L6.435,9.554L6.376,9.533L6.318,9.513L6.26,9.496L6.232,9.489L6.204,9.482L6.177,9.476L6.15,9.472L6.124,9.468L6.098,9.467L6.073,9.466L6.048,9.467L6.024,9.47L6.001,9.475L5.979,9.481L5.956,9.489L5.934,9.497L5.911,9.507L5.889,9.518L5.867,9.53L5.845,9.543L5.824,9.556L5.802,9.571L5.781,9.586L5.76,9.603L5.74,9.619L5.72,9.637L5.7,9.655L5.68,9.673L5.662,9.692L5.625,9.732L5.591,9.772L5.559,9.813L5.53,9.855L5.504,9.897L5.481,9.938L5.461,9.978L5.452,9.998L5.444,10.017L5.437,10.037L5.43,10.057L5.424,10.077L5.419,10.098L5.409,10.141L5.403,10.186L5.398,10.231L5.396,10.278L5.396,10.301L5.396,10.324L5.398,10.347L5.4,10.371L5.402,10.394L5.405,10.417L5.409,10.439L5.414,10.462L5.42,10.484L5.426,10.506L5.433,10.527L5.44,10.549L5.449,10.569L5.458,10.589L5.468,10.609L5.479,10.628L5.49,10.646L5.503,10.664L5.516,10.681L5.53,10.697L5.547,10.715L5.566,10.733L5.586,10.751L5.608,10.769L5.631,10.787L5.655,10.805L5.68,10.823L5.707,10.841L5.734,10.859L5.763,10.877L5.822,10.912L5.885,10.945L5.95,10.978L6.017,11.008L6.086,11.037L6.155,11.064L6.224,11.087L6.258,11.098L6.292,11.109L6.326,11.118L6.36,11.127L6.393,11.134L6.425,11.141L6.458,11.147L6.489,11.152L6.552,11.16L6.616,11.165L6.681,11.168L6.748,11.169L6.814,11.167L6.881,11.163L6.948,11.157L7.015,11.148L7.049,11.142L7.082,11.136L7.115,11.129L7.149,11.122L7.181,11.114L7.214,11.105L7.246,11.096L7.279,11.086L7.31,11.075L7.342,11.064L7.373,11.052L7.404,11.039L7.434,11.026L7.464,11.012L7.494,10.997L7.523,10.982L7.599,10.939L7.679,10.891L7.763,10.838L7.849,10.78L7.937,10.719L8.027,10.653L8.117,10.584L8.208,10.512L8.253,10.475L8.298,10.437L8.343,10.399L8.387,10.36L8.431,10.32L8.474,10.28L8.517,10.239L8.559,10.198L8.6,10.156L8.64,10.114L8.68,10.072L8.718,10.029L8.755,9.986L8.792,9.943L8.827,9.899L8.86,9.856L8.893,9.811L8.926,9.765L8.958,9.718L8.991,9.669L9.023,9.619L9.055,9.569L9.086,9.517L9.117,9.464L9.148,9.41L9.178,9.356L9.207,9.301L9.236,9.245L9.265,9.19L9.293,9.133L9.32,9.077L9.346,9.021L9.372,8.964L9.396,8.908L9.42,8.852L9.443,8.796L9.465,8.74L9.487,8.685L9.507,8.631L9.526,8.577L9.544,8.524L9.56,8.472L9.576,8.421L9.59,8.371L9.603,8.322L9.615,8.274L9.625,8.228L9.635,8.183L9.641,8.147L9.647,8.11L9.652,8.073L9.656,8.035L9.659,7.997L9.662,7.959L9.664,7.921L9.665,7.882L9.665,7.843L9.664,7.804L9.663,7.766L9.66,7.727L9.657,7.688L9.652,7.649L9.647,7.611L9.641,7.573L9.633,7.535L9.625,7.497L9.616,7.46L9.605,7.423L9.594,7.387L9.581,7.352L9.568,7.316L9.553,7.282L9.537,7.248L9.52,7.215L9.502,7.183L9.482,7.152L9.462,7.122L9.44,7.092L9.416,7.064L9.392,7.037L9.359,7.002L9.322,6.968L9.283,6.933L9.24,6.897L9.195,6.861L9.148,6.825L9.098,6.789L9.047,6.752L8.993,6.716L8.937,6.679L8.88,6.643L8.821,6.606L8.761,6.57L8.7,6.534L8.638,6.499L8.575,6.464L8.512,6.429L8.448,6.395L8.384,6.362L8.32,6.329L8.192,6.266L8.065,6.206L7.942,6.151L7.823,6.1L7.765,6.077L7.709,6.055L7.655,6.034L7.603,6.015L7.558,5.999L7.509,5.985L7.458,5.972L7.404,5.96L7.349,5.948L7.292,5.938L7.233,5.928L7.173,5.919L7.112,5.911L7.05,5.904L6.988,5.897L6.926,5.891L6.803,5.881L6.683,5.873L6.569,5.868L6.463,5.863L6.366,5.861L6.282,5.859L6.16,5.858L6.116,5.859L5.815,5.583L5.87,5.527L5.925,5.471L5.981,5.416L6.038,5.362L6.096,5.308L6.154,5.256L6.213,5.203L6.273,5.152L6.333,5.101L6.394,5.051L6.455,5.002L6.517,4.953L6.58,4.905L6.643,4.858L6.707,4.812L6.772,4.767L6.837,4.722L6.902,4.678L6.968,4.635L7.035,4.592L7.103,4.551L7.17,4.51L7.239,4.47L7.308,4.431L7.377,4.393L7.447,4.355L7.518,4.319L7.589,4.283L7.66,4.248L7.732,4.214L7.804,4.181L7.877,4.149L7.951,4.117L8.025,4.087L8.099,4.057L8.174,4.029L8.249,4.001L8.325,3.974L8.401,3.948L8.477,3.923L8.554,3.899L8.632,3.876L8.71,3.854L8.788,3.833L8.866,3.813L8.945,3.793L9.025,3.775L9.104,3.758L9.184,3.741L9.265,3.726L9.345,3.712L9.427,3.699L9.508,3.686L9.59,3.675L9.672,3.665L9.754,3.656L9.837,3.648L9.92,3.641L10.003,3.635L10.087,3.63L10.171,3.626L10.255,3.623L10.34,3.622L10.424,3.621L10.514,3.622ZM10.343,3.879L10.262,3.881L10.181,3.884L10.1,3.887L10.02,3.892L9.94,3.898L9.86,3.904L9.781,3.912L9.702,3.921L9.623,3.931L9.545,3.941L9.466,3.953L9.389,3.966L9.311,3.98L9.234,3.994L9.157,4.01L9.081,4.026L9.005,4.044L8.929,4.062L8.854,4.082L8.779,4.102L8.704,4.123L8.63,4.146L8.556,4.169L8.482,4.193L8.409,4.218L8.337,4.243L8.265,4.27L8.193,4.297L8.122,4.326L8.051,4.355L7.98,4.385L7.91,4.416L7.841,4.448L7.772,4.481L7.703,4.514L7.635,4.548L7.567,4.583L7.5,4.619L7.433,4.656L7.367,4.694L7.302,4.732L7.237,4.771L7.172,4.811L7.108,4.852L7.044,4.893L6.981,4.935L6.919,4.978L6.857,5.022L6.796,5.066L6.735,5.111L6.675,5.157L6.615,5.204L6.556,5.251L6.498,5.299L6.44,5.348L6.383,5.397L6.326,5.447L6.27,5.498L6.215,5.55L6.188,5.576L6.216,5.601L6.285,5.602L6.372,5.603L6.471,5.606L6.581,5.61L6.698,5.616L6.822,5.624L6.949,5.634L7.014,5.641L7.079,5.648L7.144,5.655L7.208,5.664L7.272,5.673L7.336,5.684L7.398,5.695L7.459,5.708L7.519,5.722L7.578,5.737L7.635,5.754L7.689,5.772L7.746,5.793L7.803,5.814L7.861,5.838L7.922,5.862L8.045,5.915L8.173,5.972L8.304,6.034L8.435,6.099L8.502,6.133L8.568,6.167L8.634,6.202L8.7,6.238L8.765,6.274L8.829,6.311L8.893,6.349L8.956,6.386L9.017,6.424L9.077,6.463L9.136,6.501L9.193,6.54L9.249,6.579L9.302,6.618L9.354,6.658L9.404,6.698L9.451,6.738L9.497,6.778L9.54,6.819L9.58,6.861L9.612,6.896L9.643,6.934L9.671,6.972L9.698,7.011L9.723,7.052L9.746,7.092L9.768,7.134L9.788,7.176L9.806,7.219L9.823,7.262L9.838,7.306L9.852,7.349L9.865,7.394L9.876,7.438L9.886,7.483L9.894,7.527L9.902,7.572L9.908,7.617L9.913,7.662L9.917,7.707L9.92,7.752L9.922,7.797L9.923,7.841L9.922,7.886L9.921,7.93L9.919,7.974L9.916,8.018L9.912,8.061L9.907,8.104L9.902,8.147L9.895,8.189L9.888,8.231L9.878,8.282L9.866,8.333L9.853,8.386L9.839,8.439L9.823,8.494L9.806,8.549L9.788,8.605L9.769,8.661L9.749,8.718L9.728,8.776L9.705,8.834L9.682,8.892L9.658,8.951L9.633,9.01L9.607,9.069L9.58,9.128L9.553,9.187L9.524,9.246L9.495,9.305L9.465,9.364L9.435,9.422L9.404,9.479L9.372,9.536L9.34,9.593L9.307,9.649L9.274,9.703L9.241,9.757L9.206,9.81L9.172,9.862L9.137,9.913L9.102,9.963L9.066,10.011L9.029,10.059L8.991,10.106L8.951,10.153L8.911,10.2L8.87,10.246L8.827,10.291L8.784,10.336L8.74,10.38L8.696,10.424L8.651,10.467L8.605,10.51L8.559,10.552L8.512,10.593L8.465,10.633L8.418,10.673L8.37,10.713L8.276,10.788L8.181,10.86L8.087,10.929L7.994,10.993L7.903,11.054L7.815,11.11L7.729,11.161L7.646,11.208L7.611,11.226L7.576,11.244L7.541,11.261L7.505,11.276L7.468,11.291L7.432,11.305L7.395,11.319L7.358,11.331L7.32,11.343L7.283,11.353L7.245,11.364L7.207,11.373L7.169,11.381L7.131,11.389L7.093,11.396L7.054,11.402L6.978,11.413L6.902,11.42L6.825,11.425L6.749,11.427L6.674,11.426L6.599,11.422L6.525,11.416L6.453,11.407L6.414,11.401L6.376,11.394L6.337,11.386L6.298,11.377L6.26,11.367L6.221,11.356L6.182,11.345L6.142,11.332L6.066,11.306L5.989,11.276L5.914,11.244L5.839,11.21L5.767,11.174L5.697,11.136L5.63,11.098L5.596,11.077L5.564,11.056L5.533,11.035L5.503,11.013L5.473,10.991L5.445,10.969L5.417,10.946L5.391,10.922L5.365,10.897L5.34,10.871L5.317,10.845L5.296,10.818L5.276,10.789L5.258,10.761L5.241,10.731L5.226,10.702L5.212,10.672L5.2,10.641L5.189,10.611L5.179,10.58L5.17,10.55L5.163,10.519L5.156,10.488L5.151,10.457L5.147,10.426L5.143,10.396L5.141,10.365L5.139,10.334L5.138,10.304L5.138,10.271L5.141,10.213L5.147,10.153L5.156,10.094L5.168,10.038L5.176,10.008L5.184,9.98L5.193,9.952L5.204,9.925L5.215,9.897L5.227,9.869L5.253,9.817L5.283,9.764L5.316,9.712L5.352,9.661L5.39,9.61L5.432,9.561L5.475,9.514L5.5,9.49L5.524,9.467L5.548,9.444L5.574,9.422L5.6,9.401L5.626,9.38L5.654,9.36L5.682,9.341L5.711,9.323L5.741,9.305L5.772,9.289L5.803,9.273L5.836,9.259L5.869,9.246L5.904,9.235L5.941,9.224L5.983,9.216L6.027,9.21L6.069,9.208L6.11,9.209L6.149,9.212L6.187,9.217L6.224,9.223L6.26,9.23L6.295,9.239L6.331,9.248L6.396,9.268L6.46,9.289L6.521,9.311L6.58,9.332L6.636,9.351L6.69,9.368L6.714,9.376L6.737,9.382L6.759,9.387L6.78,9.392L6.799,9.395L6.817,9.398L6.832,9.399L6.845,9.4L6.856,9.4L6.868,9.399L6.884,9.397L6.902,9.394L6.944,9.387L6.985,9.377L7.027,9.365L7.07,9.351L7.112,9.336L7.154,9.318L7.195,9.299L7.235,9.279L7.274,9.258L7.31,9.235L7.344,9.212L7.376,9.189L7.406,9.165L7.418,9.154L7.43,9.143L7.442,9.132L7.452,9.121L7.462,9.11L7.472,9.099L7.481,9.087L7.491,9.074L7.501,9.06L7.509,9.048L7.528,9.017L7.545,8.985L7.561,8.952L7.576,8.918L7.589,8.883L7.6,8.847L7.61,8.812L7.617,8.776L7.623,8.742L7.627,8.706L7.628,8.692L7.629,8.676L7.629,8.661L7.629,8.646L7.628,8.632L7.627,8.62L7.623,8.588L7.617,8.554L7.609,8.519L7.599,8.482L7.587,8.444L7.573,8.406L7.557,8.368L7.539,8.33L7.53,8.313L7.521,8.296L7.511,8.279L7.5,8.262L7.49,8.246L7.479,8.23L7.468,8.215L7.456,8.201L7.445,8.187L7.434,8.175L7.422,8.163L7.411,8.152L7.399,8.141L7.388,8.132L7.377,8.123L7.364,8.115L7.31,8.08L7.248,8.041L7.18,8.001L7.107,7.96L7.028,7.918L6.988,7.897L6.947,7.877L6.905,7.857L6.862,7.838L6.819,7.819L6.776,7.8L6.732,7.783L6.688,7.766L6.643,7.75L6.599,7.735L6.555,7.721L6.511,7.708L6.467,7.697L6.424,7.687L6.381,7.678L6.339,7.671L6.298,7.665L6.258,7.66L6.219,7.658L6.181,7.656L6.145,7.657L6.109,7.659L6.08,7.662L6.047,7.666L6.01,7.673L5.97,7.681L5.927,7.69L5.882,7.702L5.834,7.714L5.784,7.728L5.733,7.744L5.68,7.76L5.568,7.797L5.454,7.837L5.336,7.881L5.217,7.927L5.098,7.974L4.98,8.022L4.864,8.071L4.753,8.119L4.646,8.165L4.556,8.206L4.553,8.212L4.519,8.327L4.487,8.443L4.458,8.559L4.43,8.677L4.405,8.795L4.382,8.914L4.361,9.034L4.343,9.155L4.327,9.277L4.313,9.4L4.308,9.46L4.302,9.522L4.298,9.584L4.294,9.646L4.29,9.708L4.287,9.77L4.285,9.832L4.284,9.895L4.283,9.958L4.282,10.021L4.283,10.085L4.284,10.149L4.285,10.213L4.288,10.277L4.291,10.34L4.294,10.404L4.298,10.467L4.303,10.53L4.309,10.593L4.315,10.655L4.322,10.718L4.329,10.78L4.337,10.842L4.346,10.904L4.355,10.966L4.365,11.027L4.375,11.088L4.386,11.15L4.398,11.21L4.41,11.271L4.423,11.331L4.436,11.392L4.45,11.452L4.465,11.511L4.48,11.571L4.496,11.63L4.529,11.748L4.565,11.865L4.602,11.981L4.642,12.096L4.684,12.21L4.729,12.322L4.775,12.434L4.824,12.545L4.875,12.654L4.928,12.762L4.982,12.869L5.039,12.975L5.098,13.08L5.159,13.183L5.222,13.285L5.287,13.386L5.353,13.485L5.422,13.583L5.492,13.68L5.564,13.775L5.638,13.869L5.714,13.961L5.792,14.051L5.871,14.141L5.952,14.228L6.034,14.314L6.118,14.399L6.204,14.482L6.292,14.563L6.381,14.642L6.471,14.72L6.563,14.796L6.657,14.87L6.751,14.942L6.848,15.013L6.946,15.082L7.045,15.149L7.145,15.214L7.247,15.277L7.35,15.338L7.455,15.397L7.56,15.454L7.667,15.51L7.775,15.563L7.885,15.614L7.995,15.663L8.106,15.71L8.219,15.754L8.322,15.793L8.383,15.605L8.355,15.541L8.321,15.461L8.283,15.37L8.242,15.269L8.199,15.159L8.156,15.043L8.113,14.923L8.092,14.86L8.072,14.798L8.052,14.736L8.034,14.674L8.016,14.612L7.999,14.55L7.984,14.488L7.971,14.427L7.959,14.367L7.948,14.307L7.94,14.248L7.935,14.192L7.931,14.131L7.927,14.07L7.924,14.007L7.922,13.942L7.919,13.808L7.919,13.668L7.922,13.523L7.927,13.377L7.93,13.302L7.935,13.227L7.94,13.153L7.945,13.078L7.952,13.004L7.959,12.93L7.967,12.857L7.976,12.784L7.985,12.713L7.995,12.642L8.006,12.573L8.018,12.505L8.031,12.438L8.045,12.373L8.06,12.309L8.076,12.248L8.093,12.188L8.111,12.13L8.131,12.074L8.152,12.02L8.171,11.976L8.193,11.933L8.216,11.891L8.241,11.851L8.267,11.811L8.295,11.773L8.324,11.737L8.354,11.701L8.386,11.667L8.418,11.634L8.452,11.602L8.486,11.571L8.521,11.542L8.557,11.514L8.594,11.486L8.631,11.46L8.669,11.435L8.707,11.411L8.746,11.388L8.786,11.366L8.825,11.344L8.866,11.324L8.906,11.305L8.947,11.287L8.987,11.27L9.028,11.254L9.069,11.239L9.111,11.225L9.152,11.211L9.193,11.199L9.234,11.188L9.275,11.177L9.326,11.166L9.378,11.155L9.431,11.146L9.486,11.137L9.542,11.129L9.599,11.121L9.657,11.115L9.717,11.109L9.777,11.104L9.838,11.1L9.9,11.096L9.963,11.093L10.027,11.091L10.091,11.09L10.155,11.089L10.22,11.09L10.285,11.091L10.351,11.092L10.416,11.095L10.482,11.098L10.547,11.102L10.612,11.106L10.677,11.112L10.742,11.118L10.806,11.125L10.87,11.133L10.933,11.141L10.995,11.151L11.057,11.161L11.118,11.172L11.177,11.184L11.236,11.197L11.295,11.211L11.354,11.226L11.413,11.243L11.472,11.26L11.53,11.279L11.589,11.299L11.648,11.32L11.706,11.342L11.764,11.364L11.822,11.388L11.88,11.412L11.937,11.437L11.994,11.463L12.05,11.489L12.106,11.516L12.161,11.543L12.268,11.598L12.373,11.655L12.474,11.713L12.571,11.771L12.664,11.829L12.751,11.887L12.834,11.944L12.91,12L12.941,12.024L12.972,12.049L13.001,12.075L13.031,12.101L13.059,12.128L13.087,12.156L13.114,12.184L13.141,12.213L13.167,12.242L13.192,12.272L13.216,12.302L13.24,12.333L13.264,12.364L13.286,12.396L13.308,12.428L13.331,12.461L13.371,12.525L13.409,12.592L13.445,12.66L13.477,12.728L13.508,12.797L13.535,12.867L13.56,12.937L13.581,13.006L13.592,13.044L13.601,13.082L13.609,13.121L13.617,13.16L13.624,13.199L13.63,13.239L13.635,13.279L13.64,13.321L13.647,13.401L13.652,13.483L13.654,13.565L13.653,13.647L13.65,13.728L13.645,13.808L13.637,13.884L13.631,13.924L13.626,13.961L13.619,13.998L13.612,14.035L13.604,14.071L13.595,14.106L13.585,14.14L13.574,14.174L13.562,14.208L13.549,14.242L13.534,14.273L13.518,14.304L13.501,14.334L13.482,14.362L13.462,14.389L13.441,14.415L13.419,14.44L13.397,14.464L13.374,14.486L13.35,14.508L13.325,14.528L13.3,14.548L13.275,14.566L13.249,14.584L13.223,14.6L13.196,14.616L13.169,14.631L13.142,14.645L13.114,14.658L13.085,14.672L13.03,14.693L12.973,14.712L12.916,14.728L12.86,14.74L12.829,14.745L12.8,14.749L12.771,14.752L12.742,14.754L12.712,14.755L12.681,14.756L12.623,14.753L12.563,14.748L12.502,14.739L12.441,14.727L12.379,14.713L12.316,14.695L12.256,14.675L12.224,14.663L12.193,14.65L12.162,14.637L12.132,14.623L12.102,14.608L12.072,14.592L12.042,14.575L12.013,14.557L11.985,14.538L11.956,14.518L11.929,14.497L11.902,14.475L11.875,14.451L11.85,14.426L11.825,14.399L11.8,14.369L11.775,14.334L11.753,14.297L11.734,14.259L11.717,14.222L11.704,14.184L11.693,14.148L11.683,14.111L11.675,14.076L11.668,14.04L11.662,14.004L11.654,13.937L11.647,13.869L11.641,13.804L11.636,13.742L11.631,13.683L11.625,13.627L11.621,13.602L11.618,13.578L11.614,13.556L11.609,13.535L11.605,13.516L11.6,13.499L11.595,13.485L11.59,13.472L11.585,13.463L11.58,13.452L11.571,13.438L11.561,13.423L11.537,13.388L11.511,13.354L11.483,13.321L11.453,13.288L11.422,13.256L11.389,13.224L11.355,13.195L11.32,13.166L11.284,13.14L11.249,13.116L11.214,13.094L11.18,13.075L11.145,13.057L11.131,13.051L11.115,13.044L11.101,13.038L11.087,13.033L11.073,13.029L11.058,13.025L11.043,13.021L11.027,13.017L11.011,13.014L10.996,13.012L10.96,13.007L10.924,13.004L10.888,13.003L10.85,13.004L10.813,13.007L10.776,13.011L10.74,13.017L10.704,13.024L10.67,13.033L10.637,13.044L10.623,13.049L10.608,13.055L10.594,13.061L10.581,13.067L10.568,13.073L10.558,13.079L10.53,13.096L10.502,13.115L10.472,13.137L10.443,13.161L10.413,13.188L10.385,13.216L10.357,13.246L10.329,13.279L10.318,13.293L10.306,13.309L10.294,13.326L10.283,13.342L10.273,13.358L10.263,13.375L10.254,13.391L10.246,13.407L10.238,13.423L10.231,13.439L10.225,13.454L10.219,13.469L10.215,13.484L10.211,13.498L10.208,13.512L10.205,13.526L10.195,13.59L10.185,13.662L10.177,13.741L10.169,13.825L10.163,13.914L10.161,13.958L10.159,14.004L10.158,14.051L10.158,14.098L10.158,14.145L10.159,14.192L10.161,14.239L10.164,14.287L10.168,14.334L10.172,14.38L10.178,14.426L10.184,14.471L10.192,14.516L10.2,14.56L10.21,14.602L10.22,14.643L10.232,14.683L10.244,14.722L10.258,14.758L10.272,14.793L10.288,14.827L10.304,14.858L10.319,14.884L10.337,14.913L10.359,14.945L10.384,14.979L10.411,15.016L10.441,15.054L10.474,15.094L10.508,15.135L10.545,15.177L10.584,15.22L10.624,15.264L10.665,15.308L10.752,15.4L10.843,15.492L10.937,15.584L11.032,15.675L11.127,15.765L11.22,15.852L11.311,15.935L11.398,16.014L11.467,16.074L11.486,16.071L11.555,16.059L11.623,16.045L11.691,16.032L11.759,16.017L11.826,16.002L11.893,15.985L11.96,15.969L12.027,15.951L12.093,15.933L12.159,15.914L12.225,15.894L12.29,15.874L12.355,15.852L12.42,15.831L12.484,15.808L12.548,15.785L12.612,15.761L12.676,15.736L12.739,15.711L12.801,15.685L12.864,15.658L12.926,15.631L12.987,15.603L13.049,15.574L13.11,15.545L13.17,15.515L13.23,15.485L13.29,15.453L13.35,15.421L13.409,15.389L13.467,15.356L13.526,15.322L13.583,15.288L13.641,15.253L13.698,15.217L13.754,15.181L13.811,15.144L13.866,15.107L13.922,15.069L13.976,15.03L14.031,14.991L14.085,14.951L14.138,14.911L14.192,14.87L14.244,14.829L14.296,14.787L14.348,14.744L14.399,14.701L14.45,14.658L14.5,14.613L14.55,14.569L14.599,14.524L14.648,14.478L14.696,14.432L14.744,14.385L14.791,14.337L14.838,14.29L14.884,14.241L14.93,14.192L14.975,14.143L15.02,14.093L15.064,14.043L15.108,13.992L15.151,13.941L15.193,13.889L15.235,13.837L15.277,13.784L15.317,13.731L15.358,13.678L15.397,13.624L15.436,13.569L15.475,13.514L15.513,13.459L15.55,13.403L15.587,13.347L15.623,13.29L15.659,13.233L15.694,13.176L15.728,13.118L15.762,13.06L15.795,13.001L15.827,12.942L15.859,12.883L15.89,12.823L15.921,12.763L15.951,12.702L15.98,12.641L16.008,12.58L16.036,12.518L16.064,12.456L16.09,12.394L16.116,12.331L16.141,12.268L16.166,12.204L16.19,12.14L16.213,12.076L16.236,12.012L16.257,11.947L16.278,11.882L16.299,11.817L16.319,11.751L16.338,11.685L16.356,11.619L16.373,11.552L16.39,11.485L16.406,11.418L16.421,11.351L16.436,11.283L16.45,11.215L16.463,11.147L16.475,11.078L16.487,11.009L16.498,10.94L16.508,10.871L16.517,10.801L16.525,10.731L16.533,10.661L16.54,10.591L16.546,10.521L16.551,10.45L16.556,10.379L16.559,10.308L16.562,10.236L16.564,10.165L16.566,10.093L16.566,10.021L16.565,9.914L16.562,9.807L16.558,9.701L16.552,9.596L16.543,9.491L16.534,9.386L16.522,9.282L16.509,9.179L16.494,9.076L16.477,8.973L16.459,8.871L16.438,8.77L16.417,8.67L16.405,8.622L16.286,8.655L16.249,8.714L16.201,8.787L16.147,8.869L16.085,8.96L16.018,9.056L15.945,9.157L15.869,9.259L15.829,9.311L15.789,9.363L15.748,9.414L15.707,9.464L15.665,9.513L15.623,9.561L15.58,9.608L15.537,9.653L15.494,9.697L15.45,9.739L15.405,9.778L15.362,9.814L15.313,9.851L15.265,9.888L15.214,9.926L15.161,9.964L15.051,10.041L14.935,10.119L14.813,10.197L14.689,10.274L14.624,10.313L14.56,10.351L14.495,10.388L14.43,10.425L14.365,10.461L14.3,10.496L14.234,10.53L14.169,10.563L14.104,10.595L14.04,10.626L13.976,10.656L13.913,10.684L13.85,10.71L13.789,10.735L13.728,10.758L13.668,10.779L13.609,10.798L13.55,10.815L13.493,10.83L13.436,10.842L13.389,10.851L13.341,10.857L13.293,10.861L13.246,10.863L13.198,10.862L13.151,10.861L13.105,10.857L13.059,10.851L13.013,10.844L12.967,10.836L12.922,10.826L12.877,10.814L12.833,10.801L12.79,10.787L12.747,10.772L12.704,10.756L12.662,10.738L12.621,10.72L12.58,10.7L12.54,10.68L12.5,10.659L12.461,10.636L12.423,10.614L12.385,10.59L12.348,10.565L12.312,10.54L12.277,10.515L12.242,10.488L12.208,10.461L12.175,10.434L12.142,10.406L12.111,10.378L12.073,10.342L12.035,10.305L11.998,10.266L11.96,10.226L11.922,10.184L11.884,10.14L11.846,10.095L11.809,10.049L11.771,10.002L11.733,9.953L11.696,9.904L11.658,9.853L11.621,9.801L11.585,9.749L11.548,9.696L11.512,9.642L11.477,9.587L11.442,9.532L11.407,9.476L11.373,9.42L11.34,9.363L11.308,9.306L11.276,9.249L11.245,9.192L11.215,9.135L11.186,9.078L11.158,9.021L11.132,8.963L11.106,8.907L11.081,8.85L11.058,8.794L11.036,8.738L11.015,8.681L10.995,8.624L10.976,8.566L10.958,8.507L10.941,8.447L10.924,8.388L10.909,8.327L10.895,8.266L10.881,8.206L10.869,8.144L10.857,8.083L10.846,8.022L10.835,7.96L10.826,7.899L10.817,7.838L10.809,7.776L10.795,7.657L10.784,7.538L10.776,7.422L10.77,7.309L10.767,7.2L10.766,7.095L10.768,6.995L10.772,6.9L10.775,6.861L10.778,6.822L10.783,6.782L10.789,6.744L10.795,6.705L10.803,6.666L10.811,6.628L10.82,6.59L10.83,6.552L10.841,6.515L10.852,6.477L10.865,6.44L10.877,6.404L10.891,6.367L10.905,6.331L10.921,6.294L10.952,6.225L10.986,6.156L11.023,6.089L11.061,6.023L11.102,5.96L11.144,5.898L11.189,5.839L11.234,5.782L11.26,5.753L11.287,5.724L11.314,5.695L11.342,5.667L11.371,5.639L11.401,5.612L11.431,5.585L11.463,5.558L11.526,5.508L11.591,5.458L11.658,5.411L11.727,5.366L11.796,5.323L11.865,5.284L11.933,5.248L11.969,5.23L12.003,5.214L12.038,5.199L12.072,5.185L12.106,5.171L12.14,5.159L12.175,5.148L12.209,5.138L12.243,5.129L12.279,5.122L12.313,5.116L12.348,5.113L12.382,5.111L12.416,5.111L12.45,5.112L12.483,5.115L12.516,5.119L12.548,5.125L12.58,5.131L12.611,5.139L12.641,5.148L12.671,5.158L12.701,5.169L12.73,5.181L12.758,5.193L12.786,5.207L12.814,5.221L12.841,5.235L12.867,5.251L12.894,5.268L12.943,5.301L12.99,5.338L13.035,5.377L13.076,5.417L13.098,5.44L13.117,5.462L13.136,5.484L13.154,5.507L13.171,5.531L13.189,5.557L13.219,5.606L13.248,5.659L13.275,5.715L13.299,5.772L13.321,5.832L13.341,5.894L13.358,5.955L13.366,5.989L13.373,6.021L13.379,6.054L13.384,6.087L13.388,6.12L13.392,6.154L13.394,6.188L13.396,6.222L13.396,6.256L13.395,6.291L13.393,6.326L13.389,6.361L13.384,6.396L13.377,6.431L13.369,6.466L13.358,6.504L13.343,6.544L13.324,6.584L13.303,6.62L13.281,6.655L13.258,6.687L13.234,6.716L13.209,6.745L13.184,6.771L13.158,6.797L13.131,6.822L13.08,6.866L13.028,6.909L12.977,6.95L12.928,6.989L12.882,7.026L12.839,7.063L12.82,7.079L12.802,7.096L12.786,7.112L12.771,7.127L12.758,7.141L12.747,7.154L12.737,7.167L12.73,7.178L12.724,7.187L12.719,7.197L12.712,7.212L12.705,7.229L12.689,7.268L12.675,7.308L12.663,7.35L12.652,7.394L12.643,7.438L12.636,7.483L12.63,7.528L12.626,7.572L12.624,7.616L12.623,7.659L12.625,7.7L12.628,7.74L12.632,7.778L12.635,7.794L12.638,7.81L12.641,7.826L12.645,7.84L12.649,7.854L12.654,7.868L12.659,7.883L12.665,7.898L12.671,7.913L12.677,7.927L12.694,7.96L12.711,7.991L12.731,8.022L12.752,8.053L12.775,8.082L12.799,8.111L12.824,8.138L12.85,8.163L12.877,8.186L12.904,8.208L12.916,8.217L12.929,8.226L12.942,8.234L12.954,8.241L12.967,8.248L12.977,8.254L13.007,8.268L13.039,8.281L13.073,8.293L13.11,8.304L13.148,8.313L13.188,8.322L13.228,8.328L13.27,8.333L13.289,8.334L13.309,8.335L13.329,8.336L13.349,8.336L13.368,8.335L13.387,8.334L13.405,8.333L13.423,8.331L13.441,8.328L13.458,8.325L13.474,8.322L13.49,8.318L13.504,8.314L13.518,8.309L13.532,8.304L13.545,8.298L13.604,8.271L13.669,8.239L13.74,8.202L13.813,8.162L13.891,8.117L13.929,8.094L13.968,8.07L14.007,8.045L14.046,8.019L14.085,7.993L14.124,7.966L14.162,7.938L14.2,7.909L14.237,7.88L14.273,7.85L14.308,7.82L14.342,7.789L14.375,7.759L14.406,7.727L14.436,7.696L14.465,7.664L14.492,7.632L14.517,7.6L14.54,7.569L14.561,7.537L14.58,7.506L14.597,7.475L14.61,7.449L14.623,7.419L14.637,7.384L14.651,7.346L14.666,7.305L14.68,7.26L14.695,7.213L14.709,7.163L14.724,7.112L14.738,7.058L14.765,6.945L14.792,6.826L14.817,6.704L14.841,6.579L14.864,6.453L14.886,6.328L14.906,6.204L14.924,6.084L14.941,5.969L14.954,5.875L14.926,5.844L14.871,5.786L14.815,5.728L14.759,5.672L14.702,5.616L14.645,5.561L14.587,5.506L14.527,5.452L14.468,5.399L14.407,5.347L14.346,5.296L14.285,5.245L14.222,5.195L14.159,5.146L14.095,5.098L14.031,5.05L13.966,5.004L13.9,4.958L13.834,4.913L13.767,4.869L13.7,4.826L13.632,4.783L13.563,4.742L13.494,4.701L13.424,4.661L13.354,4.622L13.283,4.584L13.212,4.547L13.14,4.511L13.067,4.476L12.994,4.442L12.92,4.408L12.846,4.376L12.772,4.344L12.697,4.314L12.621,4.284L12.545,4.256L12.469,4.228L12.392,4.201L12.314,4.176L12.236,4.151L12.158,4.127L12.079,4.105L12,4.083L11.921,4.063L11.841,4.043L11.76,4.025L11.679,4.007L11.598,3.991L11.517,3.976L11.435,3.962L11.352,3.949L11.27,3.937L11.186,3.926L11.103,3.916L11.019,3.907L10.935,3.9L10.851,3.894L10.766,3.888L10.681,3.884L10.596,3.881L10.51,3.879L10.424,3.879L10.343,3.879Z"/>
        </g>
        <g transform="matrix(0.834158,0,0,0.834158,4.69865,1.85437)">
            <circle cx="6.864" cy="9.79" r="0.779" style="fill:rgb(249,255,0);"/>
            <path d="M6.92,8.703L6.975,8.707L7.029,8.714L7.083,8.724L7.136,8.736L7.187,8.751L7.238,8.768L7.288,8.787L7.336,8.809L7.383,8.833L7.428,8.86L7.472,8.888L7.515,8.918L7.556,8.95L7.596,8.985L7.633,9.021L7.669,9.058L7.703,9.098L7.736,9.139L7.766,9.181L7.794,9.225L7.821,9.271L7.845,9.318L7.866,9.366L7.886,9.416L7.903,9.466L7.918,9.518L7.93,9.571L7.94,9.625L7.947,9.679L7.951,9.734L7.952,9.79L7.951,9.846L7.947,9.901L7.94,9.955L7.93,10.009L7.918,10.062L7.903,10.113L7.886,10.164L7.866,10.214L7.845,10.262L7.821,10.309L7.794,10.354L7.766,10.399L7.736,10.441L7.703,10.482L7.669,10.522L7.633,10.559L7.596,10.595L7.556,10.629L7.515,10.662L7.472,10.692L7.428,10.72L7.383,10.747L7.336,10.771L7.288,10.792L7.238,10.812L7.187,10.829L7.136,10.844L7.083,10.856L7.029,10.866L6.975,10.873L6.92,10.877L6.864,10.878L6.808,10.877L6.753,10.873L6.699,10.866L6.645,10.856L6.592,10.844L6.54,10.829L6.49,10.812L6.44,10.792L6.392,10.771L6.345,10.747L6.299,10.72L6.255,10.692L6.213,10.662L6.172,10.629L6.132,10.595L6.094,10.559L6.059,10.522L6.024,10.482L5.992,10.441L5.962,10.399L5.933,10.354L5.907,10.309L5.883,10.262L5.861,10.214L5.842,10.164L5.825,10.113L5.81,10.062L5.798,10.009L5.788,9.955L5.781,9.901L5.777,9.846L5.776,9.79L5.777,9.734L5.781,9.679L5.788,9.625L5.798,9.571L5.81,9.518L5.825,9.466L5.842,9.416L5.861,9.366L5.883,9.318L5.907,9.271L5.933,9.225L5.962,9.181L5.992,9.139L6.024,9.098L6.059,9.058L6.094,9.021L6.132,8.985L6.172,8.95L6.213,8.918L6.255,8.888L6.299,8.86L6.345,8.833L6.392,8.809L6.44,8.787L6.49,8.768L6.54,8.751L6.592,8.736L6.645,8.724L6.699,8.714L6.753,8.707L6.808,8.703L6.864,8.702L6.92,8.703ZM6.824,9.012L6.784,9.015L6.745,9.02L6.707,9.027L6.669,9.035L6.632,9.046L6.596,9.058L6.561,9.072L6.526,9.088L6.493,9.105L6.46,9.124L6.428,9.144L6.398,9.166L6.368,9.189L6.34,9.213L6.313,9.239L6.287,9.266L6.263,9.294L6.24,9.324L6.218,9.354L6.198,9.386L6.179,9.419L6.162,9.452L6.146,9.487L6.132,9.522L6.12,9.558L6.109,9.595L6.1,9.633L6.094,9.671L6.089,9.71L6.086,9.75L6.085,9.79L6.086,9.83L6.089,9.87L6.094,9.909L6.1,9.947L6.109,9.985L6.12,10.022L6.132,10.058L6.146,10.093L6.162,10.128L6.179,10.161L6.198,10.194L6.218,10.225L6.24,10.256L6.263,10.285L6.287,10.314L6.313,10.341L6.34,10.367L6.368,10.391L6.398,10.414L6.428,10.436L6.46,10.456L6.493,10.475L6.526,10.492L6.561,10.508L6.596,10.522L6.632,10.534L6.669,10.545L6.707,10.553L6.745,10.56L6.784,10.565L6.824,10.568L6.864,10.569L6.904,10.568L6.944,10.565L6.982,10.56L7.021,10.553L7.059,10.545L7.095,10.534L7.132,10.522L7.167,10.508L7.202,10.492L7.235,10.475L7.268,10.456L7.299,10.436L7.33,10.414L7.359,10.391L7.388,10.367L7.415,10.341L7.441,10.314L7.465,10.285L7.488,10.256L7.51,10.225L7.53,10.194L7.549,10.161L7.566,10.128L7.582,10.093L7.596,10.058L7.608,10.022L7.619,9.985L7.627,9.947L7.634,9.909L7.639,9.87L7.642,9.83L7.643,9.79L7.642,9.75L7.639,9.71L7.634,9.671L7.627,9.633L7.619,9.595L7.608,9.558L7.596,9.522L7.582,9.487L7.566,9.452L7.549,9.419L7.53,9.386L7.51,9.354L7.488,9.324L7.465,9.294L7.441,9.266L7.415,9.239L7.388,9.213L7.359,9.189L7.33,9.166L7.299,9.144L7.268,9.124L7.235,9.105L7.202,9.088L7.167,9.072L7.132,9.058L7.095,9.046L7.059,9.035L7.021,9.027L6.982,9.02L6.944,9.015L6.904,9.012L6.864,9.011L6.824,9.012Z"/>
        </g>
        <g transform="matrix(0.834158,0,0,0.834158,1.01079,4.8462)">
            <circle cx="6.864" cy="9.79" r="0.779" style="fill:rgb(249,255,0);"/>
            <path d="M6.92,8.703L6.975,8.707L7.029,8.714L7.083,8.724L7.136,8.736L7.187,8.751L7.238,8.768L7.288,8.787L7.336,8.809L7.383,8.833L7.428,8.86L7.472,8.888L7.515,8.918L7.556,8.95L7.596,8.985L7.633,9.021L7.669,9.058L7.703,9.098L7.736,9.139L7.766,9.181L7.794,9.225L7.821,9.271L7.845,9.318L7.866,9.366L7.886,9.416L7.903,9.466L7.918,9.518L7.93,9.571L7.94,9.625L7.947,9.679L7.951,9.734L7.952,9.79L7.951,9.846L7.947,9.901L7.94,9.955L7.93,10.009L7.918,10.062L7.903,10.113L7.886,10.164L7.866,10.214L7.845,10.262L7.821,10.309L7.794,10.354L7.766,10.399L7.736,10.441L7.703,10.482L7.669,10.522L7.633,10.559L7.596,10.595L7.556,10.629L7.515,10.662L7.472,10.692L7.428,10.72L7.383,10.747L7.336,10.771L7.288,10.792L7.238,10.812L7.187,10.829L7.136,10.844L7.083,10.856L7.029,10.866L6.975,10.873L6.92,10.877L6.864,10.878L6.808,10.877L6.753,10.873L6.699,10.866L6.645,10.856L6.592,10.844L6.54,10.829L6.49,10.812L6.44,10.792L6.392,10.771L6.345,10.747L6.299,10.72L6.255,10.692L6.213,10.662L6.172,10.629L6.132,10.595L6.094,10.559L6.059,10.522L6.024,10.482L5.992,10.441L5.962,10.399L5.933,10.354L5.907,10.309L5.883,10.262L5.861,10.214L5.842,10.164L5.825,10.113L5.81,10.062L5.798,10.009L5.788,9.955L5.781,9.901L5.777,9.846L5.776,9.79L5.777,9.734L5.781,9.679L5.788,9.625L5.798,9.571L5.81,9.518L5.825,9.466L5.842,9.416L5.861,9.366L5.883,9.318L5.907,9.271L5.933,9.225L5.962,9.181L5.992,9.139L6.024,9.098L6.059,9.058L6.094,9.021L6.132,8.985L6.172,8.95L6.213,8.918L6.255,8.888L6.299,8.86L6.345,8.833L6.392,8.809L6.44,8.787L6.49,8.768L6.54,8.751L6.592,8.736L6.645,8.724L6.699,8.714L6.753,8.707L6.808,8.703L6.864,8.702L6.92,8.703ZM6.824,9.012L6.784,9.015L6.745,9.02L6.707,9.027L6.669,9.035L6.632,9.046L6.596,9.058L6.561,9.072L6.526,9.088L6.493,9.105L6.46,9.124L6.428,9.144L6.398,9.166L6.368,9.189L6.34,9.213L6.313,9.239L6.287,9.266L6.263,9.294L6.24,9.324L6.218,9.354L6.198,9.386L6.179,9.419L6.162,9.452L6.146,9.487L6.132,9.522L6.12,9.558L6.109,9.595L6.1,9.633L6.094,9.671L6.089,9.71L6.086,9.75L6.085,9.79L6.086,9.83L6.089,9.87L6.094,9.909L6.1,9.947L6.109,9.985L6.12,10.022L6.132,10.058L6.146,10.093L6.162,10.128L6.179,10.161L6.198,10.194L6.218,10.225L6.24,10.256L6.263,10.285L6.287,10.314L6.313,10.341L6.34,10.367L6.368,10.391L6.398,10.414L6.428,10.436L6.46,10.456L6.493,10.475L6.526,10.492L6.561,10.508L6.596,10.522L6.632,10.534L6.669,10.545L6.707,10.553L6.745,10.56L6.784,10.565L6.824,10.568L6.864,10.569L6.904,10.568L6.944,10.565L6.982,10.56L7.021,10.553L7.059,10.545L7.095,10.534L7.132,10.522L7.167,10.508L7.202,10.492L7.235,10.475L7.268,10.456L7.299,10.436L7.33,10.414L7.359,10.391L7.388,10.367L7.415,10.341L7.441,10.314L7.465,10.285L7.488,10.256L7.51,10.225L7.53,10.194L7.549,10.161L7.566,10.128L7.582,10.093L7.596,10.058L7.608,10.022L7.619,9.985L7.627,9.947L7.634,9.909L7.639,9.87L7.642,9.83L7.643,9.79L7.642,9.75L7.639,9.71L7.634,9.671L7.627,9.633L7.619,9.595L7.608,9.558L7.596,9.522L7.582,9.487L7.566,9.452L7.549,9.419L7.53,9.386L7.51,9.354L7.488,9.324L7.465,9.294L7.441,9.266L7.415,9.239L7.388,9.213L7.359,9.189L7.33,9.166L7.299,9.144L7.268,9.124L7.235,9.105L7.202,9.088L7.167,9.072L7.132,9.058L7.095,9.046L7.059,9.035L7.021,9.027L6.982,9.02L6.944,9.015L6.904,9.012L6.864,9.011L6.824,9.012Z"/>
        </g>
        <g transform="matrix(0.834158,0,0,0.834158,3.65951,-2.79791)">
            <circle cx="6.864" cy="9.79" r="0.779" style="fill:rgb(249,255,0);"/>
            <path d="M6.92,8.703L6.975,8.707L7.029,8.714L7.083,8.724L7.136,8.736L7.187,8.751L7.238,8.768L7.288,8.787L7.336,8.809L7.383,8.833L7.428,8.86L7.472,8.888L7.515,8.918L7.556,8.95L7.596,8.985L7.633,9.021L7.669,9.058L7.703,9.098L7.736,9.139L7.766,9.181L7.794,9.225L7.821,9.271L7.845,9.318L7.866,9.366L7.886,9.416L7.903,9.466L7.918,9.518L7.93,9.571L7.94,9.625L7.947,9.679L7.951,9.734L7.952,9.79L7.951,9.846L7.947,9.901L7.94,9.955L7.93,10.009L7.918,10.062L7.903,10.113L7.886,10.164L7.866,10.214L7.845,10.262L7.821,10.309L7.794,10.354L7.766,10.399L7.736,10.441L7.703,10.482L7.669,10.522L7.633,10.559L7.596,10.595L7.556,10.629L7.515,10.662L7.472,10.692L7.428,10.72L7.383,10.747L7.336,10.771L7.288,10.792L7.238,10.812L7.187,10.829L7.136,10.844L7.083,10.856L7.029,10.866L6.975,10.873L6.92,10.877L6.864,10.878L6.808,10.877L6.753,10.873L6.699,10.866L6.645,10.856L6.592,10.844L6.54,10.829L6.49,10.812L6.44,10.792L6.392,10.771L6.345,10.747L6.299,10.72L6.255,10.692L6.213,10.662L6.172,10.629L6.132,10.595L6.094,10.559L6.059,10.522L6.024,10.482L5.992,10.441L5.962,10.399L5.933,10.354L5.907,10.309L5.883,10.262L5.861,10.214L5.842,10.164L5.825,10.113L5.81,10.062L5.798,10.009L5.788,9.955L5.781,9.901L5.777,9.846L5.776,9.79L5.777,9.734L5.781,9.679L5.788,9.625L5.798,9.571L5.81,9.518L5.825,9.466L5.842,9.416L5.861,9.366L5.883,9.318L5.907,9.271L5.933,9.225L5.962,9.181L5.992,9.139L6.024,9.098L6.059,9.058L6.094,9.021L6.132,8.985L6.172,8.95L6.213,8.918L6.255,8.888L6.299,8.86L6.345,8.833L6.392,8.809L6.44,8.787L6.49,8.768L6.54,8.751L6.592,8.736L6.645,8.724L6.699,8.714L6.753,8.707L6.808,8.703L6.864,8.702L6.92,8.703ZM6.824,9.012L6.784,9.015L6.745,9.02L6.707,9.027L6.669,9.035L6.632,9.046L6.596,9.058L6.561,9.072L6.526,9.088L6.493,9.105L6.46,9.124L6.428,9.144L6.398,9.166L6.368,9.189L6.34,9.213L6.313,9.239L6.287,9.266L6.263,9.294L6.24,9.324L6.218,9.354L6.198,9.386L6.179,9.419L6.162,9.452L6.146,9.487L6.132,9.522L6.12,9.558L6.109,9.595L6.1,9.633L6.094,9.671L6.089,9.71L6.086,9.75L6.085,9.79L6.086,9.83L6.089,9.87L6.094,9.909L6.1,9.947L6.109,9.985L6.12,10.022L6.132,10.058L6.146,10.093L6.162,10.128L6.179,10.161L6.198,10.194L6.218,10.225L6.24,10.256L6.263,10.285L6.287,10.314L6.313,10.341L6.34,10.367L6.368,10.391L6.398,10.414L6.428,10.436L6.46,10.456L6.493,10.475L6.526,10.492L6.561,10.508L6.596,10.522L6.632,10.534L6.669,10.545L6.707,10.553L6.745,10.56L6.784,10.565L6.824,10.568L6.864,10.569L6.904,10.568L6.944,10.565L6.982,10.56L7.021,10.553L7.059,10.545L7.095,10.534L7.132,10.522L7.167,10.508L7.202,10.492L7.235,10.475L7.268,10.456L7.299,10.436L7.33,10.414L7.359,10.391L7.388,10.367L7.415,10.341L7.441,10.314L7.465,10.285L7.488,10.256L7.51,10.225L7.53,10.194L7.549,10.161L7.566,10.128L7.582,10.093L7.596,10.058L7.608,10.022L7.619,9.985L7.627,9.947L7.634,9.909L7.639,9.87L7.642,9.83L7.643,9.79L7.642,9.75L7.639,9.71L7.634,9.671L7.627,9.633L7.619,9.595L7.608,9.558L7.596,9.522L7.582,9.487L7.566,9.452L7.549,9.419L7.53,9.386L7.51,9.354L7.488,9.324L7.465,9.294L7.441,9.266L7.415,9.239L7.388,9.213L7.359,9.189L7.33,9.166L7.299,9.144L7.268,9.124L7.235,9.105L7.202,9.088L7.167,9.072L7.132,9.058L7.095,9.046L7.059,9.035L7.021,9.027L6.982,9.02L6.944,9.015L6.904,9.012L6.864,9.011L6.824,9.012Z"/>
        </g>
        <g transform="matrix(0.834158,0,0,0.834158,8.93363,3.42618)">
            <circle cx="6.864" cy="9.79" r="0.779" style="fill:rgb(249,255,0);"/>
            <path d="M6.92,8.703L6.975,8.707L7.029,8.714L7.083,8.724L7.136,8.736L7.187,8.751L7.238,8.768L7.288,8.787L7.336,8.809L7.383,8.833L7.428,8.86L7.472,8.888L7.515,8.918L7.556,8.95L7.596,8.985L7.633,9.021L7.669,9.058L7.703,9.098L7.736,9.139L7.766,9.181L7.794,9.225L7.821,9.271L7.845,9.318L7.866,9.366L7.886,9.416L7.903,9.466L7.918,9.518L7.93,9.571L7.94,9.625L7.947,9.679L7.951,9.734L7.952,9.79L7.951,9.846L7.947,9.901L7.94,9.955L7.93,10.009L7.918,10.062L7.903,10.113L7.886,10.164L7.866,10.214L7.845,10.262L7.821,10.309L7.794,10.354L7.766,10.399L7.736,10.441L7.703,10.482L7.669,10.522L7.633,10.559L7.596,10.595L7.556,10.629L7.515,10.662L7.472,10.692L7.428,10.72L7.383,10.747L7.336,10.771L7.288,10.792L7.238,10.812L7.187,10.829L7.136,10.844L7.083,10.856L7.029,10.866L6.975,10.873L6.92,10.877L6.864,10.878L6.808,10.877L6.753,10.873L6.699,10.866L6.645,10.856L6.592,10.844L6.54,10.829L6.49,10.812L6.44,10.792L6.392,10.771L6.345,10.747L6.299,10.72L6.255,10.692L6.213,10.662L6.172,10.629L6.132,10.595L6.094,10.559L6.059,10.522L6.024,10.482L5.992,10.441L5.962,10.399L5.933,10.354L5.907,10.309L5.883,10.262L5.861,10.214L5.842,10.164L5.825,10.113L5.81,10.062L5.798,10.009L5.788,9.955L5.781,9.901L5.777,9.846L5.776,9.79L5.777,9.734L5.781,9.679L5.788,9.625L5.798,9.571L5.81,9.518L5.825,9.466L5.842,9.416L5.861,9.366L5.883,9.318L5.907,9.271L5.933,9.225L5.962,9.181L5.992,9.139L6.024,9.098L6.059,9.058L6.094,9.021L6.132,8.985L6.172,8.95L6.213,8.918L6.255,8.888L6.299,8.86L6.345,8.833L6.392,8.809L6.44,8.787L6.49,8.768L6.54,8.751L6.592,8.736L6.645,8.724L6.699,8.714L6.753,8.707L6.808,8.703L6.864,8.702L6.92,8.703ZM6.824,9.012L6.784,9.015L6.745,9.02L6.707,9.027L6.669,9.035L6.632,9.046L6.596,9.058L6.561,9.072L6.526,9.088L6.493,9.105L6.46,9.124L6.428,9.144L6.398,9.166L6.368,9.189L6.34,9.213L6.313,9.239L6.287,9.266L6.263,9.294L6.24,9.324L6.218,9.354L6.198,9.386L6.179,9.419L6.162,9.452L6.146,9.487L6.132,9.522L6.12,9.558L6.109,9.595L6.1,9.633L6.094,9.671L6.089,9.71L6.086,9.75L6.085,9.79L6.086,9.83L6.089,9.87L6.094,9.909L6.1,9.947L6.109,9.985L6.12,10.022L6.132,10.058L6.146,10.093L6.162,10.128L6.179,10.161L6.198,10.194L6.218,10.225L6.24,10.256L6.263,10.285L6.287,10.314L6.313,10.341L6.34,10.367L6.368,10.391L6.398,10.414L6.428,10.436L6.46,10.456L6.493,10.475L6.526,10.492L6.561,10.508L6.596,10.522L6.632,10.534L6.669,10.545L6.707,10.553L6.745,10.56L6.784,10.565L6.824,10.568L6.864,10.569L6.904,10.568L6.944,10.565L6.982,10.56L7.021,10.553L7.059,10.545L7.095,10.534L7.132,10.522L7.167,10.508L7.202,10.492L7.235,10.475L7.268,10.456L7.299,10.436L7.33,10.414L7.359,10.391L7.388,10.367L7.415,10.341L7.441,10.314L7.465,10.285L7.488,10.256L7.51,10.225L7.53,10.194L7.549,10.161L7.566,10.128L7.582,10.093L7.596,10.058L7.608,10.022L7.619,9.985L7.627,9.947L7.634,9.909L7.639,9.87L7.642,9.83L7.643,9.79L7.642,9.75L7.639,9.71L7.634,9.671L7.627,9.633L7.619,9.595L7.608,9.558L7.596,9.522L7.582,9.487L7.566,9.452L7.549,9.419L7.53,9.386L7.51,9.354L7.488,9.324L7.465,9.294L7.441,9.266L7.415,9.239L7.388,9.213L7.359,9.189L7.33,9.166L7.299,9.144L7.268,9.124L7.235,9.105L7.202,9.088L7.167,9.072L7.132,9.058L7.095,9.046L7.059,9.035L7.021,9.027L6.982,9.02L6.944,9.015L6.904,9.012L6.864,9.011L6.824,9.012Z"/>
        </g>
    </g>
    <defs>
        <radialGradient id="_Radial1" cx="0" cy="0" r="1" gradientUnits="userSpaceOnUse" gradientTransform="matrix(8.16042,0,0,8.16042,10.4242,10.0207)"><stop offset="0" style="stop-color:rgb(227,218,189);stop-opacity:1"/><stop offset="0.47" style="stop-color:rgb(255,177,55);stop-opacity:1"/><stop offset="1" style="stop-color:rgb(114,78,22);stop-opacity:1"/></radialGradient>
    </defs>
</svg>
