<?xml version="1.0" encoding="UTF-8" standalone="no"?>
<!DOCTYPE svg PUBLIC "-//W3C//DTD SVG 1.1//EN" "http://www.w3.org/Graphics/SVG/1.1/DTD/svg11.dtd">
<svg width="100%" height="100%" viewBox="0 0 20 20" version="1.1" xmlns="http://www.w3.org/2000/svg" xmlns:xlink="http://www.w3.org/1999/xlink" xml:space="preserve" xmlns:serif="http://www.serif.com/" style="fill-rule:evenodd;clip-rule:evenodd;">
    <g id="Yin">
        <g id="path4202" transform="matrix(0.126854,0,0,0.126854,-35.9415,-20.9259)">
            <path d="M336.071,167.719C282.857,175.576 266.964,272.005 333.393,293.076C345.893,322.005 377.321,320.755 392.857,301.648C387.679,305.755 372.857,304.505 372.857,304.505C368.75,303.434 365.179,298.969 365,292.005C374.821,287.719 384.356,263.15 384.356,263.15C413.438,270.648 409.333,307.784 385.893,319.862C441.847,308.87 457.679,228.791 390.714,196.648C373.073,160.14 332.691,177.088 331.62,186.374C343.868,181.07 354.617,183.877 358.911,195.494C352.983,197.923 339.459,205.573 338.929,227.184C321.377,221.628 305.136,196.13 336.071,167.719Z" style="fill:url(#_Radial1);stroke:black;stroke-width:2.36px;"/>
        </g>
        <g id="path4753" transform="matrix(0.126854,0,0,0.126854,-35.9415,-20.9259)">
            <ellipse cx="360.631" cy="243.754" rx="11.389" ry="18.473" style="fill:rgb(255,244,64);stroke:black;stroke-width:2.36px;stroke-linecap:round;stroke-linejoin:round;"/>
        </g>
    </g>
    <defs>
        <radialGradient id="_Radial1" cx="0" cy="0" r="1" gradientUnits="userSpaceOnUse" gradientTransform="matrix(86.0201,-101.04,95.318,81.1486,362.164,243.67)"><stop offset="0" style="stop-color:rgb(146,87,141);stop-opacity:1"/><stop offset="0.99" style="stop-color:rgb(141,84,136);stop-opacity:1"/><stop offset="1" style="stop-color:black;stop-opacity:1"/></radialGradient>
    </defs>
</svg>
